%TF.GenerationSoftware,KiCad,Pcbnew,9.0.6*%
%TF.CreationDate,2026-07-18T16:33:26+05:30*%
%TF.ProjectId,AC-DCconvertor,41432d44-4363-46f6-9e76-6572746f722e,rev?*%
%TF.SameCoordinates,Original*%
%TF.FileFunction,Legend,Top*%
%TF.FilePolarity,Positive*%
%FSLAX46Y46*%
G04 Gerber Fmt 4.6, Leading zero omitted, Abs format (unit mm)*
G04 Created by KiCad (PCBNEW 9.0.6) date 2026-07-18 16:33:26*
%MOMM*%
%LPD*%
G01*
G04 APERTURE LIST*
%ADD10C,0.100000*%
%ADD11C,0.150000*%
%ADD12C,0.120000*%
%ADD13C,0.010000*%
G04 APERTURE END LIST*
D10*
X119372419Y-93696115D02*
X118372419Y-93696115D01*
X118372419Y-93696115D02*
X118372419Y-93458020D01*
X118372419Y-93458020D02*
X118420038Y-93315163D01*
X118420038Y-93315163D02*
X118515276Y-93219925D01*
X118515276Y-93219925D02*
X118610514Y-93172306D01*
X118610514Y-93172306D02*
X118800990Y-93124687D01*
X118800990Y-93124687D02*
X118943847Y-93124687D01*
X118943847Y-93124687D02*
X119134323Y-93172306D01*
X119134323Y-93172306D02*
X119229561Y-93219925D01*
X119229561Y-93219925D02*
X119324800Y-93315163D01*
X119324800Y-93315163D02*
X119372419Y-93458020D01*
X119372419Y-93458020D02*
X119372419Y-93696115D01*
X119277180Y-92124687D02*
X119324800Y-92172306D01*
X119324800Y-92172306D02*
X119372419Y-92315163D01*
X119372419Y-92315163D02*
X119372419Y-92410401D01*
X119372419Y-92410401D02*
X119324800Y-92553258D01*
X119324800Y-92553258D02*
X119229561Y-92648496D01*
X119229561Y-92648496D02*
X119134323Y-92696115D01*
X119134323Y-92696115D02*
X118943847Y-92743734D01*
X118943847Y-92743734D02*
X118800990Y-92743734D01*
X118800990Y-92743734D02*
X118610514Y-92696115D01*
X118610514Y-92696115D02*
X118515276Y-92648496D01*
X118515276Y-92648496D02*
X118420038Y-92553258D01*
X118420038Y-92553258D02*
X118372419Y-92410401D01*
X118372419Y-92410401D02*
X118372419Y-92315163D01*
X118372419Y-92315163D02*
X118420038Y-92172306D01*
X118420038Y-92172306D02*
X118467657Y-92124687D01*
X119372419Y-90791353D02*
X119324800Y-90886591D01*
X119324800Y-90886591D02*
X119277180Y-90934210D01*
X119277180Y-90934210D02*
X119181942Y-90981829D01*
X119181942Y-90981829D02*
X118896228Y-90981829D01*
X118896228Y-90981829D02*
X118800990Y-90934210D01*
X118800990Y-90934210D02*
X118753371Y-90886591D01*
X118753371Y-90886591D02*
X118705752Y-90791353D01*
X118705752Y-90791353D02*
X118705752Y-90648496D01*
X118705752Y-90648496D02*
X118753371Y-90553258D01*
X118753371Y-90553258D02*
X118800990Y-90505639D01*
X118800990Y-90505639D02*
X118896228Y-90458020D01*
X118896228Y-90458020D02*
X119181942Y-90458020D01*
X119181942Y-90458020D02*
X119277180Y-90505639D01*
X119277180Y-90505639D02*
X119324800Y-90553258D01*
X119324800Y-90553258D02*
X119372419Y-90648496D01*
X119372419Y-90648496D02*
X119372419Y-90791353D01*
X118705752Y-89600877D02*
X119372419Y-89600877D01*
X118705752Y-90029448D02*
X119229561Y-90029448D01*
X119229561Y-90029448D02*
X119324800Y-89981829D01*
X119324800Y-89981829D02*
X119372419Y-89886591D01*
X119372419Y-89886591D02*
X119372419Y-89743734D01*
X119372419Y-89743734D02*
X119324800Y-89648496D01*
X119324800Y-89648496D02*
X119277180Y-89600877D01*
X118705752Y-89267543D02*
X118705752Y-88886591D01*
X118372419Y-89124686D02*
X119229561Y-89124686D01*
X119229561Y-89124686D02*
X119324800Y-89077067D01*
X119324800Y-89077067D02*
X119372419Y-88981829D01*
X119372419Y-88981829D02*
X119372419Y-88886591D01*
X119086704Y-74743734D02*
X119086704Y-74267544D01*
X119372419Y-74838972D02*
X118372419Y-74505639D01*
X118372419Y-74505639D02*
X119372419Y-74172306D01*
X119277180Y-73267544D02*
X119324800Y-73315163D01*
X119324800Y-73315163D02*
X119372419Y-73458020D01*
X119372419Y-73458020D02*
X119372419Y-73553258D01*
X119372419Y-73553258D02*
X119324800Y-73696115D01*
X119324800Y-73696115D02*
X119229561Y-73791353D01*
X119229561Y-73791353D02*
X119134323Y-73838972D01*
X119134323Y-73838972D02*
X118943847Y-73886591D01*
X118943847Y-73886591D02*
X118800990Y-73886591D01*
X118800990Y-73886591D02*
X118610514Y-73838972D01*
X118610514Y-73838972D02*
X118515276Y-73791353D01*
X118515276Y-73791353D02*
X118420038Y-73696115D01*
X118420038Y-73696115D02*
X118372419Y-73553258D01*
X118372419Y-73553258D02*
X118372419Y-73458020D01*
X118372419Y-73458020D02*
X118420038Y-73315163D01*
X118420038Y-73315163D02*
X118467657Y-73267544D01*
X119372419Y-72077067D02*
X118705752Y-72077067D01*
X118372419Y-72077067D02*
X118420038Y-72124686D01*
X118420038Y-72124686D02*
X118467657Y-72077067D01*
X118467657Y-72077067D02*
X118420038Y-72029448D01*
X118420038Y-72029448D02*
X118372419Y-72077067D01*
X118372419Y-72077067D02*
X118467657Y-72077067D01*
X118705752Y-71600877D02*
X119372419Y-71600877D01*
X118800990Y-71600877D02*
X118753371Y-71553258D01*
X118753371Y-71553258D02*
X118705752Y-71458020D01*
X118705752Y-71458020D02*
X118705752Y-71315163D01*
X118705752Y-71315163D02*
X118753371Y-71219925D01*
X118753371Y-71219925D02*
X118848609Y-71172306D01*
X118848609Y-71172306D02*
X119372419Y-71172306D01*
X141756265Y-110586704D02*
X142232455Y-110586704D01*
X141661027Y-110872419D02*
X141994360Y-109872419D01*
X141994360Y-109872419D02*
X142327693Y-110872419D01*
X143232455Y-110777180D02*
X143184836Y-110824800D01*
X143184836Y-110824800D02*
X143041979Y-110872419D01*
X143041979Y-110872419D02*
X142946741Y-110872419D01*
X142946741Y-110872419D02*
X142803884Y-110824800D01*
X142803884Y-110824800D02*
X142708646Y-110729561D01*
X142708646Y-110729561D02*
X142661027Y-110634323D01*
X142661027Y-110634323D02*
X142613408Y-110443847D01*
X142613408Y-110443847D02*
X142613408Y-110300990D01*
X142613408Y-110300990D02*
X142661027Y-110110514D01*
X142661027Y-110110514D02*
X142708646Y-110015276D01*
X142708646Y-110015276D02*
X142803884Y-109920038D01*
X142803884Y-109920038D02*
X142946741Y-109872419D01*
X142946741Y-109872419D02*
X143041979Y-109872419D01*
X143041979Y-109872419D02*
X143184836Y-109920038D01*
X143184836Y-109920038D02*
X143232455Y-109967657D01*
X144280075Y-110205752D02*
X144661027Y-110205752D01*
X144422932Y-109872419D02*
X144422932Y-110729561D01*
X144422932Y-110729561D02*
X144470551Y-110824800D01*
X144470551Y-110824800D02*
X144565789Y-110872419D01*
X144565789Y-110872419D02*
X144661027Y-110872419D01*
X145137218Y-110872419D02*
X145041980Y-110824800D01*
X145041980Y-110824800D02*
X144994361Y-110777180D01*
X144994361Y-110777180D02*
X144946742Y-110681942D01*
X144946742Y-110681942D02*
X144946742Y-110396228D01*
X144946742Y-110396228D02*
X144994361Y-110300990D01*
X144994361Y-110300990D02*
X145041980Y-110253371D01*
X145041980Y-110253371D02*
X145137218Y-110205752D01*
X145137218Y-110205752D02*
X145280075Y-110205752D01*
X145280075Y-110205752D02*
X145375313Y-110253371D01*
X145375313Y-110253371D02*
X145422932Y-110300990D01*
X145422932Y-110300990D02*
X145470551Y-110396228D01*
X145470551Y-110396228D02*
X145470551Y-110681942D01*
X145470551Y-110681942D02*
X145422932Y-110777180D01*
X145422932Y-110777180D02*
X145375313Y-110824800D01*
X145375313Y-110824800D02*
X145280075Y-110872419D01*
X145280075Y-110872419D02*
X145137218Y-110872419D01*
X146661028Y-110872419D02*
X146661028Y-109872419D01*
X146661028Y-109872419D02*
X146899123Y-109872419D01*
X146899123Y-109872419D02*
X147041980Y-109920038D01*
X147041980Y-109920038D02*
X147137218Y-110015276D01*
X147137218Y-110015276D02*
X147184837Y-110110514D01*
X147184837Y-110110514D02*
X147232456Y-110300990D01*
X147232456Y-110300990D02*
X147232456Y-110443847D01*
X147232456Y-110443847D02*
X147184837Y-110634323D01*
X147184837Y-110634323D02*
X147137218Y-110729561D01*
X147137218Y-110729561D02*
X147041980Y-110824800D01*
X147041980Y-110824800D02*
X146899123Y-110872419D01*
X146899123Y-110872419D02*
X146661028Y-110872419D01*
X148232456Y-110777180D02*
X148184837Y-110824800D01*
X148184837Y-110824800D02*
X148041980Y-110872419D01*
X148041980Y-110872419D02*
X147946742Y-110872419D01*
X147946742Y-110872419D02*
X147803885Y-110824800D01*
X147803885Y-110824800D02*
X147708647Y-110729561D01*
X147708647Y-110729561D02*
X147661028Y-110634323D01*
X147661028Y-110634323D02*
X147613409Y-110443847D01*
X147613409Y-110443847D02*
X147613409Y-110300990D01*
X147613409Y-110300990D02*
X147661028Y-110110514D01*
X147661028Y-110110514D02*
X147708647Y-110015276D01*
X147708647Y-110015276D02*
X147803885Y-109920038D01*
X147803885Y-109920038D02*
X147946742Y-109872419D01*
X147946742Y-109872419D02*
X148041980Y-109872419D01*
X148041980Y-109872419D02*
X148184837Y-109920038D01*
X148184837Y-109920038D02*
X148232456Y-109967657D01*
X149851504Y-110824800D02*
X149756266Y-110872419D01*
X149756266Y-110872419D02*
X149565790Y-110872419D01*
X149565790Y-110872419D02*
X149470552Y-110824800D01*
X149470552Y-110824800D02*
X149422933Y-110777180D01*
X149422933Y-110777180D02*
X149375314Y-110681942D01*
X149375314Y-110681942D02*
X149375314Y-110396228D01*
X149375314Y-110396228D02*
X149422933Y-110300990D01*
X149422933Y-110300990D02*
X149470552Y-110253371D01*
X149470552Y-110253371D02*
X149565790Y-110205752D01*
X149565790Y-110205752D02*
X149756266Y-110205752D01*
X149756266Y-110205752D02*
X149851504Y-110253371D01*
X150422933Y-110872419D02*
X150327695Y-110824800D01*
X150327695Y-110824800D02*
X150280076Y-110777180D01*
X150280076Y-110777180D02*
X150232457Y-110681942D01*
X150232457Y-110681942D02*
X150232457Y-110396228D01*
X150232457Y-110396228D02*
X150280076Y-110300990D01*
X150280076Y-110300990D02*
X150327695Y-110253371D01*
X150327695Y-110253371D02*
X150422933Y-110205752D01*
X150422933Y-110205752D02*
X150565790Y-110205752D01*
X150565790Y-110205752D02*
X150661028Y-110253371D01*
X150661028Y-110253371D02*
X150708647Y-110300990D01*
X150708647Y-110300990D02*
X150756266Y-110396228D01*
X150756266Y-110396228D02*
X150756266Y-110681942D01*
X150756266Y-110681942D02*
X150708647Y-110777180D01*
X150708647Y-110777180D02*
X150661028Y-110824800D01*
X150661028Y-110824800D02*
X150565790Y-110872419D01*
X150565790Y-110872419D02*
X150422933Y-110872419D01*
X151184838Y-110205752D02*
X151184838Y-110872419D01*
X151184838Y-110300990D02*
X151232457Y-110253371D01*
X151232457Y-110253371D02*
X151327695Y-110205752D01*
X151327695Y-110205752D02*
X151470552Y-110205752D01*
X151470552Y-110205752D02*
X151565790Y-110253371D01*
X151565790Y-110253371D02*
X151613409Y-110348609D01*
X151613409Y-110348609D02*
X151613409Y-110872419D01*
X151994362Y-110205752D02*
X152232457Y-110872419D01*
X152232457Y-110872419D02*
X152470552Y-110205752D01*
X153232457Y-110824800D02*
X153137219Y-110872419D01*
X153137219Y-110872419D02*
X152946743Y-110872419D01*
X152946743Y-110872419D02*
X152851505Y-110824800D01*
X152851505Y-110824800D02*
X152803886Y-110729561D01*
X152803886Y-110729561D02*
X152803886Y-110348609D01*
X152803886Y-110348609D02*
X152851505Y-110253371D01*
X152851505Y-110253371D02*
X152946743Y-110205752D01*
X152946743Y-110205752D02*
X153137219Y-110205752D01*
X153137219Y-110205752D02*
X153232457Y-110253371D01*
X153232457Y-110253371D02*
X153280076Y-110348609D01*
X153280076Y-110348609D02*
X153280076Y-110443847D01*
X153280076Y-110443847D02*
X152803886Y-110539085D01*
X153708648Y-110872419D02*
X153708648Y-110205752D01*
X153708648Y-110396228D02*
X153756267Y-110300990D01*
X153756267Y-110300990D02*
X153803886Y-110253371D01*
X153803886Y-110253371D02*
X153899124Y-110205752D01*
X153899124Y-110205752D02*
X153994362Y-110205752D01*
X154184839Y-110205752D02*
X154565791Y-110205752D01*
X154327696Y-109872419D02*
X154327696Y-110729561D01*
X154327696Y-110729561D02*
X154375315Y-110824800D01*
X154375315Y-110824800D02*
X154470553Y-110872419D01*
X154470553Y-110872419D02*
X154565791Y-110872419D01*
X155280077Y-110824800D02*
X155184839Y-110872419D01*
X155184839Y-110872419D02*
X154994363Y-110872419D01*
X154994363Y-110872419D02*
X154899125Y-110824800D01*
X154899125Y-110824800D02*
X154851506Y-110729561D01*
X154851506Y-110729561D02*
X154851506Y-110348609D01*
X154851506Y-110348609D02*
X154899125Y-110253371D01*
X154899125Y-110253371D02*
X154994363Y-110205752D01*
X154994363Y-110205752D02*
X155184839Y-110205752D01*
X155184839Y-110205752D02*
X155280077Y-110253371D01*
X155280077Y-110253371D02*
X155327696Y-110348609D01*
X155327696Y-110348609D02*
X155327696Y-110443847D01*
X155327696Y-110443847D02*
X154851506Y-110539085D01*
X155756268Y-110872419D02*
X155756268Y-110205752D01*
X155756268Y-110396228D02*
X155803887Y-110300990D01*
X155803887Y-110300990D02*
X155851506Y-110253371D01*
X155851506Y-110253371D02*
X155946744Y-110205752D01*
X155946744Y-110205752D02*
X156041982Y-110205752D01*
D11*
X123954819Y-87833333D02*
X124669104Y-87833333D01*
X124669104Y-87833333D02*
X124811961Y-87880952D01*
X124811961Y-87880952D02*
X124907200Y-87976190D01*
X124907200Y-87976190D02*
X124954819Y-88119047D01*
X124954819Y-88119047D02*
X124954819Y-88214285D01*
X124954819Y-86833333D02*
X124954819Y-87404761D01*
X124954819Y-87119047D02*
X123954819Y-87119047D01*
X123954819Y-87119047D02*
X124097676Y-87214285D01*
X124097676Y-87214285D02*
X124192914Y-87309523D01*
X124192914Y-87309523D02*
X124240533Y-87404761D01*
X156031905Y-73994819D02*
X156031905Y-72994819D01*
X156031905Y-72994819D02*
X156270000Y-72994819D01*
X156270000Y-72994819D02*
X156412857Y-73042438D01*
X156412857Y-73042438D02*
X156508095Y-73137676D01*
X156508095Y-73137676D02*
X156555714Y-73232914D01*
X156555714Y-73232914D02*
X156603333Y-73423390D01*
X156603333Y-73423390D02*
X156603333Y-73566247D01*
X156603333Y-73566247D02*
X156555714Y-73756723D01*
X156555714Y-73756723D02*
X156508095Y-73851961D01*
X156508095Y-73851961D02*
X156412857Y-73947200D01*
X156412857Y-73947200D02*
X156270000Y-73994819D01*
X156270000Y-73994819D02*
X156031905Y-73994819D01*
X157508095Y-72994819D02*
X157031905Y-72994819D01*
X157031905Y-72994819D02*
X156984286Y-73471009D01*
X156984286Y-73471009D02*
X157031905Y-73423390D01*
X157031905Y-73423390D02*
X157127143Y-73375771D01*
X157127143Y-73375771D02*
X157365238Y-73375771D01*
X157365238Y-73375771D02*
X157460476Y-73423390D01*
X157460476Y-73423390D02*
X157508095Y-73471009D01*
X157508095Y-73471009D02*
X157555714Y-73566247D01*
X157555714Y-73566247D02*
X157555714Y-73804342D01*
X157555714Y-73804342D02*
X157508095Y-73899580D01*
X157508095Y-73899580D02*
X157460476Y-73947200D01*
X157460476Y-73947200D02*
X157365238Y-73994819D01*
X157365238Y-73994819D02*
X157127143Y-73994819D01*
X157127143Y-73994819D02*
X157031905Y-73947200D01*
X157031905Y-73947200D02*
X156984286Y-73899580D01*
X145924819Y-80318094D02*
X144924819Y-80318094D01*
X144924819Y-80318094D02*
X144924819Y-80079999D01*
X144924819Y-80079999D02*
X144972438Y-79937142D01*
X144972438Y-79937142D02*
X145067676Y-79841904D01*
X145067676Y-79841904D02*
X145162914Y-79794285D01*
X145162914Y-79794285D02*
X145353390Y-79746666D01*
X145353390Y-79746666D02*
X145496247Y-79746666D01*
X145496247Y-79746666D02*
X145686723Y-79794285D01*
X145686723Y-79794285D02*
X145781961Y-79841904D01*
X145781961Y-79841904D02*
X145877200Y-79937142D01*
X145877200Y-79937142D02*
X145924819Y-80079999D01*
X145924819Y-80079999D02*
X145924819Y-80318094D01*
X144924819Y-79413332D02*
X144924819Y-78794285D01*
X144924819Y-78794285D02*
X145305771Y-79127618D01*
X145305771Y-79127618D02*
X145305771Y-78984761D01*
X145305771Y-78984761D02*
X145353390Y-78889523D01*
X145353390Y-78889523D02*
X145401009Y-78841904D01*
X145401009Y-78841904D02*
X145496247Y-78794285D01*
X145496247Y-78794285D02*
X145734342Y-78794285D01*
X145734342Y-78794285D02*
X145829580Y-78841904D01*
X145829580Y-78841904D02*
X145877200Y-78889523D01*
X145877200Y-78889523D02*
X145924819Y-78984761D01*
X145924819Y-78984761D02*
X145924819Y-79270475D01*
X145924819Y-79270475D02*
X145877200Y-79365713D01*
X145877200Y-79365713D02*
X145829580Y-79413332D01*
X145554819Y-74761904D02*
X144554819Y-74761904D01*
X145554819Y-74190476D02*
X144983390Y-74619047D01*
X144554819Y-74190476D02*
X145126247Y-74761904D01*
X139424819Y-94818094D02*
X138424819Y-94818094D01*
X138424819Y-94818094D02*
X138424819Y-94579999D01*
X138424819Y-94579999D02*
X138472438Y-94437142D01*
X138472438Y-94437142D02*
X138567676Y-94341904D01*
X138567676Y-94341904D02*
X138662914Y-94294285D01*
X138662914Y-94294285D02*
X138853390Y-94246666D01*
X138853390Y-94246666D02*
X138996247Y-94246666D01*
X138996247Y-94246666D02*
X139186723Y-94294285D01*
X139186723Y-94294285D02*
X139281961Y-94341904D01*
X139281961Y-94341904D02*
X139377200Y-94437142D01*
X139377200Y-94437142D02*
X139424819Y-94579999D01*
X139424819Y-94579999D02*
X139424819Y-94818094D01*
X138520057Y-93865713D02*
X138472438Y-93818094D01*
X138472438Y-93818094D02*
X138424819Y-93722856D01*
X138424819Y-93722856D02*
X138424819Y-93484761D01*
X138424819Y-93484761D02*
X138472438Y-93389523D01*
X138472438Y-93389523D02*
X138520057Y-93341904D01*
X138520057Y-93341904D02*
X138615295Y-93294285D01*
X138615295Y-93294285D02*
X138710533Y-93294285D01*
X138710533Y-93294285D02*
X138853390Y-93341904D01*
X138853390Y-93341904D02*
X139424819Y-93913332D01*
X139424819Y-93913332D02*
X139424819Y-93294285D01*
X139054819Y-89261904D02*
X138054819Y-89261904D01*
X139054819Y-88690476D02*
X138483390Y-89119047D01*
X138054819Y-88690476D02*
X138626247Y-89261904D01*
X152833333Y-83584819D02*
X152500000Y-83108628D01*
X152261905Y-83584819D02*
X152261905Y-82584819D01*
X152261905Y-82584819D02*
X152642857Y-82584819D01*
X152642857Y-82584819D02*
X152738095Y-82632438D01*
X152738095Y-82632438D02*
X152785714Y-82680057D01*
X152785714Y-82680057D02*
X152833333Y-82775295D01*
X152833333Y-82775295D02*
X152833333Y-82918152D01*
X152833333Y-82918152D02*
X152785714Y-83013390D01*
X152785714Y-83013390D02*
X152738095Y-83061009D01*
X152738095Y-83061009D02*
X152642857Y-83108628D01*
X152642857Y-83108628D02*
X152261905Y-83108628D01*
X153214286Y-82680057D02*
X153261905Y-82632438D01*
X153261905Y-82632438D02*
X153357143Y-82584819D01*
X153357143Y-82584819D02*
X153595238Y-82584819D01*
X153595238Y-82584819D02*
X153690476Y-82632438D01*
X153690476Y-82632438D02*
X153738095Y-82680057D01*
X153738095Y-82680057D02*
X153785714Y-82775295D01*
X153785714Y-82775295D02*
X153785714Y-82870533D01*
X153785714Y-82870533D02*
X153738095Y-83013390D01*
X153738095Y-83013390D02*
X153166667Y-83584819D01*
X153166667Y-83584819D02*
X153785714Y-83584819D01*
X158609580Y-95416666D02*
X158657200Y-95464285D01*
X158657200Y-95464285D02*
X158704819Y-95607142D01*
X158704819Y-95607142D02*
X158704819Y-95702380D01*
X158704819Y-95702380D02*
X158657200Y-95845237D01*
X158657200Y-95845237D02*
X158561961Y-95940475D01*
X158561961Y-95940475D02*
X158466723Y-95988094D01*
X158466723Y-95988094D02*
X158276247Y-96035713D01*
X158276247Y-96035713D02*
X158133390Y-96035713D01*
X158133390Y-96035713D02*
X157942914Y-95988094D01*
X157942914Y-95988094D02*
X157847676Y-95940475D01*
X157847676Y-95940475D02*
X157752438Y-95845237D01*
X157752438Y-95845237D02*
X157704819Y-95702380D01*
X157704819Y-95702380D02*
X157704819Y-95607142D01*
X157704819Y-95607142D02*
X157752438Y-95464285D01*
X157752438Y-95464285D02*
X157800057Y-95416666D01*
X158704819Y-94464285D02*
X158704819Y-95035713D01*
X158704819Y-94749999D02*
X157704819Y-94749999D01*
X157704819Y-94749999D02*
X157847676Y-94845237D01*
X157847676Y-94845237D02*
X157942914Y-94940475D01*
X157942914Y-94940475D02*
X157990533Y-95035713D01*
X152324819Y-78166666D02*
X151848628Y-78499999D01*
X152324819Y-78738094D02*
X151324819Y-78738094D01*
X151324819Y-78738094D02*
X151324819Y-78357142D01*
X151324819Y-78357142D02*
X151372438Y-78261904D01*
X151372438Y-78261904D02*
X151420057Y-78214285D01*
X151420057Y-78214285D02*
X151515295Y-78166666D01*
X151515295Y-78166666D02*
X151658152Y-78166666D01*
X151658152Y-78166666D02*
X151753390Y-78214285D01*
X151753390Y-78214285D02*
X151801009Y-78261904D01*
X151801009Y-78261904D02*
X151848628Y-78357142D01*
X151848628Y-78357142D02*
X151848628Y-78738094D01*
X152324819Y-77214285D02*
X152324819Y-77785713D01*
X152324819Y-77499999D02*
X151324819Y-77499999D01*
X151324819Y-77499999D02*
X151467676Y-77595237D01*
X151467676Y-77595237D02*
X151562914Y-77690475D01*
X151562914Y-77690475D02*
X151610533Y-77785713D01*
X124454819Y-106643333D02*
X125169104Y-106643333D01*
X125169104Y-106643333D02*
X125311961Y-106690952D01*
X125311961Y-106690952D02*
X125407200Y-106786190D01*
X125407200Y-106786190D02*
X125454819Y-106929047D01*
X125454819Y-106929047D02*
X125454819Y-107024285D01*
X124550057Y-106214761D02*
X124502438Y-106167142D01*
X124502438Y-106167142D02*
X124454819Y-106071904D01*
X124454819Y-106071904D02*
X124454819Y-105833809D01*
X124454819Y-105833809D02*
X124502438Y-105738571D01*
X124502438Y-105738571D02*
X124550057Y-105690952D01*
X124550057Y-105690952D02*
X124645295Y-105643333D01*
X124645295Y-105643333D02*
X124740533Y-105643333D01*
X124740533Y-105643333D02*
X124883390Y-105690952D01*
X124883390Y-105690952D02*
X125454819Y-106262380D01*
X125454819Y-106262380D02*
X125454819Y-105643333D01*
X139424819Y-80318094D02*
X138424819Y-80318094D01*
X138424819Y-80318094D02*
X138424819Y-80079999D01*
X138424819Y-80079999D02*
X138472438Y-79937142D01*
X138472438Y-79937142D02*
X138567676Y-79841904D01*
X138567676Y-79841904D02*
X138662914Y-79794285D01*
X138662914Y-79794285D02*
X138853390Y-79746666D01*
X138853390Y-79746666D02*
X138996247Y-79746666D01*
X138996247Y-79746666D02*
X139186723Y-79794285D01*
X139186723Y-79794285D02*
X139281961Y-79841904D01*
X139281961Y-79841904D02*
X139377200Y-79937142D01*
X139377200Y-79937142D02*
X139424819Y-80079999D01*
X139424819Y-80079999D02*
X139424819Y-80318094D01*
X139424819Y-78794285D02*
X139424819Y-79365713D01*
X139424819Y-79079999D02*
X138424819Y-79079999D01*
X138424819Y-79079999D02*
X138567676Y-79175237D01*
X138567676Y-79175237D02*
X138662914Y-79270475D01*
X138662914Y-79270475D02*
X138710533Y-79365713D01*
X139054819Y-74761904D02*
X138054819Y-74761904D01*
X139054819Y-74190476D02*
X138483390Y-74619047D01*
X138054819Y-74190476D02*
X138626247Y-74761904D01*
X145424819Y-94818094D02*
X144424819Y-94818094D01*
X144424819Y-94818094D02*
X144424819Y-94579999D01*
X144424819Y-94579999D02*
X144472438Y-94437142D01*
X144472438Y-94437142D02*
X144567676Y-94341904D01*
X144567676Y-94341904D02*
X144662914Y-94294285D01*
X144662914Y-94294285D02*
X144853390Y-94246666D01*
X144853390Y-94246666D02*
X144996247Y-94246666D01*
X144996247Y-94246666D02*
X145186723Y-94294285D01*
X145186723Y-94294285D02*
X145281961Y-94341904D01*
X145281961Y-94341904D02*
X145377200Y-94437142D01*
X145377200Y-94437142D02*
X145424819Y-94579999D01*
X145424819Y-94579999D02*
X145424819Y-94818094D01*
X144758152Y-93389523D02*
X145424819Y-93389523D01*
X144377200Y-93627618D02*
X145091485Y-93865713D01*
X145091485Y-93865713D02*
X145091485Y-93246666D01*
X145054819Y-89261904D02*
X144054819Y-89261904D01*
X145054819Y-88690476D02*
X144483390Y-89119047D01*
X144054819Y-88690476D02*
X144626247Y-89261904D01*
D12*
%TO.C,J1*%
X120430000Y-86290000D02*
X120430000Y-85290000D01*
X120430000Y-86290000D02*
X121430000Y-86290000D01*
X120730000Y-70630000D02*
X129370000Y-70630000D01*
X120730000Y-85980000D02*
X120730000Y-70630000D01*
X122300000Y-71590000D02*
X122300000Y-85010000D01*
X122300000Y-85010000D02*
X127600000Y-85010000D01*
X127600000Y-71590000D02*
X122300000Y-71590000D01*
X127600000Y-72340000D02*
X127600000Y-71590000D01*
X127600000Y-79980000D02*
X127600000Y-76660000D01*
X127600000Y-85010000D02*
X127600000Y-84260000D01*
X129370000Y-70630000D02*
X129370000Y-85990000D01*
X129370000Y-85990000D02*
X120730000Y-85990000D01*
X127599291Y-79979304D02*
G75*
G02*
X127600000Y-84260000I-2099291J-2140696D01*
G01*
X127600522Y-72340508D02*
G75*
G02*
X127600000Y-76660000I-2100522J-2159492D01*
G01*
D13*
%TO.C,REF\u002A\u002A*%
X151188614Y-107775877D02*
X151212327Y-107790647D01*
X151238978Y-107812227D01*
X151238978Y-108133773D01*
X151238893Y-108227830D01*
X151238529Y-108301932D01*
X151237724Y-108358704D01*
X151236313Y-108400768D01*
X151234133Y-108430748D01*
X151231021Y-108451267D01*
X151226814Y-108464949D01*
X151221348Y-108474416D01*
X151217472Y-108479082D01*
X151186034Y-108499575D01*
X151150233Y-108498739D01*
X151118873Y-108481264D01*
X151092222Y-108459684D01*
X151092222Y-107812227D01*
X151118873Y-107790647D01*
X151144594Y-107774949D01*
X151165600Y-107769067D01*
X151188614Y-107775877D01*
G36*
X151188614Y-107775877D02*
G01*
X151212327Y-107790647D01*
X151238978Y-107812227D01*
X151238978Y-108133773D01*
X151238893Y-108227830D01*
X151238529Y-108301932D01*
X151237724Y-108358704D01*
X151236313Y-108400768D01*
X151234133Y-108430748D01*
X151231021Y-108451267D01*
X151226814Y-108464949D01*
X151221348Y-108474416D01*
X151217472Y-108479082D01*
X151186034Y-108499575D01*
X151150233Y-108498739D01*
X151118873Y-108481264D01*
X151092222Y-108459684D01*
X151092222Y-107812227D01*
X151118873Y-107790647D01*
X151144594Y-107774949D01*
X151165600Y-107769067D01*
X151188614Y-107775877D01*
G37*
X144076178Y-107791645D02*
X144082758Y-107799218D01*
X144087921Y-107808987D01*
X144091836Y-107823571D01*
X144094676Y-107845585D01*
X144096613Y-107877648D01*
X144097817Y-107922375D01*
X144098461Y-107982385D01*
X144098716Y-108060294D01*
X144098755Y-108135956D01*
X144098686Y-108229802D01*
X144098362Y-108303689D01*
X144097614Y-108360232D01*
X144096268Y-108402049D01*
X144094154Y-108431757D01*
X144091100Y-108451973D01*
X144086934Y-108465314D01*
X144081484Y-108474398D01*
X144076178Y-108480267D01*
X144043174Y-108499947D01*
X144008009Y-108498181D01*
X143976545Y-108476717D01*
X143969316Y-108468337D01*
X143963666Y-108458614D01*
X143959401Y-108444861D01*
X143956327Y-108424389D01*
X143954248Y-108394512D01*
X143952970Y-108352541D01*
X143952299Y-108295789D01*
X143952041Y-108221567D01*
X143952000Y-108137537D01*
X143952000Y-107824485D01*
X143979709Y-107796776D01*
X144013863Y-107773463D01*
X144046994Y-107772623D01*
X144076178Y-107791645D01*
G36*
X144076178Y-107791645D02*
G01*
X144082758Y-107799218D01*
X144087921Y-107808987D01*
X144091836Y-107823571D01*
X144094676Y-107845585D01*
X144096613Y-107877648D01*
X144097817Y-107922375D01*
X144098461Y-107982385D01*
X144098716Y-108060294D01*
X144098755Y-108135956D01*
X144098686Y-108229802D01*
X144098362Y-108303689D01*
X144097614Y-108360232D01*
X144096268Y-108402049D01*
X144094154Y-108431757D01*
X144091100Y-108451973D01*
X144086934Y-108465314D01*
X144081484Y-108474398D01*
X144076178Y-108480267D01*
X144043174Y-108499947D01*
X144008009Y-108498181D01*
X143976545Y-108476717D01*
X143969316Y-108468337D01*
X143963666Y-108458614D01*
X143959401Y-108444861D01*
X143956327Y-108424389D01*
X143954248Y-108394512D01*
X143952970Y-108352541D01*
X143952299Y-108295789D01*
X143952041Y-108221567D01*
X143952000Y-108137537D01*
X143952000Y-107824485D01*
X143979709Y-107796776D01*
X144013863Y-107773463D01*
X144046994Y-107772623D01*
X144076178Y-107791645D01*
G37*
X144726957Y-102526571D02*
X144823232Y-102550809D01*
X144909816Y-102593641D01*
X144984627Y-102653419D01*
X145045582Y-102728494D01*
X145090601Y-102817220D01*
X145116864Y-102913530D01*
X145122714Y-103010795D01*
X145107860Y-103104654D01*
X145074160Y-103192511D01*
X145023472Y-103271770D01*
X144957655Y-103339836D01*
X144878566Y-103394112D01*
X144788066Y-103432002D01*
X144736800Y-103444426D01*
X144692302Y-103451947D01*
X144658001Y-103454919D01*
X144625040Y-103453094D01*
X144584566Y-103446225D01*
X144551469Y-103439250D01*
X144458053Y-103407741D01*
X144374381Y-103356617D01*
X144302335Y-103287429D01*
X144243800Y-103201728D01*
X144229852Y-103174489D01*
X144213414Y-103138122D01*
X144203106Y-103107582D01*
X144197540Y-103075450D01*
X144195331Y-103034307D01*
X144195052Y-102988222D01*
X144199139Y-102903865D01*
X144212554Y-102834586D01*
X144237744Y-102773961D01*
X144277154Y-102715567D01*
X144315702Y-102671302D01*
X144387594Y-102605484D01*
X144462687Y-102560053D01*
X144545438Y-102532850D01*
X144623072Y-102522576D01*
X144726957Y-102526571D01*
G36*
X144726957Y-102526571D02*
G01*
X144823232Y-102550809D01*
X144909816Y-102593641D01*
X144984627Y-102653419D01*
X145045582Y-102728494D01*
X145090601Y-102817220D01*
X145116864Y-102913530D01*
X145122714Y-103010795D01*
X145107860Y-103104654D01*
X145074160Y-103192511D01*
X145023472Y-103271770D01*
X144957655Y-103339836D01*
X144878566Y-103394112D01*
X144788066Y-103432002D01*
X144736800Y-103444426D01*
X144692302Y-103451947D01*
X144658001Y-103454919D01*
X144625040Y-103453094D01*
X144584566Y-103446225D01*
X144551469Y-103439250D01*
X144458053Y-103407741D01*
X144374381Y-103356617D01*
X144302335Y-103287429D01*
X144243800Y-103201728D01*
X144229852Y-103174489D01*
X144213414Y-103138122D01*
X144203106Y-103107582D01*
X144197540Y-103075450D01*
X144195331Y-103034307D01*
X144195052Y-102988222D01*
X144199139Y-102903865D01*
X144212554Y-102834586D01*
X144237744Y-102773961D01*
X144277154Y-102715567D01*
X144315702Y-102671302D01*
X144387594Y-102605484D01*
X144462687Y-102560053D01*
X144545438Y-102532850D01*
X144623072Y-102522576D01*
X144726957Y-102526571D01*
G37*
X151963065Y-107769163D02*
X152041772Y-107769542D01*
X152102863Y-107770333D01*
X152148817Y-107771670D01*
X152182114Y-107773683D01*
X152205236Y-107776506D01*
X152220662Y-107780269D01*
X152230871Y-107785105D01*
X152235813Y-107788822D01*
X152261457Y-107821358D01*
X152264559Y-107855138D01*
X152248711Y-107885826D01*
X152238348Y-107898089D01*
X152227196Y-107906450D01*
X152211035Y-107911657D01*
X152185642Y-107914457D01*
X152146798Y-107915596D01*
X152090280Y-107915821D01*
X152079180Y-107915822D01*
X151933244Y-107915822D01*
X151933244Y-108186756D01*
X151933148Y-108272154D01*
X151932711Y-108337864D01*
X151931712Y-108386774D01*
X151929928Y-108421773D01*
X151927137Y-108445749D01*
X151923117Y-108461593D01*
X151917645Y-108472191D01*
X151910666Y-108480267D01*
X151877734Y-108500112D01*
X151843354Y-108498548D01*
X151812176Y-108475906D01*
X151809886Y-108473100D01*
X151802429Y-108462492D01*
X151796747Y-108450081D01*
X151792601Y-108432850D01*
X151789750Y-108407784D01*
X151787954Y-108371867D01*
X151786972Y-108322083D01*
X151786564Y-108255417D01*
X151786489Y-108179589D01*
X151786489Y-107915822D01*
X151647127Y-107915822D01*
X151587322Y-107915418D01*
X151545918Y-107913840D01*
X151518748Y-107910547D01*
X151501646Y-107904992D01*
X151490443Y-107896631D01*
X151489083Y-107895178D01*
X151472725Y-107861939D01*
X151474172Y-107824362D01*
X151492978Y-107791645D01*
X151500250Y-107785298D01*
X151509627Y-107780266D01*
X151523609Y-107776396D01*
X151544696Y-107773537D01*
X151575389Y-107771535D01*
X151618189Y-107770239D01*
X151675595Y-107769498D01*
X151750110Y-107769158D01*
X151844233Y-107769068D01*
X151864260Y-107769067D01*
X151963065Y-107769163D01*
G36*
X151963065Y-107769163D02*
G01*
X152041772Y-107769542D01*
X152102863Y-107770333D01*
X152148817Y-107771670D01*
X152182114Y-107773683D01*
X152205236Y-107776506D01*
X152220662Y-107780269D01*
X152230871Y-107785105D01*
X152235813Y-107788822D01*
X152261457Y-107821358D01*
X152264559Y-107855138D01*
X152248711Y-107885826D01*
X152238348Y-107898089D01*
X152227196Y-107906450D01*
X152211035Y-107911657D01*
X152185642Y-107914457D01*
X152146798Y-107915596D01*
X152090280Y-107915821D01*
X152079180Y-107915822D01*
X151933244Y-107915822D01*
X151933244Y-108186756D01*
X151933148Y-108272154D01*
X151932711Y-108337864D01*
X151931712Y-108386774D01*
X151929928Y-108421773D01*
X151927137Y-108445749D01*
X151923117Y-108461593D01*
X151917645Y-108472191D01*
X151910666Y-108480267D01*
X151877734Y-108500112D01*
X151843354Y-108498548D01*
X151812176Y-108475906D01*
X151809886Y-108473100D01*
X151802429Y-108462492D01*
X151796747Y-108450081D01*
X151792601Y-108432850D01*
X151789750Y-108407784D01*
X151787954Y-108371867D01*
X151786972Y-108322083D01*
X151786564Y-108255417D01*
X151786489Y-108179589D01*
X151786489Y-107915822D01*
X151647127Y-107915822D01*
X151587322Y-107915418D01*
X151545918Y-107913840D01*
X151518748Y-107910547D01*
X151501646Y-107904992D01*
X151490443Y-107896631D01*
X151489083Y-107895178D01*
X151472725Y-107861939D01*
X151474172Y-107824362D01*
X151492978Y-107791645D01*
X151500250Y-107785298D01*
X151509627Y-107780266D01*
X151523609Y-107776396D01*
X151544696Y-107773537D01*
X151575389Y-107771535D01*
X151618189Y-107770239D01*
X151675595Y-107769498D01*
X151750110Y-107769158D01*
X151844233Y-107769068D01*
X151864260Y-107769067D01*
X151963065Y-107769163D01*
G37*
X153228823Y-107774533D02*
X153260202Y-107796776D01*
X153287911Y-107824485D01*
X153287911Y-108133920D01*
X153287838Y-108225799D01*
X153287495Y-108297840D01*
X153286692Y-108352780D01*
X153285241Y-108393360D01*
X153282952Y-108422317D01*
X153279636Y-108442391D01*
X153275105Y-108456321D01*
X153269169Y-108466845D01*
X153264514Y-108473100D01*
X153233783Y-108497673D01*
X153198496Y-108500341D01*
X153166245Y-108485271D01*
X153155588Y-108476374D01*
X153148464Y-108464557D01*
X153144167Y-108445526D01*
X153141991Y-108414992D01*
X153141228Y-108368662D01*
X153141155Y-108332871D01*
X153141155Y-108198045D01*
X152644444Y-108198045D01*
X152644444Y-108320700D01*
X152643931Y-108376787D01*
X152641876Y-108415333D01*
X152637508Y-108441361D01*
X152630056Y-108459897D01*
X152621047Y-108473100D01*
X152590144Y-108497604D01*
X152555196Y-108500506D01*
X152521738Y-108483089D01*
X152512604Y-108473959D01*
X152506152Y-108461855D01*
X152501897Y-108443001D01*
X152499352Y-108413620D01*
X152498029Y-108369937D01*
X152497443Y-108308175D01*
X152497375Y-108294000D01*
X152496891Y-108177631D01*
X152496641Y-108081727D01*
X152496723Y-108004177D01*
X152497231Y-107942869D01*
X152498262Y-107895690D01*
X152499913Y-107860530D01*
X152502279Y-107835276D01*
X152505457Y-107817817D01*
X152509544Y-107806041D01*
X152514634Y-107797835D01*
X152520266Y-107791645D01*
X152552128Y-107771844D01*
X152585357Y-107774533D01*
X152616735Y-107796776D01*
X152629433Y-107811126D01*
X152637526Y-107826978D01*
X152642042Y-107849554D01*
X152644006Y-107884078D01*
X152644444Y-107935776D01*
X152644444Y-108051289D01*
X153141155Y-108051289D01*
X153141155Y-107932756D01*
X153141662Y-107878148D01*
X153143698Y-107841275D01*
X153148035Y-107817307D01*
X153155447Y-107801415D01*
X153163733Y-107791645D01*
X153195594Y-107771844D01*
X153228823Y-107774533D01*
G36*
X153228823Y-107774533D02*
G01*
X153260202Y-107796776D01*
X153287911Y-107824485D01*
X153287911Y-108133920D01*
X153287838Y-108225799D01*
X153287495Y-108297840D01*
X153286692Y-108352780D01*
X153285241Y-108393360D01*
X153282952Y-108422317D01*
X153279636Y-108442391D01*
X153275105Y-108456321D01*
X153269169Y-108466845D01*
X153264514Y-108473100D01*
X153233783Y-108497673D01*
X153198496Y-108500341D01*
X153166245Y-108485271D01*
X153155588Y-108476374D01*
X153148464Y-108464557D01*
X153144167Y-108445526D01*
X153141991Y-108414992D01*
X153141228Y-108368662D01*
X153141155Y-108332871D01*
X153141155Y-108198045D01*
X152644444Y-108198045D01*
X152644444Y-108320700D01*
X152643931Y-108376787D01*
X152641876Y-108415333D01*
X152637508Y-108441361D01*
X152630056Y-108459897D01*
X152621047Y-108473100D01*
X152590144Y-108497604D01*
X152555196Y-108500506D01*
X152521738Y-108483089D01*
X152512604Y-108473959D01*
X152506152Y-108461855D01*
X152501897Y-108443001D01*
X152499352Y-108413620D01*
X152498029Y-108369937D01*
X152497443Y-108308175D01*
X152497375Y-108294000D01*
X152496891Y-108177631D01*
X152496641Y-108081727D01*
X152496723Y-108004177D01*
X152497231Y-107942869D01*
X152498262Y-107895690D01*
X152499913Y-107860530D01*
X152502279Y-107835276D01*
X152505457Y-107817817D01*
X152509544Y-107806041D01*
X152514634Y-107797835D01*
X152520266Y-107791645D01*
X152552128Y-107771844D01*
X152585357Y-107774533D01*
X152616735Y-107796776D01*
X152629433Y-107811126D01*
X152637526Y-107826978D01*
X152642042Y-107849554D01*
X152644006Y-107884078D01*
X152644444Y-107935776D01*
X152644444Y-108051289D01*
X153141155Y-108051289D01*
X153141155Y-107932756D01*
X153141662Y-107878148D01*
X153143698Y-107841275D01*
X153148035Y-107817307D01*
X153155447Y-107801415D01*
X153163733Y-107791645D01*
X153195594Y-107771844D01*
X153228823Y-107774533D01*
G37*
X148018309Y-107769275D02*
X148147288Y-107773636D01*
X148256991Y-107786861D01*
X148349226Y-107809741D01*
X148425802Y-107843070D01*
X148488527Y-107887638D01*
X148539212Y-107944236D01*
X148579663Y-108013658D01*
X148580459Y-108015351D01*
X148604601Y-108077483D01*
X148613203Y-108132509D01*
X148606231Y-108187887D01*
X148583654Y-108251073D01*
X148579372Y-108260689D01*
X148550172Y-108316966D01*
X148517356Y-108360451D01*
X148475002Y-108397417D01*
X148417190Y-108434135D01*
X148413831Y-108436052D01*
X148363504Y-108460227D01*
X148306621Y-108478282D01*
X148239527Y-108490839D01*
X148158565Y-108498522D01*
X148060082Y-108501953D01*
X148025286Y-108502251D01*
X147859594Y-108502845D01*
X147836197Y-108473100D01*
X147829257Y-108463319D01*
X147823842Y-108451897D01*
X147819765Y-108436095D01*
X147816837Y-108413175D01*
X147814867Y-108380396D01*
X147814225Y-108356089D01*
X147813668Y-108335021D01*
X147813050Y-108274311D01*
X147812825Y-108195526D01*
X147812800Y-108133920D01*
X147812800Y-107915822D01*
X147970844Y-107915822D01*
X147970844Y-108356089D01*
X148064726Y-108356089D01*
X148119664Y-108354483D01*
X148176060Y-108350255D01*
X148222345Y-108344292D01*
X148225139Y-108343790D01*
X148307348Y-108321736D01*
X148371114Y-108288600D01*
X148418452Y-108242847D01*
X148451382Y-108182939D01*
X148457108Y-108167061D01*
X148462721Y-108142333D01*
X148460291Y-108117902D01*
X148448467Y-108085400D01*
X148441340Y-108069434D01*
X148418000Y-108027006D01*
X148389880Y-107997240D01*
X148358940Y-107976511D01*
X148296966Y-107949537D01*
X148217651Y-107929998D01*
X148125253Y-107918746D01*
X148058333Y-107916270D01*
X147970844Y-107915822D01*
X147812800Y-107915822D01*
X147812800Y-107824485D01*
X147840509Y-107796776D01*
X147852806Y-107785544D01*
X147866103Y-107777853D01*
X147884672Y-107773040D01*
X147912786Y-107770446D01*
X147954717Y-107769410D01*
X148014737Y-107769270D01*
X148018309Y-107769275D01*
G36*
X148018309Y-107769275D02*
G01*
X148147288Y-107773636D01*
X148256991Y-107786861D01*
X148349226Y-107809741D01*
X148425802Y-107843070D01*
X148488527Y-107887638D01*
X148539212Y-107944236D01*
X148579663Y-108013658D01*
X148580459Y-108015351D01*
X148604601Y-108077483D01*
X148613203Y-108132509D01*
X148606231Y-108187887D01*
X148583654Y-108251073D01*
X148579372Y-108260689D01*
X148550172Y-108316966D01*
X148517356Y-108360451D01*
X148475002Y-108397417D01*
X148417190Y-108434135D01*
X148413831Y-108436052D01*
X148363504Y-108460227D01*
X148306621Y-108478282D01*
X148239527Y-108490839D01*
X148158565Y-108498522D01*
X148060082Y-108501953D01*
X148025286Y-108502251D01*
X147859594Y-108502845D01*
X147836197Y-108473100D01*
X147829257Y-108463319D01*
X147823842Y-108451897D01*
X147819765Y-108436095D01*
X147816837Y-108413175D01*
X147814867Y-108380396D01*
X147814225Y-108356089D01*
X147813668Y-108335021D01*
X147813050Y-108274311D01*
X147812825Y-108195526D01*
X147812800Y-108133920D01*
X147812800Y-107915822D01*
X147970844Y-107915822D01*
X147970844Y-108356089D01*
X148064726Y-108356089D01*
X148119664Y-108354483D01*
X148176060Y-108350255D01*
X148222345Y-108344292D01*
X148225139Y-108343790D01*
X148307348Y-108321736D01*
X148371114Y-108288600D01*
X148418452Y-108242847D01*
X148451382Y-108182939D01*
X148457108Y-108167061D01*
X148462721Y-108142333D01*
X148460291Y-108117902D01*
X148448467Y-108085400D01*
X148441340Y-108069434D01*
X148418000Y-108027006D01*
X148389880Y-107997240D01*
X148358940Y-107976511D01*
X148296966Y-107949537D01*
X148217651Y-107929998D01*
X148125253Y-107918746D01*
X148058333Y-107916270D01*
X147970844Y-107915822D01*
X147812800Y-107915822D01*
X147812800Y-107824485D01*
X147840509Y-107796776D01*
X147852806Y-107785544D01*
X147866103Y-107777853D01*
X147884672Y-107773040D01*
X147912786Y-107770446D01*
X147954717Y-107769410D01*
X148014737Y-107769270D01*
X148018309Y-107769275D01*
G37*
X140878629Y-107769066D02*
X140918111Y-107769467D01*
X141033800Y-107772259D01*
X141130689Y-107780550D01*
X141212081Y-107795232D01*
X141281277Y-107817193D01*
X141341580Y-107847322D01*
X141396292Y-107886510D01*
X141415833Y-107903532D01*
X141448250Y-107943363D01*
X141477480Y-107997413D01*
X141500009Y-108057323D01*
X141512321Y-108114739D01*
X141513600Y-108135956D01*
X141505583Y-108194769D01*
X141484101Y-108259013D01*
X141453001Y-108319821D01*
X141416134Y-108368330D01*
X141410146Y-108374182D01*
X141359421Y-108415321D01*
X141303875Y-108447435D01*
X141240304Y-108471365D01*
X141165506Y-108487953D01*
X141076278Y-108498041D01*
X140969418Y-108502469D01*
X140920472Y-108502845D01*
X140858238Y-108502545D01*
X140814472Y-108501292D01*
X140785069Y-108498554D01*
X140765921Y-108493801D01*
X140752923Y-108486501D01*
X140745955Y-108480267D01*
X140739374Y-108472694D01*
X140734212Y-108462924D01*
X140730297Y-108448340D01*
X140727457Y-108426326D01*
X140725520Y-108394264D01*
X140724492Y-108356089D01*
X140870133Y-108356089D01*
X140963266Y-108356004D01*
X141019307Y-108354396D01*
X141078001Y-108350256D01*
X141126972Y-108344464D01*
X141128462Y-108344226D01*
X141207608Y-108325090D01*
X141268998Y-108295287D01*
X141315695Y-108252878D01*
X141345365Y-108206961D01*
X141363647Y-108156026D01*
X141362229Y-108108200D01*
X141341012Y-108056933D01*
X141299511Y-108003899D01*
X141242002Y-107964600D01*
X141167250Y-107938331D01*
X141117292Y-107929035D01*
X141060584Y-107922507D01*
X141000481Y-107917782D01*
X140949361Y-107915817D01*
X140946333Y-107915808D01*
X140870133Y-107915822D01*
X140870133Y-108356089D01*
X140724492Y-108356089D01*
X140724316Y-108349536D01*
X140723672Y-108289526D01*
X140723417Y-108211617D01*
X140723378Y-108135956D01*
X140723130Y-108035041D01*
X140723183Y-107954427D01*
X140724143Y-107915822D01*
X140724740Y-107891851D01*
X140729002Y-107845055D01*
X140737170Y-107811778D01*
X140750444Y-107789759D01*
X140770026Y-107776739D01*
X140797117Y-107770457D01*
X140832918Y-107768653D01*
X140878629Y-107769066D01*
G36*
X140878629Y-107769066D02*
G01*
X140918111Y-107769467D01*
X141033800Y-107772259D01*
X141130689Y-107780550D01*
X141212081Y-107795232D01*
X141281277Y-107817193D01*
X141341580Y-107847322D01*
X141396292Y-107886510D01*
X141415833Y-107903532D01*
X141448250Y-107943363D01*
X141477480Y-107997413D01*
X141500009Y-108057323D01*
X141512321Y-108114739D01*
X141513600Y-108135956D01*
X141505583Y-108194769D01*
X141484101Y-108259013D01*
X141453001Y-108319821D01*
X141416134Y-108368330D01*
X141410146Y-108374182D01*
X141359421Y-108415321D01*
X141303875Y-108447435D01*
X141240304Y-108471365D01*
X141165506Y-108487953D01*
X141076278Y-108498041D01*
X140969418Y-108502469D01*
X140920472Y-108502845D01*
X140858238Y-108502545D01*
X140814472Y-108501292D01*
X140785069Y-108498554D01*
X140765921Y-108493801D01*
X140752923Y-108486501D01*
X140745955Y-108480267D01*
X140739374Y-108472694D01*
X140734212Y-108462924D01*
X140730297Y-108448340D01*
X140727457Y-108426326D01*
X140725520Y-108394264D01*
X140724492Y-108356089D01*
X140870133Y-108356089D01*
X140963266Y-108356004D01*
X141019307Y-108354396D01*
X141078001Y-108350256D01*
X141126972Y-108344464D01*
X141128462Y-108344226D01*
X141207608Y-108325090D01*
X141268998Y-108295287D01*
X141315695Y-108252878D01*
X141345365Y-108206961D01*
X141363647Y-108156026D01*
X141362229Y-108108200D01*
X141341012Y-108056933D01*
X141299511Y-108003899D01*
X141242002Y-107964600D01*
X141167250Y-107938331D01*
X141117292Y-107929035D01*
X141060584Y-107922507D01*
X141000481Y-107917782D01*
X140949361Y-107915817D01*
X140946333Y-107915808D01*
X140870133Y-107915822D01*
X140870133Y-108356089D01*
X140724492Y-108356089D01*
X140724316Y-108349536D01*
X140723672Y-108289526D01*
X140723417Y-108211617D01*
X140723378Y-108135956D01*
X140723130Y-108035041D01*
X140723183Y-107954427D01*
X140724143Y-107915822D01*
X140724740Y-107891851D01*
X140729002Y-107845055D01*
X140737170Y-107811778D01*
X140750444Y-107789759D01*
X140770026Y-107776739D01*
X140797117Y-107770457D01*
X140832918Y-107768653D01*
X140878629Y-107769066D01*
G37*
X145699886Y-107773448D02*
X145723452Y-107787273D01*
X145754265Y-107809881D01*
X145793922Y-107842338D01*
X145844020Y-107885708D01*
X145906157Y-107941058D01*
X145981928Y-108009451D01*
X146068666Y-108088084D01*
X146249289Y-108251878D01*
X146254933Y-108032029D01*
X146256971Y-107956351D01*
X146258937Y-107899994D01*
X146261266Y-107859706D01*
X146264394Y-107832235D01*
X146268755Y-107814329D01*
X146274784Y-107802737D01*
X146282916Y-107794208D01*
X146287228Y-107790623D01*
X146321759Y-107771670D01*
X146354617Y-107774441D01*
X146380682Y-107790633D01*
X146407333Y-107812199D01*
X146410648Y-108127151D01*
X146411565Y-108219779D01*
X146412032Y-108292544D01*
X146411887Y-108348161D01*
X146410968Y-108389342D01*
X146409113Y-108418803D01*
X146406161Y-108439255D01*
X146401950Y-108453413D01*
X146396318Y-108463991D01*
X146390073Y-108472474D01*
X146376561Y-108488207D01*
X146363117Y-108498636D01*
X146347876Y-108502639D01*
X146328974Y-108499094D01*
X146304545Y-108486879D01*
X146272727Y-108464871D01*
X146231652Y-108431949D01*
X146179458Y-108386991D01*
X146114278Y-108328875D01*
X146040444Y-108262099D01*
X145775155Y-108021458D01*
X145769511Y-108240589D01*
X145767469Y-108316128D01*
X145765498Y-108372354D01*
X145763161Y-108412524D01*
X145760019Y-108439896D01*
X145755636Y-108457728D01*
X145749576Y-108469279D01*
X145741400Y-108477807D01*
X145737216Y-108481282D01*
X145700235Y-108500372D01*
X145665292Y-108497493D01*
X145634864Y-108473100D01*
X145627903Y-108463286D01*
X145622477Y-108451826D01*
X145618397Y-108435968D01*
X145615471Y-108412963D01*
X145613508Y-108380062D01*
X145612317Y-108334516D01*
X145611708Y-108273573D01*
X145611489Y-108194486D01*
X145611466Y-108135956D01*
X145611540Y-108044407D01*
X145611887Y-107972687D01*
X145612699Y-107918045D01*
X145614167Y-107877732D01*
X145616481Y-107848998D01*
X145619833Y-107829093D01*
X145624412Y-107815268D01*
X145630411Y-107804772D01*
X145634864Y-107798811D01*
X145646150Y-107784691D01*
X145656699Y-107774029D01*
X145668107Y-107767892D01*
X145681970Y-107767343D01*
X145699886Y-107773448D01*
G36*
X145699886Y-107773448D02*
G01*
X145723452Y-107787273D01*
X145754265Y-107809881D01*
X145793922Y-107842338D01*
X145844020Y-107885708D01*
X145906157Y-107941058D01*
X145981928Y-108009451D01*
X146068666Y-108088084D01*
X146249289Y-108251878D01*
X146254933Y-108032029D01*
X146256971Y-107956351D01*
X146258937Y-107899994D01*
X146261266Y-107859706D01*
X146264394Y-107832235D01*
X146268755Y-107814329D01*
X146274784Y-107802737D01*
X146282916Y-107794208D01*
X146287228Y-107790623D01*
X146321759Y-107771670D01*
X146354617Y-107774441D01*
X146380682Y-107790633D01*
X146407333Y-107812199D01*
X146410648Y-108127151D01*
X146411565Y-108219779D01*
X146412032Y-108292544D01*
X146411887Y-108348161D01*
X146410968Y-108389342D01*
X146409113Y-108418803D01*
X146406161Y-108439255D01*
X146401950Y-108453413D01*
X146396318Y-108463991D01*
X146390073Y-108472474D01*
X146376561Y-108488207D01*
X146363117Y-108498636D01*
X146347876Y-108502639D01*
X146328974Y-108499094D01*
X146304545Y-108486879D01*
X146272727Y-108464871D01*
X146231652Y-108431949D01*
X146179458Y-108386991D01*
X146114278Y-108328875D01*
X146040444Y-108262099D01*
X145775155Y-108021458D01*
X145769511Y-108240589D01*
X145767469Y-108316128D01*
X145765498Y-108372354D01*
X145763161Y-108412524D01*
X145760019Y-108439896D01*
X145755636Y-108457728D01*
X145749576Y-108469279D01*
X145741400Y-108477807D01*
X145737216Y-108481282D01*
X145700235Y-108500372D01*
X145665292Y-108497493D01*
X145634864Y-108473100D01*
X145627903Y-108463286D01*
X145622477Y-108451826D01*
X145618397Y-108435968D01*
X145615471Y-108412963D01*
X145613508Y-108380062D01*
X145612317Y-108334516D01*
X145611708Y-108273573D01*
X145611489Y-108194486D01*
X145611466Y-108135956D01*
X145611540Y-108044407D01*
X145611887Y-107972687D01*
X145612699Y-107918045D01*
X145614167Y-107877732D01*
X145616481Y-107848998D01*
X145619833Y-107829093D01*
X145624412Y-107815268D01*
X145630411Y-107804772D01*
X145634864Y-107798811D01*
X145646150Y-107784691D01*
X145656699Y-107774029D01*
X145668107Y-107767892D01*
X145681970Y-107767343D01*
X145699886Y-107773448D01*
G37*
X145049919Y-107774599D02*
X145118435Y-107786095D01*
X145171057Y-107803967D01*
X145205292Y-107827499D01*
X145214621Y-107840924D01*
X145224107Y-107872148D01*
X145217723Y-107900395D01*
X145197570Y-107927182D01*
X145166255Y-107939713D01*
X145120817Y-107938696D01*
X145085674Y-107931906D01*
X145007581Y-107918971D01*
X144927774Y-107917742D01*
X144838445Y-107928241D01*
X144813771Y-107932690D01*
X144730709Y-107956108D01*
X144665727Y-107990945D01*
X144619539Y-108036604D01*
X144592855Y-108092494D01*
X144587337Y-108121388D01*
X144590949Y-108180012D01*
X144614271Y-108231879D01*
X144655176Y-108275978D01*
X144711541Y-108311299D01*
X144781240Y-108336829D01*
X144862148Y-108351559D01*
X144952140Y-108354478D01*
X145049090Y-108344575D01*
X145054564Y-108343641D01*
X145093125Y-108336459D01*
X145114506Y-108329521D01*
X145123773Y-108319227D01*
X145125994Y-108301976D01*
X145126044Y-108292841D01*
X145126044Y-108254489D01*
X145057569Y-108254489D01*
X144997100Y-108250347D01*
X144955835Y-108237147D01*
X144931825Y-108213730D01*
X144923123Y-108178936D01*
X144923017Y-108174394D01*
X144928108Y-108144654D01*
X144945567Y-108123419D01*
X144978061Y-108109366D01*
X145028257Y-108101173D01*
X145076877Y-108098161D01*
X145147544Y-108096433D01*
X145198802Y-108099070D01*
X145233761Y-108108800D01*
X145255530Y-108128353D01*
X145267220Y-108160456D01*
X145271940Y-108207838D01*
X145272800Y-108270071D01*
X145271391Y-108339535D01*
X145267152Y-108386786D01*
X145260064Y-108412012D01*
X145258689Y-108413988D01*
X145219772Y-108445508D01*
X145162714Y-108470470D01*
X145091131Y-108488340D01*
X145008642Y-108498586D01*
X144918861Y-108500673D01*
X144825408Y-108494068D01*
X144770444Y-108485956D01*
X144684234Y-108461554D01*
X144604108Y-108421662D01*
X144537023Y-108369887D01*
X144526827Y-108359539D01*
X144493698Y-108316035D01*
X144463806Y-108262118D01*
X144440643Y-108205592D01*
X144427702Y-108154259D01*
X144426142Y-108134544D01*
X144432782Y-108093419D01*
X144450432Y-108042252D01*
X144475703Y-107988394D01*
X144505211Y-107939195D01*
X144531281Y-107906334D01*
X144592235Y-107857452D01*
X144671031Y-107818545D01*
X144764843Y-107790494D01*
X144870850Y-107774179D01*
X144968000Y-107770192D01*
X145049919Y-107774599D01*
G36*
X145049919Y-107774599D02*
G01*
X145118435Y-107786095D01*
X145171057Y-107803967D01*
X145205292Y-107827499D01*
X145214621Y-107840924D01*
X145224107Y-107872148D01*
X145217723Y-107900395D01*
X145197570Y-107927182D01*
X145166255Y-107939713D01*
X145120817Y-107938696D01*
X145085674Y-107931906D01*
X145007581Y-107918971D01*
X144927774Y-107917742D01*
X144838445Y-107928241D01*
X144813771Y-107932690D01*
X144730709Y-107956108D01*
X144665727Y-107990945D01*
X144619539Y-108036604D01*
X144592855Y-108092494D01*
X144587337Y-108121388D01*
X144590949Y-108180012D01*
X144614271Y-108231879D01*
X144655176Y-108275978D01*
X144711541Y-108311299D01*
X144781240Y-108336829D01*
X144862148Y-108351559D01*
X144952140Y-108354478D01*
X145049090Y-108344575D01*
X145054564Y-108343641D01*
X145093125Y-108336459D01*
X145114506Y-108329521D01*
X145123773Y-108319227D01*
X145125994Y-108301976D01*
X145126044Y-108292841D01*
X145126044Y-108254489D01*
X145057569Y-108254489D01*
X144997100Y-108250347D01*
X144955835Y-108237147D01*
X144931825Y-108213730D01*
X144923123Y-108178936D01*
X144923017Y-108174394D01*
X144928108Y-108144654D01*
X144945567Y-108123419D01*
X144978061Y-108109366D01*
X145028257Y-108101173D01*
X145076877Y-108098161D01*
X145147544Y-108096433D01*
X145198802Y-108099070D01*
X145233761Y-108108800D01*
X145255530Y-108128353D01*
X145267220Y-108160456D01*
X145271940Y-108207838D01*
X145272800Y-108270071D01*
X145271391Y-108339535D01*
X145267152Y-108386786D01*
X145260064Y-108412012D01*
X145258689Y-108413988D01*
X145219772Y-108445508D01*
X145162714Y-108470470D01*
X145091131Y-108488340D01*
X145008642Y-108498586D01*
X144918861Y-108500673D01*
X144825408Y-108494068D01*
X144770444Y-108485956D01*
X144684234Y-108461554D01*
X144604108Y-108421662D01*
X144537023Y-108369887D01*
X144526827Y-108359539D01*
X144493698Y-108316035D01*
X144463806Y-108262118D01*
X144440643Y-108205592D01*
X144427702Y-108154259D01*
X144426142Y-108134544D01*
X144432782Y-108093419D01*
X144450432Y-108042252D01*
X144475703Y-107988394D01*
X144505211Y-107939195D01*
X144531281Y-107906334D01*
X144592235Y-107857452D01*
X144671031Y-107818545D01*
X144764843Y-107790494D01*
X144870850Y-107774179D01*
X144968000Y-107770192D01*
X145049919Y-107774599D01*
G37*
X147230343Y-107769260D02*
X147306701Y-107770174D01*
X147365217Y-107772311D01*
X147408255Y-107776175D01*
X147438183Y-107782267D01*
X147457368Y-107791090D01*
X147468176Y-107803146D01*
X147472973Y-107818939D01*
X147474127Y-107838970D01*
X147474133Y-107841335D01*
X147473131Y-107863992D01*
X147468396Y-107881503D01*
X147457333Y-107894574D01*
X147437348Y-107903913D01*
X147405846Y-107910227D01*
X147360232Y-107914222D01*
X147297913Y-107916606D01*
X147216293Y-107918086D01*
X147191277Y-107918414D01*
X146949200Y-107921467D01*
X146945814Y-107986378D01*
X146942429Y-108051289D01*
X147110576Y-108051289D01*
X147176266Y-108051531D01*
X147223172Y-108052556D01*
X147255083Y-108054811D01*
X147275791Y-108058742D01*
X147289084Y-108064798D01*
X147298755Y-108073424D01*
X147298817Y-108073493D01*
X147316356Y-108107112D01*
X147315722Y-108143448D01*
X147297314Y-108174423D01*
X147293671Y-108177607D01*
X147280741Y-108185812D01*
X147263024Y-108191521D01*
X147236570Y-108195162D01*
X147197432Y-108197167D01*
X147141662Y-108197964D01*
X147105994Y-108198045D01*
X146943555Y-108198045D01*
X146943555Y-108356089D01*
X147190161Y-108356089D01*
X147271580Y-108356231D01*
X147333410Y-108356814D01*
X147378637Y-108358068D01*
X147410248Y-108360227D01*
X147431231Y-108363523D01*
X147444573Y-108368189D01*
X147453261Y-108374457D01*
X147455450Y-108376733D01*
X147471614Y-108408280D01*
X147472797Y-108444168D01*
X147459536Y-108475285D01*
X147449043Y-108485271D01*
X147438129Y-108490769D01*
X147421217Y-108495022D01*
X147395633Y-108498180D01*
X147358701Y-108500392D01*
X147307746Y-108501806D01*
X147240094Y-108502572D01*
X147153069Y-108502838D01*
X147133394Y-108502845D01*
X147044911Y-108502787D01*
X146976227Y-108502467D01*
X146924564Y-108501667D01*
X146887145Y-108500167D01*
X146861190Y-108497749D01*
X146843922Y-108494194D01*
X146832562Y-108489282D01*
X146824332Y-108482795D01*
X146819817Y-108478138D01*
X146813021Y-108469889D01*
X146807712Y-108459669D01*
X146803706Y-108444800D01*
X146800821Y-108422602D01*
X146798874Y-108390393D01*
X146797681Y-108345496D01*
X146797061Y-108285228D01*
X146796829Y-108206911D01*
X146796800Y-108140994D01*
X146796871Y-108048628D01*
X146797208Y-107976117D01*
X146797998Y-107920737D01*
X146799426Y-107879765D01*
X146801679Y-107850478D01*
X146804943Y-107830153D01*
X146809404Y-107816066D01*
X146815248Y-107805495D01*
X146820197Y-107798811D01*
X146843594Y-107769067D01*
X147133774Y-107769067D01*
X147230343Y-107769260D01*
G36*
X147230343Y-107769260D02*
G01*
X147306701Y-107770174D01*
X147365217Y-107772311D01*
X147408255Y-107776175D01*
X147438183Y-107782267D01*
X147457368Y-107791090D01*
X147468176Y-107803146D01*
X147472973Y-107818939D01*
X147474127Y-107838970D01*
X147474133Y-107841335D01*
X147473131Y-107863992D01*
X147468396Y-107881503D01*
X147457333Y-107894574D01*
X147437348Y-107903913D01*
X147405846Y-107910227D01*
X147360232Y-107914222D01*
X147297913Y-107916606D01*
X147216293Y-107918086D01*
X147191277Y-107918414D01*
X146949200Y-107921467D01*
X146945814Y-107986378D01*
X146942429Y-108051289D01*
X147110576Y-108051289D01*
X147176266Y-108051531D01*
X147223172Y-108052556D01*
X147255083Y-108054811D01*
X147275791Y-108058742D01*
X147289084Y-108064798D01*
X147298755Y-108073424D01*
X147298817Y-108073493D01*
X147316356Y-108107112D01*
X147315722Y-108143448D01*
X147297314Y-108174423D01*
X147293671Y-108177607D01*
X147280741Y-108185812D01*
X147263024Y-108191521D01*
X147236570Y-108195162D01*
X147197432Y-108197167D01*
X147141662Y-108197964D01*
X147105994Y-108198045D01*
X146943555Y-108198045D01*
X146943555Y-108356089D01*
X147190161Y-108356089D01*
X147271580Y-108356231D01*
X147333410Y-108356814D01*
X147378637Y-108358068D01*
X147410248Y-108360227D01*
X147431231Y-108363523D01*
X147444573Y-108368189D01*
X147453261Y-108374457D01*
X147455450Y-108376733D01*
X147471614Y-108408280D01*
X147472797Y-108444168D01*
X147459536Y-108475285D01*
X147449043Y-108485271D01*
X147438129Y-108490769D01*
X147421217Y-108495022D01*
X147395633Y-108498180D01*
X147358701Y-108500392D01*
X147307746Y-108501806D01*
X147240094Y-108502572D01*
X147153069Y-108502838D01*
X147133394Y-108502845D01*
X147044911Y-108502787D01*
X146976227Y-108502467D01*
X146924564Y-108501667D01*
X146887145Y-108500167D01*
X146861190Y-108497749D01*
X146843922Y-108494194D01*
X146832562Y-108489282D01*
X146824332Y-108482795D01*
X146819817Y-108478138D01*
X146813021Y-108469889D01*
X146807712Y-108459669D01*
X146803706Y-108444800D01*
X146800821Y-108422602D01*
X146798874Y-108390393D01*
X146797681Y-108345496D01*
X146797061Y-108285228D01*
X146796829Y-108206911D01*
X146796800Y-108140994D01*
X146796871Y-108048628D01*
X146797208Y-107976117D01*
X146797998Y-107920737D01*
X146799426Y-107879765D01*
X146801679Y-107850478D01*
X146804943Y-107830153D01*
X146809404Y-107816066D01*
X146815248Y-107805495D01*
X146820197Y-107798811D01*
X146843594Y-107769067D01*
X147133774Y-107769067D01*
X147230343Y-107769260D01*
G37*
X142287206Y-107769146D02*
X142356614Y-107769518D01*
X142409003Y-107770385D01*
X142447153Y-107771946D01*
X142473841Y-107774403D01*
X142491847Y-107777957D01*
X142503951Y-107782810D01*
X142512931Y-107789161D01*
X142516182Y-107792084D01*
X142535957Y-107823142D01*
X142539518Y-107858828D01*
X142526509Y-107890510D01*
X142520494Y-107896913D01*
X142510765Y-107903121D01*
X142495099Y-107907910D01*
X142470592Y-107911514D01*
X142434339Y-107914164D01*
X142383435Y-107916095D01*
X142314974Y-107917539D01*
X142252383Y-107918418D01*
X142004666Y-107921467D01*
X142001281Y-107986378D01*
X141997895Y-108051289D01*
X142166042Y-108051289D01*
X142239041Y-108051919D01*
X142292483Y-108054553D01*
X142329372Y-108060309D01*
X142352712Y-108070304D01*
X142365506Y-108085656D01*
X142370758Y-108107482D01*
X142371555Y-108127738D01*
X142369077Y-108152592D01*
X142359723Y-108170906D01*
X142340617Y-108183637D01*
X142308882Y-108191741D01*
X142261641Y-108196176D01*
X142196017Y-108197899D01*
X142160199Y-108198045D01*
X141999022Y-108198045D01*
X141999022Y-108356089D01*
X142247378Y-108356089D01*
X142328787Y-108356202D01*
X142390658Y-108356712D01*
X142436032Y-108357870D01*
X142467946Y-108359930D01*
X142489441Y-108363146D01*
X142503557Y-108367772D01*
X142513332Y-108374059D01*
X142518311Y-108378667D01*
X142535390Y-108405560D01*
X142540889Y-108429467D01*
X142533037Y-108458667D01*
X142518311Y-108480267D01*
X142510454Y-108487066D01*
X142500312Y-108492346D01*
X142485156Y-108496298D01*
X142462259Y-108499113D01*
X142428891Y-108500982D01*
X142382325Y-108502098D01*
X142319833Y-108502651D01*
X142238686Y-108502833D01*
X142196578Y-108502845D01*
X142106402Y-108502765D01*
X142036076Y-108502398D01*
X141982871Y-108501552D01*
X141944060Y-108500036D01*
X141916913Y-108497659D01*
X141898702Y-108494229D01*
X141886700Y-108489554D01*
X141878178Y-108483444D01*
X141874844Y-108480267D01*
X141868245Y-108472670D01*
X141863073Y-108462870D01*
X141859154Y-108448239D01*
X141856316Y-108426152D01*
X141854385Y-108393982D01*
X141853188Y-108349103D01*
X141852552Y-108288889D01*
X141852303Y-108210713D01*
X141852266Y-108137923D01*
X141852300Y-108044707D01*
X141852535Y-107971431D01*
X141853170Y-107915458D01*
X141854406Y-107874151D01*
X141856444Y-107844872D01*
X141859483Y-107824984D01*
X141863723Y-107811850D01*
X141869365Y-107802832D01*
X141876609Y-107795293D01*
X141878394Y-107793612D01*
X141887055Y-107786172D01*
X141897118Y-107780409D01*
X141911375Y-107776112D01*
X141932617Y-107773064D01*
X141963636Y-107771051D01*
X142007223Y-107769860D01*
X142066169Y-107769275D01*
X142143266Y-107769083D01*
X142197999Y-107769067D01*
X142287206Y-107769146D01*
G36*
X142287206Y-107769146D02*
G01*
X142356614Y-107769518D01*
X142409003Y-107770385D01*
X142447153Y-107771946D01*
X142473841Y-107774403D01*
X142491847Y-107777957D01*
X142503951Y-107782810D01*
X142512931Y-107789161D01*
X142516182Y-107792084D01*
X142535957Y-107823142D01*
X142539518Y-107858828D01*
X142526509Y-107890510D01*
X142520494Y-107896913D01*
X142510765Y-107903121D01*
X142495099Y-107907910D01*
X142470592Y-107911514D01*
X142434339Y-107914164D01*
X142383435Y-107916095D01*
X142314974Y-107917539D01*
X142252383Y-107918418D01*
X142004666Y-107921467D01*
X142001281Y-107986378D01*
X141997895Y-108051289D01*
X142166042Y-108051289D01*
X142239041Y-108051919D01*
X142292483Y-108054553D01*
X142329372Y-108060309D01*
X142352712Y-108070304D01*
X142365506Y-108085656D01*
X142370758Y-108107482D01*
X142371555Y-108127738D01*
X142369077Y-108152592D01*
X142359723Y-108170906D01*
X142340617Y-108183637D01*
X142308882Y-108191741D01*
X142261641Y-108196176D01*
X142196017Y-108197899D01*
X142160199Y-108198045D01*
X141999022Y-108198045D01*
X141999022Y-108356089D01*
X142247378Y-108356089D01*
X142328787Y-108356202D01*
X142390658Y-108356712D01*
X142436032Y-108357870D01*
X142467946Y-108359930D01*
X142489441Y-108363146D01*
X142503557Y-108367772D01*
X142513332Y-108374059D01*
X142518311Y-108378667D01*
X142535390Y-108405560D01*
X142540889Y-108429467D01*
X142533037Y-108458667D01*
X142518311Y-108480267D01*
X142510454Y-108487066D01*
X142500312Y-108492346D01*
X142485156Y-108496298D01*
X142462259Y-108499113D01*
X142428891Y-108500982D01*
X142382325Y-108502098D01*
X142319833Y-108502651D01*
X142238686Y-108502833D01*
X142196578Y-108502845D01*
X142106402Y-108502765D01*
X142036076Y-108502398D01*
X141982871Y-108501552D01*
X141944060Y-108500036D01*
X141916913Y-108497659D01*
X141898702Y-108494229D01*
X141886700Y-108489554D01*
X141878178Y-108483444D01*
X141874844Y-108480267D01*
X141868245Y-108472670D01*
X141863073Y-108462870D01*
X141859154Y-108448239D01*
X141856316Y-108426152D01*
X141854385Y-108393982D01*
X141853188Y-108349103D01*
X141852552Y-108288889D01*
X141852303Y-108210713D01*
X141852266Y-108137923D01*
X141852300Y-108044707D01*
X141852535Y-107971431D01*
X141853170Y-107915458D01*
X141854406Y-107874151D01*
X141856444Y-107844872D01*
X141859483Y-107824984D01*
X141863723Y-107811850D01*
X141869365Y-107802832D01*
X141876609Y-107795293D01*
X141878394Y-107793612D01*
X141887055Y-107786172D01*
X141897118Y-107780409D01*
X141911375Y-107776112D01*
X141932617Y-107773064D01*
X141963636Y-107771051D01*
X142007223Y-107769860D01*
X142066169Y-107769275D01*
X142143266Y-107769083D01*
X142197999Y-107769067D01*
X142287206Y-107769146D01*
G37*
X150744665Y-107771034D02*
X150764255Y-107778035D01*
X150765010Y-107778377D01*
X150791613Y-107798678D01*
X150806270Y-107819561D01*
X150809138Y-107829352D01*
X150808996Y-107842361D01*
X150804961Y-107860895D01*
X150796146Y-107887257D01*
X150781669Y-107923752D01*
X150760645Y-107972687D01*
X150732188Y-108036365D01*
X150695415Y-108117093D01*
X150675175Y-108161216D01*
X150638625Y-108239985D01*
X150604315Y-108312423D01*
X150573552Y-108375880D01*
X150547648Y-108427708D01*
X150527910Y-108465259D01*
X150515650Y-108485884D01*
X150513224Y-108488733D01*
X150482183Y-108501302D01*
X150447121Y-108499619D01*
X150419000Y-108484332D01*
X150417854Y-108483089D01*
X150406668Y-108466154D01*
X150387904Y-108433170D01*
X150363875Y-108388380D01*
X150336897Y-108336032D01*
X150327201Y-108316742D01*
X150254014Y-108170150D01*
X150174240Y-108329393D01*
X150145767Y-108384415D01*
X150119350Y-108432132D01*
X150097148Y-108468893D01*
X150081319Y-108491044D01*
X150075954Y-108495741D01*
X150034257Y-108502102D01*
X149999849Y-108488733D01*
X149989728Y-108474446D01*
X149972214Y-108442692D01*
X149948735Y-108396597D01*
X149920720Y-108339285D01*
X149889599Y-108273880D01*
X149856799Y-108203507D01*
X149823750Y-108131291D01*
X149791881Y-108060355D01*
X149762619Y-107993825D01*
X149737395Y-107934826D01*
X149717636Y-107886481D01*
X149704772Y-107851915D01*
X149700231Y-107834253D01*
X149700277Y-107833613D01*
X149711326Y-107811388D01*
X149733410Y-107788753D01*
X149734710Y-107787768D01*
X149761853Y-107772425D01*
X149786958Y-107772574D01*
X149796368Y-107775466D01*
X149807834Y-107781718D01*
X149820010Y-107794014D01*
X149834357Y-107814908D01*
X149852336Y-107846949D01*
X149875407Y-107892688D01*
X149905030Y-107954677D01*
X149931745Y-108011898D01*
X149962480Y-108078226D01*
X149990021Y-108137874D01*
X150012938Y-108187725D01*
X150029798Y-108224664D01*
X150039173Y-108245573D01*
X150040540Y-108248845D01*
X150046689Y-108243497D01*
X150060822Y-108221109D01*
X150081057Y-108184946D01*
X150105515Y-108138277D01*
X150115248Y-108119022D01*
X150148217Y-108054004D01*
X150173643Y-108006654D01*
X150193612Y-107974219D01*
X150210210Y-107953946D01*
X150225524Y-107943082D01*
X150241640Y-107938875D01*
X150252143Y-107938400D01*
X150270670Y-107940042D01*
X150286904Y-107946831D01*
X150303035Y-107961566D01*
X150321251Y-107987044D01*
X150343739Y-108026061D01*
X150372689Y-108081414D01*
X150388662Y-108112903D01*
X150414570Y-108163087D01*
X150437167Y-108204704D01*
X150454458Y-108234242D01*
X150464450Y-108248189D01*
X150465809Y-108248770D01*
X150472261Y-108237793D01*
X150486708Y-108209290D01*
X150507703Y-108166244D01*
X150533797Y-108111638D01*
X150563546Y-108048454D01*
X150578180Y-108017071D01*
X150616250Y-107936078D01*
X150646905Y-107873756D01*
X150671737Y-107828071D01*
X150692337Y-107796989D01*
X150710298Y-107778478D01*
X150727210Y-107770504D01*
X150744665Y-107771034D01*
G36*
X150744665Y-107771034D02*
G01*
X150764255Y-107778035D01*
X150765010Y-107778377D01*
X150791613Y-107798678D01*
X150806270Y-107819561D01*
X150809138Y-107829352D01*
X150808996Y-107842361D01*
X150804961Y-107860895D01*
X150796146Y-107887257D01*
X150781669Y-107923752D01*
X150760645Y-107972687D01*
X150732188Y-108036365D01*
X150695415Y-108117093D01*
X150675175Y-108161216D01*
X150638625Y-108239985D01*
X150604315Y-108312423D01*
X150573552Y-108375880D01*
X150547648Y-108427708D01*
X150527910Y-108465259D01*
X150515650Y-108485884D01*
X150513224Y-108488733D01*
X150482183Y-108501302D01*
X150447121Y-108499619D01*
X150419000Y-108484332D01*
X150417854Y-108483089D01*
X150406668Y-108466154D01*
X150387904Y-108433170D01*
X150363875Y-108388380D01*
X150336897Y-108336032D01*
X150327201Y-108316742D01*
X150254014Y-108170150D01*
X150174240Y-108329393D01*
X150145767Y-108384415D01*
X150119350Y-108432132D01*
X150097148Y-108468893D01*
X150081319Y-108491044D01*
X150075954Y-108495741D01*
X150034257Y-108502102D01*
X149999849Y-108488733D01*
X149989728Y-108474446D01*
X149972214Y-108442692D01*
X149948735Y-108396597D01*
X149920720Y-108339285D01*
X149889599Y-108273880D01*
X149856799Y-108203507D01*
X149823750Y-108131291D01*
X149791881Y-108060355D01*
X149762619Y-107993825D01*
X149737395Y-107934826D01*
X149717636Y-107886481D01*
X149704772Y-107851915D01*
X149700231Y-107834253D01*
X149700277Y-107833613D01*
X149711326Y-107811388D01*
X149733410Y-107788753D01*
X149734710Y-107787768D01*
X149761853Y-107772425D01*
X149786958Y-107772574D01*
X149796368Y-107775466D01*
X149807834Y-107781718D01*
X149820010Y-107794014D01*
X149834357Y-107814908D01*
X149852336Y-107846949D01*
X149875407Y-107892688D01*
X149905030Y-107954677D01*
X149931745Y-108011898D01*
X149962480Y-108078226D01*
X149990021Y-108137874D01*
X150012938Y-108187725D01*
X150029798Y-108224664D01*
X150039173Y-108245573D01*
X150040540Y-108248845D01*
X150046689Y-108243497D01*
X150060822Y-108221109D01*
X150081057Y-108184946D01*
X150105515Y-108138277D01*
X150115248Y-108119022D01*
X150148217Y-108054004D01*
X150173643Y-108006654D01*
X150193612Y-107974219D01*
X150210210Y-107953946D01*
X150225524Y-107943082D01*
X150241640Y-107938875D01*
X150252143Y-107938400D01*
X150270670Y-107940042D01*
X150286904Y-107946831D01*
X150303035Y-107961566D01*
X150321251Y-107987044D01*
X150343739Y-108026061D01*
X150372689Y-108081414D01*
X150388662Y-108112903D01*
X150414570Y-108163087D01*
X150437167Y-108204704D01*
X150454458Y-108234242D01*
X150464450Y-108248189D01*
X150465809Y-108248770D01*
X150472261Y-108237793D01*
X150486708Y-108209290D01*
X150507703Y-108166244D01*
X150533797Y-108111638D01*
X150563546Y-108048454D01*
X150578180Y-108017071D01*
X150616250Y-107936078D01*
X150646905Y-107873756D01*
X150671737Y-107828071D01*
X150692337Y-107796989D01*
X150710298Y-107778478D01*
X150727210Y-107770504D01*
X150744665Y-107771034D01*
G37*
X143308297Y-107770351D02*
X143383112Y-107775581D01*
X143452694Y-107783750D01*
X143512998Y-107794550D01*
X143559980Y-107807673D01*
X143589594Y-107822813D01*
X143594140Y-107827269D01*
X143609946Y-107861850D01*
X143605153Y-107897351D01*
X143580636Y-107927725D01*
X143579466Y-107928596D01*
X143565046Y-107937954D01*
X143549992Y-107942876D01*
X143528995Y-107943473D01*
X143496743Y-107939861D01*
X143447927Y-107932154D01*
X143444000Y-107931505D01*
X143371261Y-107922569D01*
X143292783Y-107918161D01*
X143214073Y-107918119D01*
X143140639Y-107922279D01*
X143077989Y-107930479D01*
X143031630Y-107942557D01*
X143028584Y-107943771D01*
X142994952Y-107962615D01*
X142983136Y-107981685D01*
X142992386Y-108000439D01*
X143021953Y-108018337D01*
X143071089Y-108034837D01*
X143139043Y-108049396D01*
X143184355Y-108056406D01*
X143278544Y-108069889D01*
X143353456Y-108082214D01*
X143412283Y-108094449D01*
X143458215Y-108107661D01*
X143494445Y-108122917D01*
X143524162Y-108141285D01*
X143550558Y-108163831D01*
X143571770Y-108185971D01*
X143596935Y-108216819D01*
X143609319Y-108243345D01*
X143613192Y-108276026D01*
X143613333Y-108287995D01*
X143610424Y-108327712D01*
X143598798Y-108357259D01*
X143578677Y-108383486D01*
X143537784Y-108423576D01*
X143492183Y-108454149D01*
X143438487Y-108476203D01*
X143373308Y-108490735D01*
X143293256Y-108498741D01*
X143194943Y-108501218D01*
X143178711Y-108501177D01*
X143113151Y-108499818D01*
X143048134Y-108496730D01*
X142990748Y-108492356D01*
X142948078Y-108487140D01*
X142944628Y-108486541D01*
X142902204Y-108476491D01*
X142866220Y-108463796D01*
X142845850Y-108452190D01*
X142826893Y-108421572D01*
X142825573Y-108385918D01*
X142841915Y-108354144D01*
X142845571Y-108350551D01*
X142860685Y-108339876D01*
X142879585Y-108335276D01*
X142908838Y-108336059D01*
X142944349Y-108340127D01*
X142984030Y-108343762D01*
X143039655Y-108346828D01*
X143104594Y-108349053D01*
X143172215Y-108350164D01*
X143190000Y-108350237D01*
X143257872Y-108349964D01*
X143307546Y-108348646D01*
X143343390Y-108345827D01*
X143369776Y-108341050D01*
X143391074Y-108333857D01*
X143403874Y-108327867D01*
X143432000Y-108311233D01*
X143449932Y-108296168D01*
X143452553Y-108291897D01*
X143447024Y-108274263D01*
X143420740Y-108257192D01*
X143375522Y-108241458D01*
X143313192Y-108227838D01*
X143294829Y-108224804D01*
X143198910Y-108209738D01*
X143122359Y-108197146D01*
X143062220Y-108186111D01*
X143015540Y-108175720D01*
X142979363Y-108165056D01*
X142950735Y-108153205D01*
X142926702Y-108139251D01*
X142904308Y-108122281D01*
X142880598Y-108101378D01*
X142872620Y-108094049D01*
X142844647Y-108066699D01*
X142829840Y-108045029D01*
X142824048Y-108020232D01*
X142823111Y-107988983D01*
X142833425Y-107927705D01*
X142864248Y-107875640D01*
X142915405Y-107832958D01*
X142986717Y-107799825D01*
X143037600Y-107784964D01*
X143092900Y-107775366D01*
X143159147Y-107769936D01*
X143232294Y-107768367D01*
X143308297Y-107770351D01*
G36*
X143308297Y-107770351D02*
G01*
X143383112Y-107775581D01*
X143452694Y-107783750D01*
X143512998Y-107794550D01*
X143559980Y-107807673D01*
X143589594Y-107822813D01*
X143594140Y-107827269D01*
X143609946Y-107861850D01*
X143605153Y-107897351D01*
X143580636Y-107927725D01*
X143579466Y-107928596D01*
X143565046Y-107937954D01*
X143549992Y-107942876D01*
X143528995Y-107943473D01*
X143496743Y-107939861D01*
X143447927Y-107932154D01*
X143444000Y-107931505D01*
X143371261Y-107922569D01*
X143292783Y-107918161D01*
X143214073Y-107918119D01*
X143140639Y-107922279D01*
X143077989Y-107930479D01*
X143031630Y-107942557D01*
X143028584Y-107943771D01*
X142994952Y-107962615D01*
X142983136Y-107981685D01*
X142992386Y-108000439D01*
X143021953Y-108018337D01*
X143071089Y-108034837D01*
X143139043Y-108049396D01*
X143184355Y-108056406D01*
X143278544Y-108069889D01*
X143353456Y-108082214D01*
X143412283Y-108094449D01*
X143458215Y-108107661D01*
X143494445Y-108122917D01*
X143524162Y-108141285D01*
X143550558Y-108163831D01*
X143571770Y-108185971D01*
X143596935Y-108216819D01*
X143609319Y-108243345D01*
X143613192Y-108276026D01*
X143613333Y-108287995D01*
X143610424Y-108327712D01*
X143598798Y-108357259D01*
X143578677Y-108383486D01*
X143537784Y-108423576D01*
X143492183Y-108454149D01*
X143438487Y-108476203D01*
X143373308Y-108490735D01*
X143293256Y-108498741D01*
X143194943Y-108501218D01*
X143178711Y-108501177D01*
X143113151Y-108499818D01*
X143048134Y-108496730D01*
X142990748Y-108492356D01*
X142948078Y-108487140D01*
X142944628Y-108486541D01*
X142902204Y-108476491D01*
X142866220Y-108463796D01*
X142845850Y-108452190D01*
X142826893Y-108421572D01*
X142825573Y-108385918D01*
X142841915Y-108354144D01*
X142845571Y-108350551D01*
X142860685Y-108339876D01*
X142879585Y-108335276D01*
X142908838Y-108336059D01*
X142944349Y-108340127D01*
X142984030Y-108343762D01*
X143039655Y-108346828D01*
X143104594Y-108349053D01*
X143172215Y-108350164D01*
X143190000Y-108350237D01*
X143257872Y-108349964D01*
X143307546Y-108348646D01*
X143343390Y-108345827D01*
X143369776Y-108341050D01*
X143391074Y-108333857D01*
X143403874Y-108327867D01*
X143432000Y-108311233D01*
X143449932Y-108296168D01*
X143452553Y-108291897D01*
X143447024Y-108274263D01*
X143420740Y-108257192D01*
X143375522Y-108241458D01*
X143313192Y-108227838D01*
X143294829Y-108224804D01*
X143198910Y-108209738D01*
X143122359Y-108197146D01*
X143062220Y-108186111D01*
X143015540Y-108175720D01*
X142979363Y-108165056D01*
X142950735Y-108153205D01*
X142926702Y-108139251D01*
X142904308Y-108122281D01*
X142880598Y-108101378D01*
X142872620Y-108094049D01*
X142844647Y-108066699D01*
X142829840Y-108045029D01*
X142824048Y-108020232D01*
X142823111Y-107988983D01*
X142833425Y-107927705D01*
X142864248Y-107875640D01*
X142915405Y-107832958D01*
X142986717Y-107799825D01*
X143037600Y-107784964D01*
X143092900Y-107775366D01*
X143159147Y-107769936D01*
X143232294Y-107768367D01*
X143308297Y-107770351D01*
G37*
X147328429Y-103449071D02*
X147488570Y-103470245D01*
X147652510Y-103510385D01*
X147822313Y-103569889D01*
X148000043Y-103649154D01*
X148011310Y-103654699D01*
X148069005Y-103682725D01*
X148120552Y-103706802D01*
X148162191Y-103725249D01*
X148190162Y-103736386D01*
X148199733Y-103738933D01*
X148218950Y-103743941D01*
X148223561Y-103748147D01*
X148218458Y-103758580D01*
X148202418Y-103784868D01*
X148177288Y-103824257D01*
X148144914Y-103873991D01*
X148107143Y-103931315D01*
X148065822Y-103993476D01*
X148022798Y-104057718D01*
X147979917Y-104121285D01*
X147939026Y-104181425D01*
X147901971Y-104235380D01*
X147870600Y-104280397D01*
X147846759Y-104313721D01*
X147832294Y-104332597D01*
X147830309Y-104334787D01*
X147820191Y-104330138D01*
X147797850Y-104312962D01*
X147767280Y-104286440D01*
X147751536Y-104271964D01*
X147655047Y-104196682D01*
X147548336Y-104141241D01*
X147432832Y-104106141D01*
X147309962Y-104091880D01*
X147240561Y-104093051D01*
X147119423Y-104110212D01*
X147010205Y-104146094D01*
X146912582Y-104200959D01*
X146826228Y-104275070D01*
X146750815Y-104368688D01*
X146686018Y-104482076D01*
X146648601Y-104568667D01*
X146604748Y-104704366D01*
X146572428Y-104851850D01*
X146551557Y-105007314D01*
X146542051Y-105166956D01*
X146543827Y-105326973D01*
X146556803Y-105483561D01*
X146580894Y-105632918D01*
X146616018Y-105771240D01*
X146662092Y-105894724D01*
X146678373Y-105928978D01*
X146746620Y-106043064D01*
X146827079Y-106139557D01*
X146918570Y-106217670D01*
X147019911Y-106276617D01*
X147129920Y-106315612D01*
X147247415Y-106333868D01*
X147288883Y-106335211D01*
X147410441Y-106324290D01*
X147530878Y-106291474D01*
X147648666Y-106237439D01*
X147762277Y-106162865D01*
X147853685Y-106084539D01*
X147900215Y-106040008D01*
X148081483Y-106337271D01*
X148126580Y-106411433D01*
X148167819Y-106479646D01*
X148203735Y-106539459D01*
X148232866Y-106588420D01*
X148253750Y-106624079D01*
X148264924Y-106643984D01*
X148266375Y-106647079D01*
X148258146Y-106656718D01*
X148232567Y-106673999D01*
X148192873Y-106697283D01*
X148142297Y-106724934D01*
X148084074Y-106755315D01*
X148021437Y-106786790D01*
X147957621Y-106817722D01*
X147895860Y-106846473D01*
X147839388Y-106871408D01*
X147791438Y-106890889D01*
X147767986Y-106899318D01*
X147634221Y-106937133D01*
X147496327Y-106962136D01*
X147348622Y-106975140D01*
X147221833Y-106977468D01*
X147153878Y-106976373D01*
X147088277Y-106974275D01*
X147030847Y-106971434D01*
X146987403Y-106968106D01*
X146973298Y-106966422D01*
X146834284Y-106937587D01*
X146692757Y-106892468D01*
X146555275Y-106833750D01*
X146428394Y-106764120D01*
X146350889Y-106711441D01*
X146223481Y-106603239D01*
X146105178Y-106476671D01*
X145998172Y-106334866D01*
X145904652Y-106180951D01*
X145826810Y-106018053D01*
X145782956Y-105900756D01*
X145732708Y-105717128D01*
X145699209Y-105522581D01*
X145682449Y-105321325D01*
X145682416Y-105117568D01*
X145699101Y-104915521D01*
X145732493Y-104719392D01*
X145782580Y-104533391D01*
X145786397Y-104521803D01*
X145849281Y-104359750D01*
X145926028Y-104211832D01*
X146019242Y-104073865D01*
X146131527Y-103941661D01*
X146175392Y-103896399D01*
X146311534Y-103772457D01*
X146451491Y-103669915D01*
X146597411Y-103587656D01*
X146751442Y-103524564D01*
X146915732Y-103479523D01*
X147011289Y-103462033D01*
X147170023Y-103446466D01*
X147328429Y-103449071D01*
G36*
X147328429Y-103449071D02*
G01*
X147488570Y-103470245D01*
X147652510Y-103510385D01*
X147822313Y-103569889D01*
X148000043Y-103649154D01*
X148011310Y-103654699D01*
X148069005Y-103682725D01*
X148120552Y-103706802D01*
X148162191Y-103725249D01*
X148190162Y-103736386D01*
X148199733Y-103738933D01*
X148218950Y-103743941D01*
X148223561Y-103748147D01*
X148218458Y-103758580D01*
X148202418Y-103784868D01*
X148177288Y-103824257D01*
X148144914Y-103873991D01*
X148107143Y-103931315D01*
X148065822Y-103993476D01*
X148022798Y-104057718D01*
X147979917Y-104121285D01*
X147939026Y-104181425D01*
X147901971Y-104235380D01*
X147870600Y-104280397D01*
X147846759Y-104313721D01*
X147832294Y-104332597D01*
X147830309Y-104334787D01*
X147820191Y-104330138D01*
X147797850Y-104312962D01*
X147767280Y-104286440D01*
X147751536Y-104271964D01*
X147655047Y-104196682D01*
X147548336Y-104141241D01*
X147432832Y-104106141D01*
X147309962Y-104091880D01*
X147240561Y-104093051D01*
X147119423Y-104110212D01*
X147010205Y-104146094D01*
X146912582Y-104200959D01*
X146826228Y-104275070D01*
X146750815Y-104368688D01*
X146686018Y-104482076D01*
X146648601Y-104568667D01*
X146604748Y-104704366D01*
X146572428Y-104851850D01*
X146551557Y-105007314D01*
X146542051Y-105166956D01*
X146543827Y-105326973D01*
X146556803Y-105483561D01*
X146580894Y-105632918D01*
X146616018Y-105771240D01*
X146662092Y-105894724D01*
X146678373Y-105928978D01*
X146746620Y-106043064D01*
X146827079Y-106139557D01*
X146918570Y-106217670D01*
X147019911Y-106276617D01*
X147129920Y-106315612D01*
X147247415Y-106333868D01*
X147288883Y-106335211D01*
X147410441Y-106324290D01*
X147530878Y-106291474D01*
X147648666Y-106237439D01*
X147762277Y-106162865D01*
X147853685Y-106084539D01*
X147900215Y-106040008D01*
X148081483Y-106337271D01*
X148126580Y-106411433D01*
X148167819Y-106479646D01*
X148203735Y-106539459D01*
X148232866Y-106588420D01*
X148253750Y-106624079D01*
X148264924Y-106643984D01*
X148266375Y-106647079D01*
X148258146Y-106656718D01*
X148232567Y-106673999D01*
X148192873Y-106697283D01*
X148142297Y-106724934D01*
X148084074Y-106755315D01*
X148021437Y-106786790D01*
X147957621Y-106817722D01*
X147895860Y-106846473D01*
X147839388Y-106871408D01*
X147791438Y-106890889D01*
X147767986Y-106899318D01*
X147634221Y-106937133D01*
X147496327Y-106962136D01*
X147348622Y-106975140D01*
X147221833Y-106977468D01*
X147153878Y-106976373D01*
X147088277Y-106974275D01*
X147030847Y-106971434D01*
X146987403Y-106968106D01*
X146973298Y-106966422D01*
X146834284Y-106937587D01*
X146692757Y-106892468D01*
X146555275Y-106833750D01*
X146428394Y-106764120D01*
X146350889Y-106711441D01*
X146223481Y-106603239D01*
X146105178Y-106476671D01*
X145998172Y-106334866D01*
X145904652Y-106180951D01*
X145826810Y-106018053D01*
X145782956Y-105900756D01*
X145732708Y-105717128D01*
X145699209Y-105522581D01*
X145682449Y-105321325D01*
X145682416Y-105117568D01*
X145699101Y-104915521D01*
X145732493Y-104719392D01*
X145782580Y-104533391D01*
X145786397Y-104521803D01*
X145849281Y-104359750D01*
X145926028Y-104211832D01*
X146019242Y-104073865D01*
X146131527Y-103941661D01*
X146175392Y-103896399D01*
X146311534Y-103772457D01*
X146451491Y-103669915D01*
X146597411Y-103587656D01*
X146751442Y-103524564D01*
X146915732Y-103479523D01*
X147011289Y-103462033D01*
X147170023Y-103446466D01*
X147328429Y-103449071D01*
G37*
X153186507Y-104972245D02*
X153186526Y-105206662D01*
X153186552Y-105419603D01*
X153186625Y-105612168D01*
X153186782Y-105785459D01*
X153187064Y-105940576D01*
X153187509Y-106078620D01*
X153188156Y-106200692D01*
X153189045Y-106307894D01*
X153190213Y-106401326D01*
X153191701Y-106482090D01*
X153193546Y-106551286D01*
X153195789Y-106610015D01*
X153198469Y-106659379D01*
X153201623Y-106700478D01*
X153205292Y-106734413D01*
X153209513Y-106762286D01*
X153214327Y-106785198D01*
X153219773Y-106804249D01*
X153225888Y-106820540D01*
X153232712Y-106835173D01*
X153240285Y-106849249D01*
X153248645Y-106863868D01*
X153253839Y-106872974D01*
X153288104Y-106933689D01*
X152429955Y-106933689D01*
X152429955Y-106837733D01*
X152429224Y-106794370D01*
X152427272Y-106761205D01*
X152424463Y-106743424D01*
X152423221Y-106741778D01*
X152411799Y-106748662D01*
X152389084Y-106766505D01*
X152366385Y-106785879D01*
X152311800Y-106826614D01*
X152242321Y-106867617D01*
X152165270Y-106905123D01*
X152087965Y-106935364D01*
X152057113Y-106945012D01*
X151988616Y-106959578D01*
X151905764Y-106969539D01*
X151816371Y-106974583D01*
X151728248Y-106974396D01*
X151649207Y-106968666D01*
X151611511Y-106962858D01*
X151473414Y-106924797D01*
X151346113Y-106867073D01*
X151230292Y-106790211D01*
X151126637Y-106694739D01*
X151035833Y-106581179D01*
X150969031Y-106470381D01*
X150914164Y-106353625D01*
X150872163Y-106234276D01*
X150842167Y-106108283D01*
X150823311Y-105971594D01*
X150814732Y-105820158D01*
X150814006Y-105742711D01*
X150816100Y-105685934D01*
X151645217Y-105685934D01*
X151645424Y-105779002D01*
X151648337Y-105866692D01*
X151654000Y-105943772D01*
X151662455Y-106005009D01*
X151665038Y-106017350D01*
X151696840Y-106124633D01*
X151738498Y-106211658D01*
X151790363Y-106278642D01*
X151852781Y-106325805D01*
X151926100Y-106353365D01*
X152010669Y-106361541D01*
X152106835Y-106350551D01*
X152170311Y-106334829D01*
X152219454Y-106316639D01*
X152273583Y-106290791D01*
X152314244Y-106267089D01*
X152384800Y-106220721D01*
X152384800Y-105070530D01*
X152317392Y-105026962D01*
X152238867Y-104986040D01*
X152154681Y-104959389D01*
X152069557Y-104947465D01*
X151988216Y-104950722D01*
X151915380Y-104969615D01*
X151883426Y-104985184D01*
X151825501Y-105028181D01*
X151776544Y-105084953D01*
X151735390Y-105157575D01*
X151700874Y-105248121D01*
X151671833Y-105358666D01*
X151670552Y-105364533D01*
X151660381Y-105426788D01*
X151652739Y-105504594D01*
X151647670Y-105592720D01*
X151645217Y-105685934D01*
X150816100Y-105685934D01*
X150821857Y-105529895D01*
X150843802Y-105334059D01*
X150879786Y-105155332D01*
X150929759Y-104993845D01*
X150993668Y-104849726D01*
X151071462Y-104723106D01*
X151163089Y-104614115D01*
X151268497Y-104522883D01*
X151313662Y-104491932D01*
X151414611Y-104435785D01*
X151517901Y-104396174D01*
X151627989Y-104372014D01*
X151749330Y-104362219D01*
X151841836Y-104363265D01*
X151971490Y-104374231D01*
X152084084Y-104396046D01*
X152182875Y-104429714D01*
X152271121Y-104476236D01*
X152319986Y-104510448D01*
X152349353Y-104532362D01*
X152371043Y-104547333D01*
X152379253Y-104551733D01*
X152380868Y-104540904D01*
X152382159Y-104510251D01*
X152383138Y-104462526D01*
X152383817Y-104400479D01*
X152384210Y-104326862D01*
X152384330Y-104244427D01*
X152384188Y-104155925D01*
X152383797Y-104064107D01*
X152383171Y-103971724D01*
X152382320Y-103881528D01*
X152381260Y-103796271D01*
X152380001Y-103718703D01*
X152378556Y-103651576D01*
X152376938Y-103597641D01*
X152375161Y-103559650D01*
X152374669Y-103552667D01*
X152367092Y-103482251D01*
X152355531Y-103427102D01*
X152337792Y-103379981D01*
X152311682Y-103333647D01*
X152305415Y-103324067D01*
X152280983Y-103287378D01*
X153186311Y-103287378D01*
X153186507Y-104972245D01*
G36*
X153186507Y-104972245D02*
G01*
X153186526Y-105206662D01*
X153186552Y-105419603D01*
X153186625Y-105612168D01*
X153186782Y-105785459D01*
X153187064Y-105940576D01*
X153187509Y-106078620D01*
X153188156Y-106200692D01*
X153189045Y-106307894D01*
X153190213Y-106401326D01*
X153191701Y-106482090D01*
X153193546Y-106551286D01*
X153195789Y-106610015D01*
X153198469Y-106659379D01*
X153201623Y-106700478D01*
X153205292Y-106734413D01*
X153209513Y-106762286D01*
X153214327Y-106785198D01*
X153219773Y-106804249D01*
X153225888Y-106820540D01*
X153232712Y-106835173D01*
X153240285Y-106849249D01*
X153248645Y-106863868D01*
X153253839Y-106872974D01*
X153288104Y-106933689D01*
X152429955Y-106933689D01*
X152429955Y-106837733D01*
X152429224Y-106794370D01*
X152427272Y-106761205D01*
X152424463Y-106743424D01*
X152423221Y-106741778D01*
X152411799Y-106748662D01*
X152389084Y-106766505D01*
X152366385Y-106785879D01*
X152311800Y-106826614D01*
X152242321Y-106867617D01*
X152165270Y-106905123D01*
X152087965Y-106935364D01*
X152057113Y-106945012D01*
X151988616Y-106959578D01*
X151905764Y-106969539D01*
X151816371Y-106974583D01*
X151728248Y-106974396D01*
X151649207Y-106968666D01*
X151611511Y-106962858D01*
X151473414Y-106924797D01*
X151346113Y-106867073D01*
X151230292Y-106790211D01*
X151126637Y-106694739D01*
X151035833Y-106581179D01*
X150969031Y-106470381D01*
X150914164Y-106353625D01*
X150872163Y-106234276D01*
X150842167Y-106108283D01*
X150823311Y-105971594D01*
X150814732Y-105820158D01*
X150814006Y-105742711D01*
X150816100Y-105685934D01*
X151645217Y-105685934D01*
X151645424Y-105779002D01*
X151648337Y-105866692D01*
X151654000Y-105943772D01*
X151662455Y-106005009D01*
X151665038Y-106017350D01*
X151696840Y-106124633D01*
X151738498Y-106211658D01*
X151790363Y-106278642D01*
X151852781Y-106325805D01*
X151926100Y-106353365D01*
X152010669Y-106361541D01*
X152106835Y-106350551D01*
X152170311Y-106334829D01*
X152219454Y-106316639D01*
X152273583Y-106290791D01*
X152314244Y-106267089D01*
X152384800Y-106220721D01*
X152384800Y-105070530D01*
X152317392Y-105026962D01*
X152238867Y-104986040D01*
X152154681Y-104959389D01*
X152069557Y-104947465D01*
X151988216Y-104950722D01*
X151915380Y-104969615D01*
X151883426Y-104985184D01*
X151825501Y-105028181D01*
X151776544Y-105084953D01*
X151735390Y-105157575D01*
X151700874Y-105248121D01*
X151671833Y-105358666D01*
X151670552Y-105364533D01*
X151660381Y-105426788D01*
X151652739Y-105504594D01*
X151647670Y-105592720D01*
X151645217Y-105685934D01*
X150816100Y-105685934D01*
X150821857Y-105529895D01*
X150843802Y-105334059D01*
X150879786Y-105155332D01*
X150929759Y-104993845D01*
X150993668Y-104849726D01*
X151071462Y-104723106D01*
X151163089Y-104614115D01*
X151268497Y-104522883D01*
X151313662Y-104491932D01*
X151414611Y-104435785D01*
X151517901Y-104396174D01*
X151627989Y-104372014D01*
X151749330Y-104362219D01*
X151841836Y-104363265D01*
X151971490Y-104374231D01*
X152084084Y-104396046D01*
X152182875Y-104429714D01*
X152271121Y-104476236D01*
X152319986Y-104510448D01*
X152349353Y-104532362D01*
X152371043Y-104547333D01*
X152379253Y-104551733D01*
X152380868Y-104540904D01*
X152382159Y-104510251D01*
X152383138Y-104462526D01*
X152383817Y-104400479D01*
X152384210Y-104326862D01*
X152384330Y-104244427D01*
X152384188Y-104155925D01*
X152383797Y-104064107D01*
X152383171Y-103971724D01*
X152382320Y-103881528D01*
X152381260Y-103796271D01*
X152380001Y-103718703D01*
X152378556Y-103651576D01*
X152376938Y-103597641D01*
X152375161Y-103559650D01*
X152374669Y-103552667D01*
X152367092Y-103482251D01*
X152355531Y-103427102D01*
X152337792Y-103379981D01*
X152311682Y-103333647D01*
X152305415Y-103324067D01*
X152280983Y-103287378D01*
X153186311Y-103287378D01*
X153186507Y-104972245D01*
G37*
X149673574Y-104366552D02*
X149825492Y-104386567D01*
X149960756Y-104420202D01*
X150080239Y-104467725D01*
X150184815Y-104529405D01*
X150262424Y-104592965D01*
X150331265Y-104667099D01*
X150385006Y-104746871D01*
X150427910Y-104839091D01*
X150443384Y-104882161D01*
X150456244Y-104921142D01*
X150467446Y-104957289D01*
X150477120Y-104992434D01*
X150485396Y-105028410D01*
X150492403Y-105067050D01*
X150498272Y-105110185D01*
X150503131Y-105159649D01*
X150507110Y-105217273D01*
X150510340Y-105284891D01*
X150512949Y-105364334D01*
X150515067Y-105457436D01*
X150516824Y-105566027D01*
X150518349Y-105691942D01*
X150519772Y-105837012D01*
X150521025Y-105979778D01*
X150522351Y-106135968D01*
X150523556Y-106271239D01*
X150524766Y-106387246D01*
X150526106Y-106485645D01*
X150527700Y-106568093D01*
X150529675Y-106636246D01*
X150532156Y-106691760D01*
X150535269Y-106736292D01*
X150539138Y-106771498D01*
X150543889Y-106799034D01*
X150549648Y-106820556D01*
X150556539Y-106837722D01*
X150564689Y-106852186D01*
X150574223Y-106865606D01*
X150585266Y-106879638D01*
X150589566Y-106885071D01*
X150605386Y-106907910D01*
X150612422Y-106923463D01*
X150612444Y-106923922D01*
X150601567Y-106926121D01*
X150570582Y-106928147D01*
X150521957Y-106929942D01*
X150458163Y-106931451D01*
X150381669Y-106932616D01*
X150294944Y-106933380D01*
X150200457Y-106933686D01*
X150189550Y-106933689D01*
X149766657Y-106933689D01*
X149763395Y-106837622D01*
X149760133Y-106741556D01*
X149698044Y-106792543D01*
X149600714Y-106860057D01*
X149490813Y-106914749D01*
X149404349Y-106944978D01*
X149335278Y-106959666D01*
X149251925Y-106969659D01*
X149162159Y-106974646D01*
X149073845Y-106974313D01*
X148994851Y-106968351D01*
X148958622Y-106962638D01*
X148818603Y-106924776D01*
X148692178Y-106869932D01*
X148580260Y-106798924D01*
X148483762Y-106712568D01*
X148403600Y-106611679D01*
X148340687Y-106497076D01*
X148296312Y-106370984D01*
X148283978Y-106314401D01*
X148276368Y-106252202D01*
X148272739Y-106177363D01*
X148272245Y-106143467D01*
X148272310Y-106140282D01*
X149032248Y-106140282D01*
X149041541Y-106215333D01*
X149069728Y-106279160D01*
X149118197Y-106334798D01*
X149123254Y-106339211D01*
X149171548Y-106374037D01*
X149223257Y-106396620D01*
X149283989Y-106408540D01*
X149359352Y-106411383D01*
X149377459Y-106410978D01*
X149431278Y-106408325D01*
X149471308Y-106402909D01*
X149506324Y-106392745D01*
X149545103Y-106375850D01*
X149555745Y-106370672D01*
X149616396Y-106334844D01*
X149663215Y-106292212D01*
X149675952Y-106276973D01*
X149720622Y-106220462D01*
X149720622Y-106024586D01*
X149720086Y-105945939D01*
X149718396Y-105887988D01*
X149715428Y-105848875D01*
X149711057Y-105826741D01*
X149706972Y-105820274D01*
X149691047Y-105817111D01*
X149657264Y-105814488D01*
X149610340Y-105812655D01*
X149554993Y-105811857D01*
X149546106Y-105811842D01*
X149425330Y-105817096D01*
X149322660Y-105833263D01*
X149236106Y-105860961D01*
X149163681Y-105900808D01*
X149108751Y-105947758D01*
X149064204Y-106005645D01*
X149039480Y-106068693D01*
X149032248Y-106140282D01*
X148272310Y-106140282D01*
X148274178Y-106049712D01*
X148282522Y-105970812D01*
X148298768Y-105899590D01*
X148324405Y-105828864D01*
X148348401Y-105776493D01*
X148407020Y-105681196D01*
X148485117Y-105593170D01*
X148580315Y-105514017D01*
X148690238Y-105445340D01*
X148812510Y-105388741D01*
X148944755Y-105345821D01*
X149009422Y-105330882D01*
X149145604Y-105308777D01*
X149294049Y-105294194D01*
X149445505Y-105287813D01*
X149572064Y-105289445D01*
X149733950Y-105296224D01*
X149726530Y-105237245D01*
X149707238Y-105138092D01*
X149676104Y-105057372D01*
X149632269Y-104994466D01*
X149574871Y-104948756D01*
X149503048Y-104919622D01*
X149415941Y-104906447D01*
X149312686Y-104908611D01*
X149274711Y-104912612D01*
X149133520Y-104937780D01*
X148996707Y-104978814D01*
X148902178Y-105016815D01*
X148857018Y-105036190D01*
X148818585Y-105051760D01*
X148792234Y-105061405D01*
X148784546Y-105063452D01*
X148774802Y-105054374D01*
X148758083Y-105025405D01*
X148734232Y-104976217D01*
X148703093Y-104906484D01*
X148664507Y-104815879D01*
X148657910Y-104800089D01*
X148627853Y-104727772D01*
X148600874Y-104662425D01*
X148578136Y-104606906D01*
X148560806Y-104564072D01*
X148550048Y-104536781D01*
X148546941Y-104527942D01*
X148556940Y-104523187D01*
X148583217Y-104517910D01*
X148611489Y-104514231D01*
X148641646Y-104509474D01*
X148689433Y-104500028D01*
X148750612Y-104486820D01*
X148820946Y-104470776D01*
X148896194Y-104452820D01*
X148924755Y-104445797D01*
X149029816Y-104420209D01*
X149117480Y-104400147D01*
X149192068Y-104384969D01*
X149257903Y-104374035D01*
X149319307Y-104366704D01*
X149380602Y-104362335D01*
X149446110Y-104360287D01*
X149504128Y-104359889D01*
X149673574Y-104366552D01*
G36*
X149673574Y-104366552D02*
G01*
X149825492Y-104386567D01*
X149960756Y-104420202D01*
X150080239Y-104467725D01*
X150184815Y-104529405D01*
X150262424Y-104592965D01*
X150331265Y-104667099D01*
X150385006Y-104746871D01*
X150427910Y-104839091D01*
X150443384Y-104882161D01*
X150456244Y-104921142D01*
X150467446Y-104957289D01*
X150477120Y-104992434D01*
X150485396Y-105028410D01*
X150492403Y-105067050D01*
X150498272Y-105110185D01*
X150503131Y-105159649D01*
X150507110Y-105217273D01*
X150510340Y-105284891D01*
X150512949Y-105364334D01*
X150515067Y-105457436D01*
X150516824Y-105566027D01*
X150518349Y-105691942D01*
X150519772Y-105837012D01*
X150521025Y-105979778D01*
X150522351Y-106135968D01*
X150523556Y-106271239D01*
X150524766Y-106387246D01*
X150526106Y-106485645D01*
X150527700Y-106568093D01*
X150529675Y-106636246D01*
X150532156Y-106691760D01*
X150535269Y-106736292D01*
X150539138Y-106771498D01*
X150543889Y-106799034D01*
X150549648Y-106820556D01*
X150556539Y-106837722D01*
X150564689Y-106852186D01*
X150574223Y-106865606D01*
X150585266Y-106879638D01*
X150589566Y-106885071D01*
X150605386Y-106907910D01*
X150612422Y-106923463D01*
X150612444Y-106923922D01*
X150601567Y-106926121D01*
X150570582Y-106928147D01*
X150521957Y-106929942D01*
X150458163Y-106931451D01*
X150381669Y-106932616D01*
X150294944Y-106933380D01*
X150200457Y-106933686D01*
X150189550Y-106933689D01*
X149766657Y-106933689D01*
X149763395Y-106837622D01*
X149760133Y-106741556D01*
X149698044Y-106792543D01*
X149600714Y-106860057D01*
X149490813Y-106914749D01*
X149404349Y-106944978D01*
X149335278Y-106959666D01*
X149251925Y-106969659D01*
X149162159Y-106974646D01*
X149073845Y-106974313D01*
X148994851Y-106968351D01*
X148958622Y-106962638D01*
X148818603Y-106924776D01*
X148692178Y-106869932D01*
X148580260Y-106798924D01*
X148483762Y-106712568D01*
X148403600Y-106611679D01*
X148340687Y-106497076D01*
X148296312Y-106370984D01*
X148283978Y-106314401D01*
X148276368Y-106252202D01*
X148272739Y-106177363D01*
X148272245Y-106143467D01*
X148272310Y-106140282D01*
X149032248Y-106140282D01*
X149041541Y-106215333D01*
X149069728Y-106279160D01*
X149118197Y-106334798D01*
X149123254Y-106339211D01*
X149171548Y-106374037D01*
X149223257Y-106396620D01*
X149283989Y-106408540D01*
X149359352Y-106411383D01*
X149377459Y-106410978D01*
X149431278Y-106408325D01*
X149471308Y-106402909D01*
X149506324Y-106392745D01*
X149545103Y-106375850D01*
X149555745Y-106370672D01*
X149616396Y-106334844D01*
X149663215Y-106292212D01*
X149675952Y-106276973D01*
X149720622Y-106220462D01*
X149720622Y-106024586D01*
X149720086Y-105945939D01*
X149718396Y-105887988D01*
X149715428Y-105848875D01*
X149711057Y-105826741D01*
X149706972Y-105820274D01*
X149691047Y-105817111D01*
X149657264Y-105814488D01*
X149610340Y-105812655D01*
X149554993Y-105811857D01*
X149546106Y-105811842D01*
X149425330Y-105817096D01*
X149322660Y-105833263D01*
X149236106Y-105860961D01*
X149163681Y-105900808D01*
X149108751Y-105947758D01*
X149064204Y-106005645D01*
X149039480Y-106068693D01*
X149032248Y-106140282D01*
X148272310Y-106140282D01*
X148274178Y-106049712D01*
X148282522Y-105970812D01*
X148298768Y-105899590D01*
X148324405Y-105828864D01*
X148348401Y-105776493D01*
X148407020Y-105681196D01*
X148485117Y-105593170D01*
X148580315Y-105514017D01*
X148690238Y-105445340D01*
X148812510Y-105388741D01*
X148944755Y-105345821D01*
X149009422Y-105330882D01*
X149145604Y-105308777D01*
X149294049Y-105294194D01*
X149445505Y-105287813D01*
X149572064Y-105289445D01*
X149733950Y-105296224D01*
X149726530Y-105237245D01*
X149707238Y-105138092D01*
X149676104Y-105057372D01*
X149632269Y-104994466D01*
X149574871Y-104948756D01*
X149503048Y-104919622D01*
X149415941Y-104906447D01*
X149312686Y-104908611D01*
X149274711Y-104912612D01*
X149133520Y-104937780D01*
X148996707Y-104978814D01*
X148902178Y-105016815D01*
X148857018Y-105036190D01*
X148818585Y-105051760D01*
X148792234Y-105061405D01*
X148784546Y-105063452D01*
X148774802Y-105054374D01*
X148758083Y-105025405D01*
X148734232Y-104976217D01*
X148703093Y-104906484D01*
X148664507Y-104815879D01*
X148657910Y-104800089D01*
X148627853Y-104727772D01*
X148600874Y-104662425D01*
X148578136Y-104606906D01*
X148560806Y-104564072D01*
X148550048Y-104536781D01*
X148546941Y-104527942D01*
X148556940Y-104523187D01*
X148583217Y-104517910D01*
X148611489Y-104514231D01*
X148641646Y-104509474D01*
X148689433Y-104500028D01*
X148750612Y-104486820D01*
X148820946Y-104470776D01*
X148896194Y-104452820D01*
X148924755Y-104445797D01*
X149029816Y-104420209D01*
X149117480Y-104400147D01*
X149192068Y-104384969D01*
X149257903Y-104374035D01*
X149319307Y-104366704D01*
X149380602Y-104362335D01*
X149446110Y-104360287D01*
X149504128Y-104359889D01*
X149673574Y-104366552D01*
G37*
X144053600Y-102989054D02*
X144064465Y-103102993D01*
X144096082Y-103210616D01*
X144146985Y-103309615D01*
X144215707Y-103397684D01*
X144300781Y-103472516D01*
X144397768Y-103530384D01*
X144504036Y-103570005D01*
X144611050Y-103588573D01*
X144716700Y-103587434D01*
X144818875Y-103567930D01*
X144915466Y-103531406D01*
X145004362Y-103479205D01*
X145083454Y-103412673D01*
X145150631Y-103333152D01*
X145203783Y-103241987D01*
X145240801Y-103140523D01*
X145259573Y-103030102D01*
X145261511Y-102980206D01*
X145261511Y-102892267D01*
X145313440Y-102892267D01*
X145349747Y-102895111D01*
X145376645Y-102906911D01*
X145403751Y-102930649D01*
X145442133Y-102969031D01*
X145442133Y-105160602D01*
X145442124Y-105422739D01*
X145442092Y-105663241D01*
X145442028Y-105883048D01*
X145441924Y-106083101D01*
X145441773Y-106264344D01*
X145441566Y-106427716D01*
X145441294Y-106574160D01*
X145440950Y-106704617D01*
X145440526Y-106820029D01*
X145440013Y-106921338D01*
X145439403Y-107009484D01*
X145438688Y-107085410D01*
X145437860Y-107150057D01*
X145436911Y-107204367D01*
X145435833Y-107249280D01*
X145434617Y-107285740D01*
X145433255Y-107314687D01*
X145431739Y-107337063D01*
X145430062Y-107353809D01*
X145428214Y-107365868D01*
X145426187Y-107374180D01*
X145423975Y-107379687D01*
X145422892Y-107381537D01*
X145418729Y-107388549D01*
X145415195Y-107394996D01*
X145411365Y-107400900D01*
X145406318Y-107406286D01*
X145399129Y-107411178D01*
X145388877Y-107415598D01*
X145374636Y-107419572D01*
X145355486Y-107423121D01*
X145330501Y-107426270D01*
X145298760Y-107429042D01*
X145259338Y-107431461D01*
X145211314Y-107433551D01*
X145153763Y-107435335D01*
X145085763Y-107436837D01*
X145006390Y-107438080D01*
X144914721Y-107439089D01*
X144809834Y-107439885D01*
X144690804Y-107440494D01*
X144556710Y-107440939D01*
X144406627Y-107441243D01*
X144239633Y-107441430D01*
X144054804Y-107441524D01*
X143851217Y-107441548D01*
X143627950Y-107441525D01*
X143384078Y-107441480D01*
X143118679Y-107441437D01*
X143080296Y-107441432D01*
X142813318Y-107441389D01*
X142567998Y-107441318D01*
X142343417Y-107441213D01*
X142138655Y-107441066D01*
X141952794Y-107440869D01*
X141784912Y-107440616D01*
X141634092Y-107440300D01*
X141499413Y-107439913D01*
X141379956Y-107439447D01*
X141274801Y-107438897D01*
X141183029Y-107438253D01*
X141103721Y-107437511D01*
X141035957Y-107436661D01*
X140978818Y-107435697D01*
X140931383Y-107434611D01*
X140892734Y-107433397D01*
X140861951Y-107432047D01*
X140838115Y-107430555D01*
X140820306Y-107428911D01*
X140807605Y-107427111D01*
X140799092Y-107425145D01*
X140794734Y-107423477D01*
X140786272Y-107419906D01*
X140778503Y-107417270D01*
X140771398Y-107414634D01*
X140764927Y-107411062D01*
X140759061Y-107405621D01*
X140753771Y-107397375D01*
X140749026Y-107385390D01*
X140744798Y-107368731D01*
X140741057Y-107346463D01*
X140737773Y-107317652D01*
X140734917Y-107281363D01*
X140732460Y-107236661D01*
X140730371Y-107182611D01*
X140728622Y-107118279D01*
X140727183Y-107042730D01*
X140726024Y-106955030D01*
X140725117Y-106854243D01*
X140724431Y-106739434D01*
X140723937Y-106609670D01*
X140723605Y-106464015D01*
X140723407Y-106301535D01*
X140723313Y-106121295D01*
X140723292Y-105922360D01*
X140723315Y-105703796D01*
X140723354Y-105464668D01*
X140723378Y-105204040D01*
X140723378Y-105161889D01*
X140723364Y-104898992D01*
X140723339Y-104657732D01*
X140723329Y-104437165D01*
X140723358Y-104236352D01*
X140723452Y-104054349D01*
X140723638Y-103890216D01*
X140723941Y-103743011D01*
X140724386Y-103611792D01*
X140724966Y-103501867D01*
X141027803Y-103501867D01*
X141067593Y-103559711D01*
X141078764Y-103575479D01*
X141088834Y-103589441D01*
X141097862Y-103602784D01*
X141105903Y-103616693D01*
X141113014Y-103632356D01*
X141119253Y-103650958D01*
X141124675Y-103673686D01*
X141129338Y-103701727D01*
X141133299Y-103736267D01*
X141136615Y-103778492D01*
X141139341Y-103829589D01*
X141141536Y-103890744D01*
X141143255Y-103963144D01*
X141144556Y-104047975D01*
X141145495Y-104146422D01*
X141146130Y-104259674D01*
X141146516Y-104388916D01*
X141146712Y-104535334D01*
X141146773Y-104700116D01*
X141146757Y-104884447D01*
X141146720Y-105089513D01*
X141146711Y-105212133D01*
X141146735Y-105429082D01*
X141146769Y-105624642D01*
X141146757Y-105799999D01*
X141146642Y-105956341D01*
X141146370Y-106094857D01*
X141145882Y-106216734D01*
X141145124Y-106323160D01*
X141144038Y-106415322D01*
X141142569Y-106494409D01*
X141140660Y-106561608D01*
X141138256Y-106618107D01*
X141135299Y-106665093D01*
X141131734Y-106703755D01*
X141127505Y-106735280D01*
X141122554Y-106760855D01*
X141116827Y-106781670D01*
X141110267Y-106798911D01*
X141102817Y-106813765D01*
X141094421Y-106827422D01*
X141085024Y-106841069D01*
X141074568Y-106855893D01*
X141068477Y-106864783D01*
X141029704Y-106922400D01*
X141561268Y-106922400D01*
X141684517Y-106922365D01*
X141787013Y-106922215D01*
X141870580Y-106921878D01*
X141937044Y-106921286D01*
X141988229Y-106920367D01*
X142025959Y-106919051D01*
X142052060Y-106917269D01*
X142068356Y-106914951D01*
X142076672Y-106912026D01*
X142078832Y-106908424D01*
X142076661Y-106904075D01*
X142075465Y-106902645D01*
X142050315Y-106865573D01*
X142024417Y-106812772D01*
X142000808Y-106750770D01*
X141992539Y-106724357D01*
X141987922Y-106706416D01*
X141984021Y-106685355D01*
X141980752Y-106659089D01*
X141978034Y-106625532D01*
X141975785Y-106582599D01*
X141973923Y-106528204D01*
X141972364Y-106460262D01*
X141971028Y-106376688D01*
X141969831Y-106275395D01*
X141968692Y-106154300D01*
X141968315Y-106109600D01*
X141967298Y-105984449D01*
X141966540Y-105880082D01*
X141966097Y-105794707D01*
X141966030Y-105726533D01*
X141966395Y-105673765D01*
X141967252Y-105634614D01*
X141968659Y-105607285D01*
X141970675Y-105589986D01*
X141973357Y-105580926D01*
X141976764Y-105578312D01*
X141980956Y-105580351D01*
X141985429Y-105584667D01*
X141995784Y-105597602D01*
X142017842Y-105626676D01*
X142050043Y-105669759D01*
X142090826Y-105724718D01*
X142138630Y-105789423D01*
X142191895Y-105861742D01*
X142249060Y-105939544D01*
X142308563Y-106020698D01*
X142368845Y-106103072D01*
X142428345Y-106184536D01*
X142485502Y-106262957D01*
X142538755Y-106336204D01*
X142586543Y-106402147D01*
X142627307Y-106458654D01*
X142659484Y-106503593D01*
X142681515Y-106534834D01*
X142686083Y-106541466D01*
X142709004Y-106578369D01*
X142735812Y-106626359D01*
X142761211Y-106675897D01*
X142764432Y-106682577D01*
X142786110Y-106730772D01*
X142798696Y-106768334D01*
X142804426Y-106804160D01*
X142805544Y-106846200D01*
X142804910Y-106922400D01*
X143959349Y-106922400D01*
X143954347Y-106917257D01*
X144166489Y-106917257D01*
X144177396Y-106918334D01*
X144208589Y-106919335D01*
X144257777Y-106920235D01*
X144322667Y-106921010D01*
X144400970Y-106921637D01*
X144490393Y-106922091D01*
X144588644Y-106922349D01*
X144657555Y-106922400D01*
X144762548Y-106922180D01*
X144859390Y-106921548D01*
X144945893Y-106920549D01*
X145019868Y-106919227D01*
X145079126Y-106917626D01*
X145121480Y-106915791D01*
X145144740Y-106913765D01*
X145148622Y-106912493D01*
X145140924Y-106897591D01*
X145132926Y-106889560D01*
X145119754Y-106872434D01*
X145102515Y-106842183D01*
X145090593Y-106817622D01*
X145063955Y-106758711D01*
X145060880Y-105581845D01*
X145057805Y-104404978D01*
X144612147Y-104404978D01*
X144514330Y-104405142D01*
X144423936Y-104405611D01*
X144343370Y-104406347D01*
X144275038Y-104407316D01*
X144221344Y-104408480D01*
X144184695Y-104409803D01*
X144167496Y-104411249D01*
X144166489Y-104411702D01*
X144172398Y-104424659D01*
X144186728Y-104446908D01*
X144187775Y-104448391D01*
X144206562Y-104478544D01*
X144226209Y-104515375D01*
X144230108Y-104523511D01*
X144233644Y-104531940D01*
X144236770Y-104542059D01*
X144239514Y-104555260D01*
X144241908Y-104572938D01*
X144243981Y-104596484D01*
X144245765Y-104627293D01*
X144247288Y-104666757D01*
X144248581Y-104716269D01*
X144249674Y-104777223D01*
X144250597Y-104851011D01*
X144251381Y-104939028D01*
X144252055Y-105042665D01*
X144252650Y-105163316D01*
X144253195Y-105302374D01*
X144253721Y-105461232D01*
X144254255Y-105640089D01*
X144254794Y-105825207D01*
X144255228Y-105989145D01*
X144255491Y-106133303D01*
X144255516Y-106259079D01*
X144255235Y-106367871D01*
X144254581Y-106461077D01*
X144253486Y-106540097D01*
X144251882Y-106606328D01*
X144249703Y-106661170D01*
X144246881Y-106706021D01*
X144243349Y-106742278D01*
X144239039Y-106771341D01*
X144233883Y-106794609D01*
X144227815Y-106813479D01*
X144220767Y-106829351D01*
X144212671Y-106843622D01*
X144203460Y-106857691D01*
X144194960Y-106870158D01*
X144177824Y-106896452D01*
X144167678Y-106914037D01*
X144166489Y-106917257D01*
X143954347Y-106917257D01*
X143868185Y-106828669D01*
X143821388Y-106778775D01*
X143771101Y-106722295D01*
X143725056Y-106668026D01*
X143704631Y-106642673D01*
X143674193Y-106603128D01*
X143634138Y-106549916D01*
X143585639Y-106484667D01*
X143529865Y-106409011D01*
X143467989Y-106324577D01*
X143401181Y-106232994D01*
X143330613Y-106135892D01*
X143257455Y-106034901D01*
X143182879Y-105931650D01*
X143108056Y-105827768D01*
X143034157Y-105724885D01*
X142962354Y-105624631D01*
X142893816Y-105528636D01*
X142829716Y-105438527D01*
X142771225Y-105355936D01*
X142719514Y-105282492D01*
X142675753Y-105219824D01*
X142641115Y-105169561D01*
X142616770Y-105133334D01*
X142603889Y-105112771D01*
X142602131Y-105108668D01*
X142610090Y-105097342D01*
X142630885Y-105070162D01*
X142663153Y-105028829D01*
X142705530Y-104975044D01*
X142756653Y-104910506D01*
X142815159Y-104836918D01*
X142879686Y-104755978D01*
X142948869Y-104669388D01*
X143021347Y-104578848D01*
X143095754Y-104486060D01*
X143155483Y-104411702D01*
X143170730Y-104392722D01*
X143244910Y-104300537D01*
X143316931Y-104211204D01*
X143385431Y-104126424D01*
X143449045Y-104047898D01*
X143506412Y-103977326D01*
X143556167Y-103916409D01*
X143596948Y-103866847D01*
X143614112Y-103846178D01*
X143700404Y-103745516D01*
X143777003Y-103662259D01*
X143845817Y-103594438D01*
X143908752Y-103540089D01*
X143918133Y-103532722D01*
X143957644Y-103502117D01*
X142825884Y-103501867D01*
X142831173Y-103549844D01*
X142827870Y-103607188D01*
X142806339Y-103675463D01*
X142766365Y-103755212D01*
X142721057Y-103827495D01*
X142704839Y-103850140D01*
X142676786Y-103887696D01*
X142638570Y-103938021D01*
X142591863Y-103998973D01*
X142538339Y-104068411D01*
X142479669Y-104144194D01*
X142417525Y-104224180D01*
X142353579Y-104306228D01*
X142289505Y-104388196D01*
X142226973Y-104467943D01*
X142167657Y-104543327D01*
X142113229Y-104612207D01*
X142065361Y-104672442D01*
X142025725Y-104721889D01*
X141995994Y-104758408D01*
X141977839Y-104779858D01*
X141974780Y-104783156D01*
X141971921Y-104775149D01*
X141969707Y-104744855D01*
X141968143Y-104692556D01*
X141967233Y-104618531D01*
X141966980Y-104523063D01*
X141967387Y-104406434D01*
X141968296Y-104286445D01*
X141969618Y-104154333D01*
X141971143Y-104042594D01*
X141973119Y-103949025D01*
X141975794Y-103871419D01*
X141979418Y-103807574D01*
X141984239Y-103755283D01*
X141990506Y-103712344D01*
X141998468Y-103676551D01*
X142008373Y-103645700D01*
X142020469Y-103617586D01*
X142035007Y-103590005D01*
X142049689Y-103564966D01*
X142087686Y-103501867D01*
X141027803Y-103501867D01*
X140724966Y-103501867D01*
X140724999Y-103495617D01*
X140725805Y-103393544D01*
X140726830Y-103304633D01*
X140728100Y-103227941D01*
X140729640Y-103162527D01*
X140731476Y-103107449D01*
X140733633Y-103061765D01*
X140736137Y-103024534D01*
X140739013Y-102994813D01*
X140742287Y-102971662D01*
X140745985Y-102954139D01*
X140750131Y-102941301D01*
X140754753Y-102932208D01*
X140759874Y-102925918D01*
X140765522Y-102921488D01*
X140771721Y-102917978D01*
X140778496Y-102914445D01*
X140784492Y-102910876D01*
X140789725Y-102908300D01*
X140797901Y-102905972D01*
X140810114Y-102903878D01*
X140827459Y-102902007D01*
X140851031Y-102900347D01*
X140881923Y-102898884D01*
X140921232Y-102897608D01*
X140970050Y-102896504D01*
X141029473Y-102895561D01*
X141100596Y-102894767D01*
X141184512Y-102894109D01*
X141282317Y-102893575D01*
X141395106Y-102893153D01*
X141523971Y-102892829D01*
X141670009Y-102892592D01*
X141834314Y-102892430D01*
X142017980Y-102892330D01*
X142222103Y-102892280D01*
X142433247Y-102892267D01*
X144053600Y-102892267D01*
X144053600Y-102989054D01*
G36*
X144053600Y-102989054D02*
G01*
X144064465Y-103102993D01*
X144096082Y-103210616D01*
X144146985Y-103309615D01*
X144215707Y-103397684D01*
X144300781Y-103472516D01*
X144397768Y-103530384D01*
X144504036Y-103570005D01*
X144611050Y-103588573D01*
X144716700Y-103587434D01*
X144818875Y-103567930D01*
X144915466Y-103531406D01*
X145004362Y-103479205D01*
X145083454Y-103412673D01*
X145150631Y-103333152D01*
X145203783Y-103241987D01*
X145240801Y-103140523D01*
X145259573Y-103030102D01*
X145261511Y-102980206D01*
X145261511Y-102892267D01*
X145313440Y-102892267D01*
X145349747Y-102895111D01*
X145376645Y-102906911D01*
X145403751Y-102930649D01*
X145442133Y-102969031D01*
X145442133Y-105160602D01*
X145442124Y-105422739D01*
X145442092Y-105663241D01*
X145442028Y-105883048D01*
X145441924Y-106083101D01*
X145441773Y-106264344D01*
X145441566Y-106427716D01*
X145441294Y-106574160D01*
X145440950Y-106704617D01*
X145440526Y-106820029D01*
X145440013Y-106921338D01*
X145439403Y-107009484D01*
X145438688Y-107085410D01*
X145437860Y-107150057D01*
X145436911Y-107204367D01*
X145435833Y-107249280D01*
X145434617Y-107285740D01*
X145433255Y-107314687D01*
X145431739Y-107337063D01*
X145430062Y-107353809D01*
X145428214Y-107365868D01*
X145426187Y-107374180D01*
X145423975Y-107379687D01*
X145422892Y-107381537D01*
X145418729Y-107388549D01*
X145415195Y-107394996D01*
X145411365Y-107400900D01*
X145406318Y-107406286D01*
X145399129Y-107411178D01*
X145388877Y-107415598D01*
X145374636Y-107419572D01*
X145355486Y-107423121D01*
X145330501Y-107426270D01*
X145298760Y-107429042D01*
X145259338Y-107431461D01*
X145211314Y-107433551D01*
X145153763Y-107435335D01*
X145085763Y-107436837D01*
X145006390Y-107438080D01*
X144914721Y-107439089D01*
X144809834Y-107439885D01*
X144690804Y-107440494D01*
X144556710Y-107440939D01*
X144406627Y-107441243D01*
X144239633Y-107441430D01*
X144054804Y-107441524D01*
X143851217Y-107441548D01*
X143627950Y-107441525D01*
X143384078Y-107441480D01*
X143118679Y-107441437D01*
X143080296Y-107441432D01*
X142813318Y-107441389D01*
X142567998Y-107441318D01*
X142343417Y-107441213D01*
X142138655Y-107441066D01*
X141952794Y-107440869D01*
X141784912Y-107440616D01*
X141634092Y-107440300D01*
X141499413Y-107439913D01*
X141379956Y-107439447D01*
X141274801Y-107438897D01*
X141183029Y-107438253D01*
X141103721Y-107437511D01*
X141035957Y-107436661D01*
X140978818Y-107435697D01*
X140931383Y-107434611D01*
X140892734Y-107433397D01*
X140861951Y-107432047D01*
X140838115Y-107430555D01*
X140820306Y-107428911D01*
X140807605Y-107427111D01*
X140799092Y-107425145D01*
X140794734Y-107423477D01*
X140786272Y-107419906D01*
X140778503Y-107417270D01*
X140771398Y-107414634D01*
X140764927Y-107411062D01*
X140759061Y-107405621D01*
X140753771Y-107397375D01*
X140749026Y-107385390D01*
X140744798Y-107368731D01*
X140741057Y-107346463D01*
X140737773Y-107317652D01*
X140734917Y-107281363D01*
X140732460Y-107236661D01*
X140730371Y-107182611D01*
X140728622Y-107118279D01*
X140727183Y-107042730D01*
X140726024Y-106955030D01*
X140725117Y-106854243D01*
X140724431Y-106739434D01*
X140723937Y-106609670D01*
X140723605Y-106464015D01*
X140723407Y-106301535D01*
X140723313Y-106121295D01*
X140723292Y-105922360D01*
X140723315Y-105703796D01*
X140723354Y-105464668D01*
X140723378Y-105204040D01*
X140723378Y-105161889D01*
X140723364Y-104898992D01*
X140723339Y-104657732D01*
X140723329Y-104437165D01*
X140723358Y-104236352D01*
X140723452Y-104054349D01*
X140723638Y-103890216D01*
X140723941Y-103743011D01*
X140724386Y-103611792D01*
X140724966Y-103501867D01*
X141027803Y-103501867D01*
X141067593Y-103559711D01*
X141078764Y-103575479D01*
X141088834Y-103589441D01*
X141097862Y-103602784D01*
X141105903Y-103616693D01*
X141113014Y-103632356D01*
X141119253Y-103650958D01*
X141124675Y-103673686D01*
X141129338Y-103701727D01*
X141133299Y-103736267D01*
X141136615Y-103778492D01*
X141139341Y-103829589D01*
X141141536Y-103890744D01*
X141143255Y-103963144D01*
X141144556Y-104047975D01*
X141145495Y-104146422D01*
X141146130Y-104259674D01*
X141146516Y-104388916D01*
X141146712Y-104535334D01*
X141146773Y-104700116D01*
X141146757Y-104884447D01*
X141146720Y-105089513D01*
X141146711Y-105212133D01*
X141146735Y-105429082D01*
X141146769Y-105624642D01*
X141146757Y-105799999D01*
X141146642Y-105956341D01*
X141146370Y-106094857D01*
X141145882Y-106216734D01*
X141145124Y-106323160D01*
X141144038Y-106415322D01*
X141142569Y-106494409D01*
X141140660Y-106561608D01*
X141138256Y-106618107D01*
X141135299Y-106665093D01*
X141131734Y-106703755D01*
X141127505Y-106735280D01*
X141122554Y-106760855D01*
X141116827Y-106781670D01*
X141110267Y-106798911D01*
X141102817Y-106813765D01*
X141094421Y-106827422D01*
X141085024Y-106841069D01*
X141074568Y-106855893D01*
X141068477Y-106864783D01*
X141029704Y-106922400D01*
X141561268Y-106922400D01*
X141684517Y-106922365D01*
X141787013Y-106922215D01*
X141870580Y-106921878D01*
X141937044Y-106921286D01*
X141988229Y-106920367D01*
X142025959Y-106919051D01*
X142052060Y-106917269D01*
X142068356Y-106914951D01*
X142076672Y-106912026D01*
X142078832Y-106908424D01*
X142076661Y-106904075D01*
X142075465Y-106902645D01*
X142050315Y-106865573D01*
X142024417Y-106812772D01*
X142000808Y-106750770D01*
X141992539Y-106724357D01*
X141987922Y-106706416D01*
X141984021Y-106685355D01*
X141980752Y-106659089D01*
X141978034Y-106625532D01*
X141975785Y-106582599D01*
X141973923Y-106528204D01*
X141972364Y-106460262D01*
X141971028Y-106376688D01*
X141969831Y-106275395D01*
X141968692Y-106154300D01*
X141968315Y-106109600D01*
X141967298Y-105984449D01*
X141966540Y-105880082D01*
X141966097Y-105794707D01*
X141966030Y-105726533D01*
X141966395Y-105673765D01*
X141967252Y-105634614D01*
X141968659Y-105607285D01*
X141970675Y-105589986D01*
X141973357Y-105580926D01*
X141976764Y-105578312D01*
X141980956Y-105580351D01*
X141985429Y-105584667D01*
X141995784Y-105597602D01*
X142017842Y-105626676D01*
X142050043Y-105669759D01*
X142090826Y-105724718D01*
X142138630Y-105789423D01*
X142191895Y-105861742D01*
X142249060Y-105939544D01*
X142308563Y-106020698D01*
X142368845Y-106103072D01*
X142428345Y-106184536D01*
X142485502Y-106262957D01*
X142538755Y-106336204D01*
X142586543Y-106402147D01*
X142627307Y-106458654D01*
X142659484Y-106503593D01*
X142681515Y-106534834D01*
X142686083Y-106541466D01*
X142709004Y-106578369D01*
X142735812Y-106626359D01*
X142761211Y-106675897D01*
X142764432Y-106682577D01*
X142786110Y-106730772D01*
X142798696Y-106768334D01*
X142804426Y-106804160D01*
X142805544Y-106846200D01*
X142804910Y-106922400D01*
X143959349Y-106922400D01*
X143954347Y-106917257D01*
X144166489Y-106917257D01*
X144177396Y-106918334D01*
X144208589Y-106919335D01*
X144257777Y-106920235D01*
X144322667Y-106921010D01*
X144400970Y-106921637D01*
X144490393Y-106922091D01*
X144588644Y-106922349D01*
X144657555Y-106922400D01*
X144762548Y-106922180D01*
X144859390Y-106921548D01*
X144945893Y-106920549D01*
X145019868Y-106919227D01*
X145079126Y-106917626D01*
X145121480Y-106915791D01*
X145144740Y-106913765D01*
X145148622Y-106912493D01*
X145140924Y-106897591D01*
X145132926Y-106889560D01*
X145119754Y-106872434D01*
X145102515Y-106842183D01*
X145090593Y-106817622D01*
X145063955Y-106758711D01*
X145060880Y-105581845D01*
X145057805Y-104404978D01*
X144612147Y-104404978D01*
X144514330Y-104405142D01*
X144423936Y-104405611D01*
X144343370Y-104406347D01*
X144275038Y-104407316D01*
X144221344Y-104408480D01*
X144184695Y-104409803D01*
X144167496Y-104411249D01*
X144166489Y-104411702D01*
X144172398Y-104424659D01*
X144186728Y-104446908D01*
X144187775Y-104448391D01*
X144206562Y-104478544D01*
X144226209Y-104515375D01*
X144230108Y-104523511D01*
X144233644Y-104531940D01*
X144236770Y-104542059D01*
X144239514Y-104555260D01*
X144241908Y-104572938D01*
X144243981Y-104596484D01*
X144245765Y-104627293D01*
X144247288Y-104666757D01*
X144248581Y-104716269D01*
X144249674Y-104777223D01*
X144250597Y-104851011D01*
X144251381Y-104939028D01*
X144252055Y-105042665D01*
X144252650Y-105163316D01*
X144253195Y-105302374D01*
X144253721Y-105461232D01*
X144254255Y-105640089D01*
X144254794Y-105825207D01*
X144255228Y-105989145D01*
X144255491Y-106133303D01*
X144255516Y-106259079D01*
X144255235Y-106367871D01*
X144254581Y-106461077D01*
X144253486Y-106540097D01*
X144251882Y-106606328D01*
X144249703Y-106661170D01*
X144246881Y-106706021D01*
X144243349Y-106742278D01*
X144239039Y-106771341D01*
X144233883Y-106794609D01*
X144227815Y-106813479D01*
X144220767Y-106829351D01*
X144212671Y-106843622D01*
X144203460Y-106857691D01*
X144194960Y-106870158D01*
X144177824Y-106896452D01*
X144167678Y-106914037D01*
X144166489Y-106917257D01*
X143954347Y-106917257D01*
X143868185Y-106828669D01*
X143821388Y-106778775D01*
X143771101Y-106722295D01*
X143725056Y-106668026D01*
X143704631Y-106642673D01*
X143674193Y-106603128D01*
X143634138Y-106549916D01*
X143585639Y-106484667D01*
X143529865Y-106409011D01*
X143467989Y-106324577D01*
X143401181Y-106232994D01*
X143330613Y-106135892D01*
X143257455Y-106034901D01*
X143182879Y-105931650D01*
X143108056Y-105827768D01*
X143034157Y-105724885D01*
X142962354Y-105624631D01*
X142893816Y-105528636D01*
X142829716Y-105438527D01*
X142771225Y-105355936D01*
X142719514Y-105282492D01*
X142675753Y-105219824D01*
X142641115Y-105169561D01*
X142616770Y-105133334D01*
X142603889Y-105112771D01*
X142602131Y-105108668D01*
X142610090Y-105097342D01*
X142630885Y-105070162D01*
X142663153Y-105028829D01*
X142705530Y-104975044D01*
X142756653Y-104910506D01*
X142815159Y-104836918D01*
X142879686Y-104755978D01*
X142948869Y-104669388D01*
X143021347Y-104578848D01*
X143095754Y-104486060D01*
X143155483Y-104411702D01*
X143170730Y-104392722D01*
X143244910Y-104300537D01*
X143316931Y-104211204D01*
X143385431Y-104126424D01*
X143449045Y-104047898D01*
X143506412Y-103977326D01*
X143556167Y-103916409D01*
X143596948Y-103866847D01*
X143614112Y-103846178D01*
X143700404Y-103745516D01*
X143777003Y-103662259D01*
X143845817Y-103594438D01*
X143908752Y-103540089D01*
X143918133Y-103532722D01*
X143957644Y-103502117D01*
X142825884Y-103501867D01*
X142831173Y-103549844D01*
X142827870Y-103607188D01*
X142806339Y-103675463D01*
X142766365Y-103755212D01*
X142721057Y-103827495D01*
X142704839Y-103850140D01*
X142676786Y-103887696D01*
X142638570Y-103938021D01*
X142591863Y-103998973D01*
X142538339Y-104068411D01*
X142479669Y-104144194D01*
X142417525Y-104224180D01*
X142353579Y-104306228D01*
X142289505Y-104388196D01*
X142226973Y-104467943D01*
X142167657Y-104543327D01*
X142113229Y-104612207D01*
X142065361Y-104672442D01*
X142025725Y-104721889D01*
X141995994Y-104758408D01*
X141977839Y-104779858D01*
X141974780Y-104783156D01*
X141971921Y-104775149D01*
X141969707Y-104744855D01*
X141968143Y-104692556D01*
X141967233Y-104618531D01*
X141966980Y-104523063D01*
X141967387Y-104406434D01*
X141968296Y-104286445D01*
X141969618Y-104154333D01*
X141971143Y-104042594D01*
X141973119Y-103949025D01*
X141975794Y-103871419D01*
X141979418Y-103807574D01*
X141984239Y-103755283D01*
X141990506Y-103712344D01*
X141998468Y-103676551D01*
X142008373Y-103645700D01*
X142020469Y-103617586D01*
X142035007Y-103590005D01*
X142049689Y-103564966D01*
X142087686Y-103501867D01*
X141027803Y-103501867D01*
X140724966Y-103501867D01*
X140724999Y-103495617D01*
X140725805Y-103393544D01*
X140726830Y-103304633D01*
X140728100Y-103227941D01*
X140729640Y-103162527D01*
X140731476Y-103107449D01*
X140733633Y-103061765D01*
X140736137Y-103024534D01*
X140739013Y-102994813D01*
X140742287Y-102971662D01*
X140745985Y-102954139D01*
X140750131Y-102941301D01*
X140754753Y-102932208D01*
X140759874Y-102925918D01*
X140765522Y-102921488D01*
X140771721Y-102917978D01*
X140778496Y-102914445D01*
X140784492Y-102910876D01*
X140789725Y-102908300D01*
X140797901Y-102905972D01*
X140810114Y-102903878D01*
X140827459Y-102902007D01*
X140851031Y-102900347D01*
X140881923Y-102898884D01*
X140921232Y-102897608D01*
X140970050Y-102896504D01*
X141029473Y-102895561D01*
X141100596Y-102894767D01*
X141184512Y-102894109D01*
X141282317Y-102893575D01*
X141395106Y-102893153D01*
X141523971Y-102892829D01*
X141670009Y-102892592D01*
X141834314Y-102892430D01*
X142017980Y-102892330D01*
X142222103Y-102892280D01*
X142433247Y-102892267D01*
X144053600Y-102892267D01*
X144053600Y-102989054D01*
G37*
D12*
%TO.C,D5*%
X154210000Y-75955000D02*
X154210000Y-79045000D01*
X154210000Y-75955170D02*
G75*
G02*
X159760000Y-77500000I2560000J-1544830D01*
G01*
X159760000Y-77500000D02*
G75*
G02*
X154210000Y-79044830I-2990000J0D01*
G01*
X159270000Y-77500000D02*
G75*
G02*
X154270000Y-77500000I-2500000J0D01*
G01*
X154270000Y-77500000D02*
G75*
G02*
X159270000Y-77500000I2500000J0D01*
G01*
%TO.C,D3*%
X143000000Y-75840000D02*
X143000000Y-76860000D01*
X143000000Y-83320000D02*
X143000000Y-82300000D01*
X144470000Y-77640000D02*
X141530000Y-77640000D01*
X144470000Y-77760000D02*
X141530000Y-77760000D01*
X144470000Y-77880000D02*
X141530000Y-77880000D01*
X144470000Y-76860000D02*
X141530000Y-76860000D01*
X141530000Y-82300000D01*
X144470000Y-82300000D01*
X144470000Y-76860000D01*
%TO.C,D2*%
X136500000Y-90340000D02*
X136500000Y-91360000D01*
X136500000Y-97820000D02*
X136500000Y-96800000D01*
X137970000Y-92140000D02*
X135030000Y-92140000D01*
X137970000Y-92260000D02*
X135030000Y-92260000D01*
X137970000Y-92380000D02*
X135030000Y-92380000D01*
X137970000Y-91360000D02*
X135030000Y-91360000D01*
X135030000Y-96800000D01*
X137970000Y-96800000D01*
X137970000Y-91360000D01*
%TO.C,R2*%
X149730000Y-84130000D02*
X156270000Y-84130000D01*
X149730000Y-84460000D02*
X149730000Y-84130000D01*
X149730000Y-86540000D02*
X149730000Y-86870000D01*
X149730000Y-86870000D02*
X156270000Y-86870000D01*
X156270000Y-84130000D02*
X156270000Y-84460000D01*
X156270000Y-86870000D02*
X156270000Y-86540000D01*
%TO.C,C1*%
X157120000Y-95250000D02*
G75*
G02*
X148880000Y-95250000I-4120000J0D01*
G01*
X148880000Y-95250000D02*
G75*
G02*
X157120000Y-95250000I4120000J0D01*
G01*
%TO.C,R1*%
X148130000Y-74730000D02*
X148130000Y-81270000D01*
X148130000Y-81270000D02*
X148460000Y-81270000D01*
X148460000Y-74730000D02*
X148130000Y-74730000D01*
X150540000Y-74730000D02*
X150870000Y-74730000D01*
X150870000Y-74730000D02*
X150870000Y-81270000D01*
X150870000Y-81270000D02*
X150540000Y-81270000D01*
%TO.C,J2*%
X120430000Y-104790000D02*
X120430000Y-103790000D01*
X120430000Y-104790000D02*
X121430000Y-104790000D01*
X120730000Y-89130000D02*
X129370000Y-89130000D01*
X120730000Y-104480000D02*
X120730000Y-89130000D01*
X122300000Y-90090000D02*
X122300000Y-103510000D01*
X122300000Y-103510000D02*
X127600000Y-103510000D01*
X127600000Y-90090000D02*
X122300000Y-90090000D01*
X127600000Y-90840000D02*
X127600000Y-90090000D01*
X127600000Y-98480000D02*
X127600000Y-95160000D01*
X127600000Y-103510000D02*
X127600000Y-102760000D01*
X129370000Y-89130000D02*
X129370000Y-104490000D01*
X129370000Y-104490000D02*
X120730000Y-104490000D01*
X127599291Y-98479304D02*
G75*
G02*
X127600000Y-102760000I-2099291J-2140696D01*
G01*
X127600522Y-90840508D02*
G75*
G02*
X127600000Y-95160000I-2100522J-2159492D01*
G01*
%TO.C,D1*%
X136500000Y-75840000D02*
X136500000Y-76860000D01*
X136500000Y-83320000D02*
X136500000Y-82300000D01*
X137970000Y-77640000D02*
X135030000Y-77640000D01*
X137970000Y-77760000D02*
X135030000Y-77760000D01*
X137970000Y-77880000D02*
X135030000Y-77880000D01*
X137970000Y-76860000D02*
X135030000Y-76860000D01*
X135030000Y-82300000D01*
X137970000Y-82300000D01*
X137970000Y-76860000D01*
%TO.C,D4*%
X142500000Y-90340000D02*
X142500000Y-91360000D01*
X142500000Y-97820000D02*
X142500000Y-96800000D01*
X143970000Y-92140000D02*
X141030000Y-92140000D01*
X143970000Y-92260000D02*
X141030000Y-92260000D01*
X143970000Y-92380000D02*
X141030000Y-92380000D01*
X143970000Y-91360000D02*
X141030000Y-91360000D01*
X141030000Y-96800000D01*
X143970000Y-96800000D01*
X143970000Y-91360000D01*
%TD*%
M02*
