%TF.GenerationSoftware,KiCad,Pcbnew,9.0.6*%
%TF.CreationDate,2026-07-18T16:33:26+05:30*%
%TF.ProjectId,AC-DCconvertor,41432d44-4363-46f6-9e76-6572746f722e,rev?*%
%TF.SameCoordinates,Original*%
%TF.FileFunction,Copper,L2,Bot*%
%TF.FilePolarity,Positive*%
%FSLAX46Y46*%
G04 Gerber Fmt 4.6, Leading zero omitted, Abs format (unit mm)*
G04 Created by KiCad (PCBNEW 9.0.6) date 2026-07-18 16:33:26*
%MOMM*%
%LPD*%
G01*
G04 APERTURE LIST*
G04 Aperture macros list*
%AMRoundRect*
0 Rectangle with rounded corners*
0 $1 Rounding radius*
0 $2 $3 $4 $5 $6 $7 $8 $9 X,Y pos of 4 corners*
0 Add a 4 corners polygon primitive as box body*
4,1,4,$2,$3,$4,$5,$6,$7,$8,$9,$2,$3,0*
0 Add four circle primitives for the rounded corners*
1,1,$1+$1,$2,$3*
1,1,$1+$1,$4,$5*
1,1,$1+$1,$6,$7*
1,1,$1+$1,$8,$9*
0 Add four rect primitives between the rounded corners*
20,1,$1+$1,$2,$3,$4,$5,0*
20,1,$1+$1,$4,$5,$6,$7,0*
20,1,$1+$1,$6,$7,$8,$9,0*
20,1,$1+$1,$8,$9,$2,$3,0*%
G04 Aperture macros list end*
%TA.AperFunction,ComponentPad*%
%ADD10R,2.540000X2.540000*%
%TD*%
%TA.AperFunction,ComponentPad*%
%ADD11C,2.540000*%
%TD*%
%TA.AperFunction,ComponentPad*%
%ADD12R,1.800000X1.800000*%
%TD*%
%TA.AperFunction,ComponentPad*%
%ADD13C,1.800000*%
%TD*%
%TA.AperFunction,ComponentPad*%
%ADD14RoundRect,0.249999X-0.850001X0.850001X-0.850001X-0.850001X0.850001X-0.850001X0.850001X0.850001X0*%
%TD*%
%TA.AperFunction,ComponentPad*%
%ADD15C,2.200000*%
%TD*%
%TA.AperFunction,ComponentPad*%
%ADD16C,1.600000*%
%TD*%
%TA.AperFunction,Conductor*%
%ADD17C,1.000000*%
%TD*%
G04 APERTURE END LIST*
D10*
%TO.P,J1,1,Pin_1*%
%TO.N,Net-(D3-A)*%
X125500000Y-82120000D03*
D11*
%TO.P,J1,2,Pin_2*%
%TO.N,Net-(D1-A)*%
X125500000Y-74500000D03*
%TD*%
D12*
%TO.P,D5,1,K*%
%TO.N,GND*%
X155500000Y-77500000D03*
D13*
%TO.P,D5,2,A*%
%TO.N,Net-(D5-A)*%
X158040000Y-77500000D03*
%TD*%
D14*
%TO.P,D3,1,K*%
%TO.N,/+VE*%
X143000000Y-74500000D03*
D15*
%TO.P,D3,2,A*%
%TO.N,Net-(D3-A)*%
X143000000Y-84660000D03*
%TD*%
D14*
%TO.P,D2,1,K*%
%TO.N,Net-(D1-A)*%
X136500000Y-89000000D03*
D15*
%TO.P,D2,2,A*%
%TO.N,GND*%
X136500000Y-99160000D03*
%TD*%
D16*
%TO.P,R2,1*%
%TO.N,/+VE*%
X149190000Y-85500000D03*
%TO.P,R2,2*%
%TO.N,Net-(D5-A)*%
X156810000Y-85500000D03*
%TD*%
%TO.P,C1,1*%
%TO.N,/+VE*%
X153000000Y-93500000D03*
%TO.P,C1,2*%
%TO.N,GND*%
X153000000Y-97000000D03*
%TD*%
%TO.P,R1,1*%
%TO.N,/+VE*%
X149500000Y-74190000D03*
%TO.P,R1,2*%
%TO.N,GND*%
X149500000Y-81810000D03*
%TD*%
D10*
%TO.P,J2,1,Pin_1*%
%TO.N,/+VE*%
X125500000Y-100620000D03*
D11*
%TO.P,J2,2,Pin_2*%
%TO.N,GND*%
X125500000Y-93000000D03*
%TD*%
D14*
%TO.P,D1,1,K*%
%TO.N,/+VE*%
X136500000Y-74500000D03*
D15*
%TO.P,D1,2,A*%
%TO.N,Net-(D1-A)*%
X136500000Y-84660000D03*
%TD*%
D14*
%TO.P,D4,1,K*%
%TO.N,Net-(D3-A)*%
X142500000Y-89000000D03*
D15*
%TO.P,D4,2,A*%
%TO.N,GND*%
X142500000Y-99160000D03*
%TD*%
D17*
%TO.N,/+VE*%
X149190000Y-85500000D02*
X147999000Y-84309000D01*
X147999000Y-84309000D02*
X147999000Y-75691000D01*
X153000000Y-93500000D02*
X153000000Y-89310000D01*
X125500000Y-100620000D02*
X132620000Y-93500000D01*
X147999000Y-75691000D02*
X149500000Y-74190000D01*
X149500000Y-74190000D02*
X143310000Y-74190000D01*
X153000000Y-89310000D02*
X149190000Y-85500000D01*
X143000000Y-74500000D02*
X136500000Y-74500000D01*
X132620000Y-93500000D02*
X153000000Y-93500000D01*
X143310000Y-74190000D02*
X143000000Y-74500000D01*
%TO.N,Net-(D1-A)*%
X125500000Y-74500000D02*
X126340000Y-74500000D01*
X136500000Y-84660000D02*
X136500000Y-89000000D01*
X126340000Y-74500000D02*
X136500000Y-84660000D01*
%TO.N,Net-(D3-A)*%
X143000000Y-88500000D02*
X142500000Y-89000000D01*
X134181000Y-90801000D02*
X140699000Y-90801000D01*
X140699000Y-90801000D02*
X142500000Y-89000000D01*
X143000000Y-84660000D02*
X143000000Y-88500000D01*
X125500000Y-82120000D02*
X134181000Y-90801000D01*
%TO.N,Net-(D5-A)*%
X158040000Y-84270000D02*
X156810000Y-85500000D01*
X158040000Y-77500000D02*
X158040000Y-84270000D01*
%TD*%
%TA.AperFunction,Conductor*%
%TO.N,GND*%
G36*
X119038735Y-65020185D02*
G01*
X119084490Y-65072989D01*
X119094434Y-65142147D01*
X119065409Y-65205703D01*
X119037668Y-65229494D01*
X118934837Y-65294107D01*
X118697696Y-65483220D01*
X118483220Y-65697696D01*
X118294107Y-65934837D01*
X118132733Y-66191661D01*
X118001133Y-66464931D01*
X117900957Y-66751216D01*
X117900953Y-66751228D01*
X117833460Y-67046937D01*
X117833457Y-67046951D01*
X117799500Y-67348336D01*
X117799500Y-67651663D01*
X117833457Y-67953048D01*
X117833460Y-67953062D01*
X117900953Y-68248771D01*
X117900957Y-68248783D01*
X118001133Y-68535068D01*
X118132733Y-68808338D01*
X118132735Y-68808341D01*
X118294108Y-69065164D01*
X118483221Y-69302304D01*
X118697696Y-69516779D01*
X118934836Y-69705892D01*
X119191659Y-69867265D01*
X119464935Y-69998868D01*
X119679951Y-70074105D01*
X119751216Y-70099042D01*
X119751228Y-70099046D01*
X120046937Y-70166540D01*
X120046946Y-70166541D01*
X120046951Y-70166542D01*
X120247874Y-70189180D01*
X120348337Y-70200499D01*
X120348340Y-70200500D01*
X120348343Y-70200500D01*
X120651660Y-70200500D01*
X120651661Y-70200499D01*
X120805694Y-70183144D01*
X120953048Y-70166542D01*
X120953051Y-70166541D01*
X120953063Y-70166540D01*
X121248772Y-70099046D01*
X121535065Y-69998868D01*
X121808341Y-69867265D01*
X122065164Y-69705892D01*
X122302304Y-69516779D01*
X122516779Y-69302304D01*
X122705892Y-69065164D01*
X122867265Y-68808341D01*
X122998868Y-68535065D01*
X123099046Y-68248772D01*
X123166540Y-67953063D01*
X123200500Y-67651657D01*
X123200500Y-67348343D01*
X123189180Y-67247874D01*
X123166542Y-67046951D01*
X123166541Y-67046946D01*
X123166540Y-67046937D01*
X123099046Y-66751228D01*
X122998868Y-66464935D01*
X122867265Y-66191659D01*
X122705892Y-65934836D01*
X122516779Y-65697696D01*
X122302304Y-65483221D01*
X122065164Y-65294108D01*
X121962332Y-65229494D01*
X121916041Y-65177159D01*
X121905393Y-65108106D01*
X121933768Y-65044257D01*
X121992158Y-65005885D01*
X122028304Y-65000500D01*
X158971696Y-65000500D01*
X159038735Y-65020185D01*
X159084490Y-65072989D01*
X159094434Y-65142147D01*
X159065409Y-65205703D01*
X159037668Y-65229494D01*
X158934837Y-65294107D01*
X158697696Y-65483220D01*
X158483220Y-65697696D01*
X158294107Y-65934837D01*
X158132733Y-66191661D01*
X158001133Y-66464931D01*
X157900957Y-66751216D01*
X157900953Y-66751228D01*
X157833460Y-67046937D01*
X157833457Y-67046951D01*
X157799500Y-67348336D01*
X157799500Y-67651663D01*
X157833457Y-67953048D01*
X157833460Y-67953062D01*
X157900953Y-68248771D01*
X157900957Y-68248783D01*
X158001133Y-68535068D01*
X158132733Y-68808338D01*
X158132735Y-68808341D01*
X158294108Y-69065164D01*
X158483221Y-69302304D01*
X158697696Y-69516779D01*
X158934836Y-69705892D01*
X159191659Y-69867265D01*
X159464935Y-69998868D01*
X159679951Y-70074105D01*
X159751216Y-70099042D01*
X159751228Y-70099046D01*
X160046937Y-70166540D01*
X160046946Y-70166541D01*
X160046951Y-70166542D01*
X160247874Y-70189180D01*
X160348337Y-70200499D01*
X160348340Y-70200500D01*
X160348343Y-70200500D01*
X160651660Y-70200500D01*
X160651661Y-70200499D01*
X160805694Y-70183144D01*
X160953048Y-70166542D01*
X160953051Y-70166541D01*
X160953063Y-70166540D01*
X161248772Y-70099046D01*
X161535065Y-69998868D01*
X161808341Y-69867265D01*
X162065164Y-69705892D01*
X162302304Y-69516779D01*
X162516779Y-69302304D01*
X162705892Y-69065164D01*
X162867265Y-68808341D01*
X162998868Y-68535065D01*
X163099046Y-68248772D01*
X163166540Y-67953063D01*
X163200500Y-67651657D01*
X163200500Y-67348343D01*
X163189180Y-67247874D01*
X163166542Y-67046951D01*
X163166541Y-67046946D01*
X163166540Y-67046937D01*
X163099046Y-66751228D01*
X162998868Y-66464935D01*
X162867265Y-66191659D01*
X162705892Y-65934836D01*
X162516779Y-65697696D01*
X162302304Y-65483221D01*
X162065164Y-65294108D01*
X161962332Y-65229494D01*
X161916041Y-65177159D01*
X161905393Y-65108106D01*
X161933768Y-65044257D01*
X161992158Y-65005885D01*
X162028304Y-65000500D01*
X163375500Y-65000500D01*
X163442539Y-65020185D01*
X163488294Y-65072989D01*
X163499500Y-65124500D01*
X163499500Y-111575500D01*
X163479815Y-111642539D01*
X163427011Y-111688294D01*
X163375500Y-111699500D01*
X161661728Y-111699500D01*
X161594689Y-111679815D01*
X161548934Y-111627011D01*
X161538990Y-111557853D01*
X161568015Y-111494297D01*
X161607926Y-111463780D01*
X161633648Y-111451392D01*
X161808341Y-111367265D01*
X162065164Y-111205892D01*
X162302304Y-111016779D01*
X162516779Y-110802304D01*
X162705892Y-110565164D01*
X162867265Y-110308341D01*
X162998868Y-110035065D01*
X163099046Y-109748772D01*
X163166540Y-109453063D01*
X163200500Y-109151657D01*
X163200500Y-108848343D01*
X163189180Y-108747874D01*
X163166542Y-108546951D01*
X163166541Y-108546946D01*
X163166540Y-108546937D01*
X163099046Y-108251228D01*
X162998868Y-107964935D01*
X162867265Y-107691659D01*
X162705892Y-107434836D01*
X162516779Y-107197696D01*
X162302304Y-106983221D01*
X162065164Y-106794108D01*
X161808341Y-106632735D01*
X161808338Y-106632733D01*
X161535068Y-106501133D01*
X161248783Y-106400957D01*
X161248771Y-106400953D01*
X161020556Y-106348864D01*
X160953063Y-106333460D01*
X160953060Y-106333459D01*
X160953048Y-106333457D01*
X160651663Y-106299500D01*
X160651657Y-106299500D01*
X160348343Y-106299500D01*
X160348336Y-106299500D01*
X160046951Y-106333457D01*
X160046937Y-106333460D01*
X159751228Y-106400953D01*
X159751216Y-106400957D01*
X159464931Y-106501133D01*
X159191661Y-106632733D01*
X158934837Y-106794107D01*
X158697696Y-106983220D01*
X158483220Y-107197696D01*
X158294107Y-107434837D01*
X158132733Y-107691661D01*
X158001133Y-107964931D01*
X157900957Y-108251216D01*
X157900953Y-108251228D01*
X157833460Y-108546937D01*
X157833457Y-108546951D01*
X157799500Y-108848336D01*
X157799500Y-109151663D01*
X157833457Y-109453048D01*
X157833460Y-109453062D01*
X157900953Y-109748771D01*
X157900957Y-109748783D01*
X158001133Y-110035068D01*
X158132733Y-110308338D01*
X158132735Y-110308341D01*
X158294108Y-110565164D01*
X158483221Y-110802304D01*
X158697696Y-111016779D01*
X158934836Y-111205892D01*
X159191659Y-111367265D01*
X159191661Y-111367266D01*
X159392074Y-111463780D01*
X159443933Y-111510602D01*
X159462246Y-111578029D01*
X159441198Y-111644653D01*
X159387472Y-111689322D01*
X159338272Y-111699500D01*
X121661728Y-111699500D01*
X121594689Y-111679815D01*
X121548934Y-111627011D01*
X121538990Y-111557853D01*
X121568015Y-111494297D01*
X121607926Y-111463780D01*
X121633648Y-111451392D01*
X121808341Y-111367265D01*
X122065164Y-111205892D01*
X122302304Y-111016779D01*
X122516779Y-110802304D01*
X122705892Y-110565164D01*
X122867265Y-110308341D01*
X122998868Y-110035065D01*
X123099046Y-109748772D01*
X123166540Y-109453063D01*
X123200500Y-109151657D01*
X123200500Y-108848343D01*
X123189180Y-108747874D01*
X123166542Y-108546951D01*
X123166541Y-108546946D01*
X123166540Y-108546937D01*
X123099046Y-108251228D01*
X122998868Y-107964935D01*
X122867265Y-107691659D01*
X122705892Y-107434836D01*
X122516779Y-107197696D01*
X122302304Y-106983221D01*
X122065164Y-106794108D01*
X121808341Y-106632735D01*
X121808338Y-106632733D01*
X121535068Y-106501133D01*
X121248783Y-106400957D01*
X121248771Y-106400953D01*
X121020556Y-106348864D01*
X120953063Y-106333460D01*
X120953060Y-106333459D01*
X120953048Y-106333457D01*
X120651663Y-106299500D01*
X120651657Y-106299500D01*
X120348343Y-106299500D01*
X120348336Y-106299500D01*
X120046951Y-106333457D01*
X120046937Y-106333460D01*
X119751228Y-106400953D01*
X119751216Y-106400957D01*
X119464931Y-106501133D01*
X119191661Y-106632733D01*
X118934837Y-106794107D01*
X118697696Y-106983220D01*
X118483220Y-107197696D01*
X118294107Y-107434837D01*
X118132733Y-107691661D01*
X118001133Y-107964931D01*
X117900957Y-108251216D01*
X117900953Y-108251228D01*
X117833460Y-108546937D01*
X117833457Y-108546951D01*
X117799500Y-108848336D01*
X117799500Y-109151663D01*
X117833457Y-109453048D01*
X117833460Y-109453062D01*
X117900953Y-109748771D01*
X117900957Y-109748783D01*
X118001133Y-110035068D01*
X118132733Y-110308338D01*
X118132735Y-110308341D01*
X118294108Y-110565164D01*
X118483221Y-110802304D01*
X118697696Y-111016779D01*
X118934836Y-111205892D01*
X119191659Y-111367265D01*
X119191661Y-111367266D01*
X119392074Y-111463780D01*
X119443933Y-111510602D01*
X119462246Y-111578029D01*
X119441198Y-111644653D01*
X119387472Y-111689322D01*
X119338272Y-111699500D01*
X117624500Y-111699500D01*
X117557461Y-111679815D01*
X117511706Y-111627011D01*
X117500500Y-111575500D01*
X117500500Y-99302135D01*
X123729500Y-99302135D01*
X123729500Y-101937870D01*
X123729501Y-101937876D01*
X123735908Y-101997483D01*
X123786202Y-102132328D01*
X123786206Y-102132335D01*
X123872452Y-102247544D01*
X123872455Y-102247547D01*
X123987664Y-102333793D01*
X123987671Y-102333797D01*
X124122517Y-102384091D01*
X124122516Y-102384091D01*
X124129444Y-102384835D01*
X124182127Y-102390500D01*
X126817872Y-102390499D01*
X126877483Y-102384091D01*
X127012331Y-102333796D01*
X127127546Y-102247546D01*
X127213796Y-102132331D01*
X127264091Y-101997483D01*
X127270500Y-101937873D01*
X127270499Y-100315780D01*
X127290184Y-100248742D01*
X127306813Y-100228105D01*
X128500848Y-99034071D01*
X134900000Y-99034071D01*
X134900000Y-99285928D01*
X134939397Y-99534669D01*
X135017219Y-99774184D01*
X135131557Y-99998583D01*
X135205748Y-100100697D01*
X135205748Y-100100698D01*
X135976212Y-99330234D01*
X135987482Y-99372292D01*
X136059890Y-99497708D01*
X136162292Y-99600110D01*
X136287708Y-99672518D01*
X136329765Y-99683787D01*
X135559300Y-100454250D01*
X135661416Y-100528442D01*
X135885815Y-100642780D01*
X136125330Y-100720602D01*
X136374072Y-100760000D01*
X136625928Y-100760000D01*
X136874669Y-100720602D01*
X137114184Y-100642780D01*
X137338575Y-100528446D01*
X137338581Y-100528442D01*
X137440697Y-100454250D01*
X137440698Y-100454250D01*
X136670234Y-99683787D01*
X136712292Y-99672518D01*
X136837708Y-99600110D01*
X136940110Y-99497708D01*
X137012518Y-99372292D01*
X137023787Y-99330235D01*
X137794250Y-100100698D01*
X137794250Y-100100697D01*
X137868442Y-99998581D01*
X137868446Y-99998575D01*
X137982780Y-99774184D01*
X138060602Y-99534669D01*
X138100000Y-99285928D01*
X138100000Y-99034071D01*
X140900000Y-99034071D01*
X140900000Y-99285928D01*
X140939397Y-99534669D01*
X141017219Y-99774184D01*
X141131557Y-99998583D01*
X141205748Y-100100697D01*
X141205748Y-100100698D01*
X141976212Y-99330234D01*
X141987482Y-99372292D01*
X142059890Y-99497708D01*
X142162292Y-99600110D01*
X142287708Y-99672518D01*
X142329765Y-99683787D01*
X141559300Y-100454250D01*
X141661416Y-100528442D01*
X141885815Y-100642780D01*
X142125330Y-100720602D01*
X142374072Y-100760000D01*
X142625928Y-100760000D01*
X142874669Y-100720602D01*
X143114184Y-100642780D01*
X143338575Y-100528446D01*
X143338581Y-100528442D01*
X143440697Y-100454250D01*
X143440698Y-100454250D01*
X142670234Y-99683787D01*
X142712292Y-99672518D01*
X142837708Y-99600110D01*
X142940110Y-99497708D01*
X143012518Y-99372292D01*
X143023787Y-99330235D01*
X143794250Y-100100698D01*
X143794250Y-100100697D01*
X143868442Y-99998581D01*
X143868446Y-99998575D01*
X143982780Y-99774184D01*
X144060602Y-99534669D01*
X144100000Y-99285928D01*
X144100000Y-99034071D01*
X144060602Y-98785330D01*
X143982780Y-98545815D01*
X143868442Y-98321416D01*
X143794250Y-98219301D01*
X143794250Y-98219300D01*
X143023787Y-98989764D01*
X143012518Y-98947708D01*
X142940110Y-98822292D01*
X142837708Y-98719890D01*
X142712292Y-98647482D01*
X142670233Y-98636212D01*
X143361913Y-97944534D01*
X143440698Y-97865748D01*
X143338583Y-97791557D01*
X143114184Y-97677219D01*
X142874669Y-97599397D01*
X142625928Y-97560000D01*
X142374072Y-97560000D01*
X142125330Y-97599397D01*
X141885815Y-97677219D01*
X141661413Y-97791559D01*
X141559301Y-97865747D01*
X141559300Y-97865748D01*
X142329765Y-98636212D01*
X142287708Y-98647482D01*
X142162292Y-98719890D01*
X142059890Y-98822292D01*
X141987482Y-98947708D01*
X141976212Y-98989765D01*
X141205748Y-98219300D01*
X141205747Y-98219301D01*
X141131559Y-98321413D01*
X141017219Y-98545815D01*
X140939397Y-98785330D01*
X140900000Y-99034071D01*
X138100000Y-99034071D01*
X138060602Y-98785330D01*
X137982780Y-98545815D01*
X137868442Y-98321416D01*
X137794250Y-98219301D01*
X137794250Y-98219300D01*
X137023787Y-98989764D01*
X137012518Y-98947708D01*
X136940110Y-98822292D01*
X136837708Y-98719890D01*
X136712292Y-98647482D01*
X136670232Y-98636212D01*
X137440698Y-97865748D01*
X137338583Y-97791557D01*
X137114184Y-97677219D01*
X136874669Y-97599397D01*
X136625928Y-97560000D01*
X136374072Y-97560000D01*
X136125330Y-97599397D01*
X135885815Y-97677219D01*
X135661413Y-97791559D01*
X135559301Y-97865747D01*
X135559300Y-97865748D01*
X136329765Y-98636212D01*
X136287708Y-98647482D01*
X136162292Y-98719890D01*
X136059890Y-98822292D01*
X135987482Y-98947708D01*
X135976212Y-98989765D01*
X135205748Y-98219300D01*
X135205747Y-98219301D01*
X135131559Y-98321413D01*
X135017219Y-98545815D01*
X134939397Y-98785330D01*
X134900000Y-99034071D01*
X128500848Y-99034071D01*
X130637238Y-96897682D01*
X151700000Y-96897682D01*
X151700000Y-97102317D01*
X151732009Y-97304417D01*
X151795244Y-97499031D01*
X151888141Y-97681350D01*
X151888147Y-97681359D01*
X151920523Y-97725921D01*
X151920524Y-97725922D01*
X152600000Y-97046446D01*
X152600000Y-97052661D01*
X152627259Y-97154394D01*
X152679920Y-97245606D01*
X152754394Y-97320080D01*
X152845606Y-97372741D01*
X152947339Y-97400000D01*
X152953553Y-97400000D01*
X152274076Y-98079474D01*
X152318650Y-98111859D01*
X152500968Y-98204755D01*
X152695582Y-98267990D01*
X152897683Y-98300000D01*
X153102317Y-98300000D01*
X153304417Y-98267990D01*
X153499031Y-98204755D01*
X153681349Y-98111859D01*
X153725921Y-98079474D01*
X153046447Y-97400000D01*
X153052661Y-97400000D01*
X153154394Y-97372741D01*
X153245606Y-97320080D01*
X153320080Y-97245606D01*
X153372741Y-97154394D01*
X153400000Y-97052661D01*
X153400000Y-97046447D01*
X154079474Y-97725921D01*
X154111859Y-97681349D01*
X154204755Y-97499031D01*
X154267990Y-97304417D01*
X154300000Y-97102317D01*
X154300000Y-96897682D01*
X154267990Y-96695582D01*
X154204755Y-96500968D01*
X154111859Y-96318650D01*
X154079474Y-96274077D01*
X154079474Y-96274076D01*
X153400000Y-96953551D01*
X153400000Y-96947339D01*
X153372741Y-96845606D01*
X153320080Y-96754394D01*
X153245606Y-96679920D01*
X153154394Y-96627259D01*
X153052661Y-96600000D01*
X153046446Y-96600000D01*
X153725922Y-95920524D01*
X153725921Y-95920523D01*
X153681359Y-95888147D01*
X153681350Y-95888141D01*
X153499031Y-95795244D01*
X153304417Y-95732009D01*
X153102317Y-95700000D01*
X152897683Y-95700000D01*
X152695582Y-95732009D01*
X152500968Y-95795244D01*
X152318644Y-95888143D01*
X152274077Y-95920523D01*
X152274077Y-95920524D01*
X152953554Y-96600000D01*
X152947339Y-96600000D01*
X152845606Y-96627259D01*
X152754394Y-96679920D01*
X152679920Y-96754394D01*
X152627259Y-96845606D01*
X152600000Y-96947339D01*
X152600000Y-96953553D01*
X151920524Y-96274077D01*
X151920523Y-96274077D01*
X151888143Y-96318644D01*
X151795244Y-96500968D01*
X151732009Y-96695582D01*
X151700000Y-96897682D01*
X130637238Y-96897682D01*
X132998102Y-94536819D01*
X133059425Y-94503334D01*
X133085783Y-94500500D01*
X152124238Y-94500500D01*
X152191277Y-94520185D01*
X152197119Y-94524179D01*
X152318390Y-94612287D01*
X152434607Y-94671503D01*
X152500776Y-94705218D01*
X152500778Y-94705218D01*
X152500781Y-94705220D01*
X152605137Y-94739127D01*
X152695465Y-94768477D01*
X152796557Y-94784488D01*
X152897648Y-94800500D01*
X152897649Y-94800500D01*
X153102351Y-94800500D01*
X153102352Y-94800500D01*
X153304534Y-94768477D01*
X153499219Y-94705220D01*
X153681610Y-94612287D01*
X153808379Y-94520185D01*
X153847213Y-94491971D01*
X153847215Y-94491968D01*
X153847219Y-94491966D01*
X153991966Y-94347219D01*
X153991968Y-94347215D01*
X153991971Y-94347213D01*
X154044732Y-94274590D01*
X154112287Y-94181610D01*
X154205220Y-93999219D01*
X154268477Y-93804534D01*
X154300500Y-93602352D01*
X154300500Y-93397648D01*
X154292326Y-93346040D01*
X154268477Y-93195465D01*
X154205218Y-93000776D01*
X154145705Y-92883977D01*
X154112287Y-92818390D01*
X154074695Y-92766649D01*
X154024182Y-92697122D01*
X154000702Y-92631316D01*
X154000500Y-92624237D01*
X154000500Y-89211458D01*
X154000499Y-89211457D01*
X153985845Y-89137782D01*
X153962052Y-89018165D01*
X153886632Y-88836086D01*
X153886631Y-88836085D01*
X153886628Y-88836079D01*
X153777140Y-88672219D01*
X153777137Y-88672215D01*
X150585377Y-85480457D01*
X150516717Y-85411797D01*
X150483232Y-85350474D01*
X150481925Y-85343513D01*
X150458477Y-85195466D01*
X150458477Y-85195465D01*
X150422954Y-85086139D01*
X150395220Y-85000781D01*
X150395218Y-85000778D01*
X150395218Y-85000776D01*
X150361503Y-84934607D01*
X150302287Y-84818390D01*
X150276517Y-84782920D01*
X150181971Y-84652786D01*
X150037213Y-84508028D01*
X149871613Y-84387715D01*
X149871612Y-84387714D01*
X149871610Y-84387713D01*
X149814653Y-84358691D01*
X149689223Y-84294781D01*
X149494535Y-84231523D01*
X149346483Y-84208073D01*
X149283349Y-84178143D01*
X149278201Y-84173281D01*
X149035819Y-83930898D01*
X149002334Y-83869575D01*
X148999500Y-83843217D01*
X148999500Y-83184950D01*
X149019185Y-83117911D01*
X149071989Y-83072156D01*
X149141147Y-83062212D01*
X149161820Y-83067020D01*
X149195575Y-83077988D01*
X149195581Y-83077989D01*
X149397683Y-83110000D01*
X149602317Y-83110000D01*
X149804417Y-83077990D01*
X149999031Y-83014755D01*
X150181349Y-82921859D01*
X150225921Y-82889474D01*
X149546447Y-82210000D01*
X149552661Y-82210000D01*
X149654394Y-82182741D01*
X149745606Y-82130080D01*
X149820080Y-82055606D01*
X149872741Y-81964394D01*
X149900000Y-81862661D01*
X149900000Y-81856448D01*
X150579474Y-82535922D01*
X150579474Y-82535921D01*
X150611859Y-82491349D01*
X150704755Y-82309031D01*
X150767990Y-82114417D01*
X150800000Y-81912317D01*
X150800000Y-81707682D01*
X150767990Y-81505582D01*
X150704755Y-81310968D01*
X150611859Y-81128650D01*
X150579474Y-81084077D01*
X150579474Y-81084076D01*
X149900000Y-81763551D01*
X149900000Y-81757339D01*
X149872741Y-81655606D01*
X149820080Y-81564394D01*
X149745606Y-81489920D01*
X149654394Y-81437259D01*
X149552661Y-81410000D01*
X149546446Y-81410000D01*
X150225922Y-80730524D01*
X150225921Y-80730523D01*
X150181359Y-80698147D01*
X150181350Y-80698141D01*
X149999031Y-80605244D01*
X149804417Y-80542009D01*
X149602317Y-80510000D01*
X149397683Y-80510000D01*
X149195581Y-80542010D01*
X149195574Y-80542011D01*
X149161817Y-80552980D01*
X149091976Y-80554975D01*
X149032144Y-80518894D01*
X149001316Y-80456193D01*
X148999500Y-80435049D01*
X148999500Y-76552155D01*
X154100000Y-76552155D01*
X154100000Y-77250000D01*
X155124722Y-77250000D01*
X155080667Y-77326306D01*
X155050000Y-77440756D01*
X155050000Y-77559244D01*
X155080667Y-77673694D01*
X155124722Y-77750000D01*
X154100000Y-77750000D01*
X154100000Y-78447844D01*
X154106401Y-78507372D01*
X154106403Y-78507379D01*
X154156645Y-78642086D01*
X154156649Y-78642093D01*
X154242809Y-78757187D01*
X154242812Y-78757190D01*
X154357906Y-78843350D01*
X154357913Y-78843354D01*
X154492620Y-78893596D01*
X154492627Y-78893598D01*
X154552155Y-78899999D01*
X154552172Y-78900000D01*
X155250000Y-78900000D01*
X155250000Y-77875277D01*
X155326306Y-77919333D01*
X155440756Y-77950000D01*
X155559244Y-77950000D01*
X155673694Y-77919333D01*
X155750000Y-77875277D01*
X155750000Y-78900000D01*
X156447828Y-78900000D01*
X156447844Y-78899999D01*
X156507372Y-78893598D01*
X156507379Y-78893596D01*
X156642086Y-78843354D01*
X156642093Y-78843350D01*
X156757187Y-78757190D01*
X156757190Y-78757187D01*
X156816234Y-78678316D01*
X156872167Y-78636445D01*
X156941859Y-78631461D01*
X157003182Y-78664947D01*
X157036666Y-78726270D01*
X157039500Y-78752627D01*
X157039500Y-83804217D01*
X157019815Y-83871256D01*
X157003181Y-83891898D01*
X156721797Y-84173281D01*
X156660474Y-84206766D01*
X156653515Y-84208073D01*
X156505468Y-84231522D01*
X156310778Y-84294781D01*
X156128386Y-84387715D01*
X155962786Y-84508028D01*
X155818028Y-84652786D01*
X155697715Y-84818386D01*
X155604781Y-85000776D01*
X155541522Y-85195465D01*
X155509500Y-85397648D01*
X155509500Y-85602351D01*
X155541522Y-85804534D01*
X155604781Y-85999223D01*
X155697715Y-86181613D01*
X155818028Y-86347213D01*
X155962786Y-86491971D01*
X156117749Y-86604556D01*
X156128390Y-86612287D01*
X156244607Y-86671503D01*
X156310776Y-86705218D01*
X156310778Y-86705218D01*
X156310781Y-86705220D01*
X156415137Y-86739127D01*
X156505465Y-86768477D01*
X156606557Y-86784488D01*
X156707648Y-86800500D01*
X156707649Y-86800500D01*
X156912351Y-86800500D01*
X156912352Y-86800500D01*
X157114534Y-86768477D01*
X157309219Y-86705220D01*
X157491610Y-86612287D01*
X157584590Y-86544732D01*
X157657213Y-86491971D01*
X157657215Y-86491968D01*
X157657219Y-86491966D01*
X157801966Y-86347219D01*
X157801968Y-86347215D01*
X157801971Y-86347213D01*
X157854732Y-86274590D01*
X157922287Y-86181610D01*
X158015220Y-85999219D01*
X158078477Y-85804534D01*
X158101925Y-85656483D01*
X158131854Y-85593350D01*
X158136698Y-85588220D01*
X158817140Y-84907781D01*
X158926632Y-84743914D01*
X159002052Y-84561835D01*
X159040500Y-84368540D01*
X159040500Y-84171459D01*
X159040500Y-78531469D01*
X159060185Y-78464430D01*
X159076819Y-78443788D01*
X159108242Y-78412365D01*
X159237815Y-78234022D01*
X159337895Y-78037606D01*
X159406015Y-77827951D01*
X159440500Y-77610222D01*
X159440500Y-77389778D01*
X159406015Y-77172049D01*
X159371955Y-77067221D01*
X159337896Y-76962396D01*
X159337895Y-76962393D01*
X159303237Y-76894375D01*
X159237815Y-76765978D01*
X159221260Y-76743192D01*
X159108247Y-76587641D01*
X159108243Y-76587636D01*
X158952363Y-76431756D01*
X158952358Y-76431752D01*
X158774025Y-76302187D01*
X158774024Y-76302186D01*
X158774022Y-76302185D01*
X158711096Y-76270122D01*
X158577606Y-76202104D01*
X158577603Y-76202103D01*
X158367952Y-76133985D01*
X158259086Y-76116742D01*
X158150222Y-76099500D01*
X157929778Y-76099500D01*
X157857201Y-76110995D01*
X157712047Y-76133985D01*
X157502396Y-76202103D01*
X157502393Y-76202104D01*
X157305974Y-76302187D01*
X157127641Y-76431752D01*
X157127636Y-76431756D01*
X157077075Y-76482317D01*
X157015752Y-76515801D01*
X156946060Y-76510816D01*
X156890127Y-76468945D01*
X156873213Y-76437968D01*
X156843354Y-76357913D01*
X156843350Y-76357906D01*
X156757190Y-76242812D01*
X156757187Y-76242809D01*
X156642093Y-76156649D01*
X156642086Y-76156645D01*
X156507379Y-76106403D01*
X156507372Y-76106401D01*
X156447844Y-76100000D01*
X155750000Y-76100000D01*
X155750000Y-77124722D01*
X155673694Y-77080667D01*
X155559244Y-77050000D01*
X155440756Y-77050000D01*
X155326306Y-77080667D01*
X155250000Y-77124722D01*
X155250000Y-76100000D01*
X154552155Y-76100000D01*
X154492627Y-76106401D01*
X154492620Y-76106403D01*
X154357913Y-76156645D01*
X154357906Y-76156649D01*
X154242812Y-76242809D01*
X154242809Y-76242812D01*
X154156649Y-76357906D01*
X154156645Y-76357913D01*
X154106403Y-76492620D01*
X154106401Y-76492627D01*
X154100000Y-76552155D01*
X148999500Y-76552155D01*
X148999500Y-76156781D01*
X149019185Y-76089742D01*
X149035815Y-76069104D01*
X149588203Y-75516715D01*
X149649524Y-75483232D01*
X149656473Y-75481927D01*
X149804534Y-75458477D01*
X149999219Y-75395220D01*
X150181610Y-75302287D01*
X150308379Y-75210185D01*
X150347213Y-75181971D01*
X150347215Y-75181968D01*
X150347219Y-75181966D01*
X150491966Y-75037219D01*
X150491968Y-75037215D01*
X150491971Y-75037213D01*
X150544732Y-74964590D01*
X150612287Y-74871610D01*
X150705220Y-74689219D01*
X150768477Y-74494534D01*
X150800500Y-74292352D01*
X150800500Y-74087648D01*
X150777037Y-73939509D01*
X150768477Y-73885465D01*
X150739127Y-73795137D01*
X150705220Y-73690781D01*
X150705218Y-73690778D01*
X150705218Y-73690776D01*
X150671503Y-73624607D01*
X150612287Y-73508390D01*
X150591526Y-73479815D01*
X150491971Y-73342786D01*
X150347213Y-73198028D01*
X150181613Y-73077715D01*
X150181612Y-73077714D01*
X150181610Y-73077713D01*
X150124653Y-73048691D01*
X149999223Y-72984781D01*
X149804534Y-72921522D01*
X149629995Y-72893878D01*
X149602352Y-72889500D01*
X149397648Y-72889500D01*
X149373329Y-72893351D01*
X149195465Y-72921522D01*
X149000776Y-72984781D01*
X148818386Y-73077715D01*
X148697123Y-73165818D01*
X148631317Y-73189298D01*
X148624238Y-73189500D01*
X144502230Y-73189500D01*
X144435191Y-73169815D01*
X144414549Y-73153181D01*
X144318657Y-73057289D01*
X144318656Y-73057288D01*
X144169335Y-72965186D01*
X144002798Y-72910001D01*
X144002796Y-72910000D01*
X143900017Y-72899500D01*
X143900010Y-72899500D01*
X142099990Y-72899500D01*
X142099982Y-72899500D01*
X141997203Y-72910000D01*
X141997202Y-72910001D01*
X141914669Y-72937349D01*
X141830667Y-72965185D01*
X141830662Y-72965187D01*
X141681342Y-73057289D01*
X141557289Y-73181342D01*
X141465187Y-73330662D01*
X141465186Y-73330665D01*
X141437403Y-73414505D01*
X141397632Y-73471949D01*
X141333117Y-73498772D01*
X141319699Y-73499500D01*
X138180301Y-73499500D01*
X138113262Y-73479815D01*
X138067507Y-73427011D01*
X138062598Y-73414512D01*
X138034814Y-73330665D01*
X137942712Y-73181344D01*
X137818656Y-73057288D01*
X137669335Y-72965186D01*
X137502798Y-72910001D01*
X137502796Y-72910000D01*
X137400017Y-72899500D01*
X137400010Y-72899500D01*
X135599990Y-72899500D01*
X135599982Y-72899500D01*
X135497203Y-72910000D01*
X135497202Y-72910001D01*
X135414669Y-72937349D01*
X135330667Y-72965185D01*
X135330662Y-72965187D01*
X135181342Y-73057289D01*
X135057289Y-73181342D01*
X134965187Y-73330662D01*
X134965186Y-73330665D01*
X134910001Y-73497202D01*
X134910001Y-73497203D01*
X134910000Y-73497203D01*
X134899500Y-73599982D01*
X134899500Y-75400017D01*
X134910000Y-75502796D01*
X134910001Y-75502798D01*
X134965186Y-75669335D01*
X135057288Y-75818656D01*
X135181344Y-75942712D01*
X135330665Y-76034814D01*
X135497202Y-76089999D01*
X135599990Y-76100500D01*
X135599995Y-76100500D01*
X137400005Y-76100500D01*
X137400010Y-76100500D01*
X137502798Y-76089999D01*
X137669335Y-76034814D01*
X137818656Y-75942712D01*
X137942712Y-75818656D01*
X138034814Y-75669335D01*
X138062596Y-75585494D01*
X138102368Y-75528051D01*
X138166883Y-75501228D01*
X138180301Y-75500500D01*
X141319699Y-75500500D01*
X141386738Y-75520185D01*
X141432493Y-75572989D01*
X141437401Y-75585487D01*
X141465186Y-75669335D01*
X141557288Y-75818656D01*
X141681344Y-75942712D01*
X141830665Y-76034814D01*
X141997202Y-76089999D01*
X142099990Y-76100500D01*
X142099995Y-76100500D01*
X143900005Y-76100500D01*
X143900010Y-76100500D01*
X144002798Y-76089999D01*
X144169335Y-76034814D01*
X144318656Y-75942712D01*
X144442712Y-75818656D01*
X144534814Y-75669335D01*
X144589999Y-75502798D01*
X144600500Y-75400010D01*
X144600500Y-75314500D01*
X144620185Y-75247461D01*
X144672989Y-75201706D01*
X144724500Y-75190500D01*
X146937801Y-75190500D01*
X146969277Y-75199742D01*
X147001072Y-75207857D01*
X147002637Y-75209538D01*
X147004840Y-75210185D01*
X147026314Y-75234967D01*
X147048684Y-75258993D01*
X147049092Y-75261254D01*
X147050595Y-75262989D01*
X147055262Y-75295452D01*
X147061091Y-75327752D01*
X147060333Y-75330719D01*
X147060539Y-75332147D01*
X147052363Y-75361950D01*
X147042140Y-75386632D01*
X147042139Y-75386635D01*
X147036949Y-75399163D01*
X147036947Y-75399171D01*
X146998500Y-75592454D01*
X146998500Y-84407544D01*
X147036947Y-84600828D01*
X147036949Y-84600836D01*
X147050730Y-84634106D01*
X147050730Y-84634107D01*
X147112364Y-84782907D01*
X147112371Y-84782920D01*
X147221859Y-84946780D01*
X147221860Y-84946781D01*
X147221861Y-84946782D01*
X147361218Y-85086139D01*
X147361219Y-85086139D01*
X147368286Y-85093206D01*
X147368285Y-85093206D01*
X147368289Y-85093209D01*
X147863281Y-85588201D01*
X147896766Y-85649524D01*
X147898073Y-85656483D01*
X147921523Y-85804535D01*
X147984781Y-85999223D01*
X148077715Y-86181613D01*
X148198028Y-86347213D01*
X148342786Y-86491971D01*
X148497749Y-86604556D01*
X148508390Y-86612287D01*
X148624607Y-86671503D01*
X148690776Y-86705218D01*
X148690778Y-86705218D01*
X148690781Y-86705220D01*
X148795137Y-86739127D01*
X148885465Y-86768477D01*
X148962966Y-86780751D01*
X149033513Y-86791925D01*
X149096648Y-86821854D01*
X149101797Y-86826717D01*
X151963181Y-89688101D01*
X151996666Y-89749424D01*
X151999500Y-89775782D01*
X151999500Y-92375500D01*
X151979815Y-92442539D01*
X151927011Y-92488294D01*
X151875500Y-92499500D01*
X132724675Y-92499500D01*
X132724655Y-92499499D01*
X132718541Y-92499499D01*
X132521460Y-92499499D01*
X132521457Y-92499499D01*
X132328172Y-92537946D01*
X132328164Y-92537948D01*
X132146088Y-92613366D01*
X132146079Y-92613371D01*
X131982219Y-92722859D01*
X131982215Y-92722862D01*
X125891897Y-98813181D01*
X125830574Y-98846666D01*
X125804216Y-98849500D01*
X124182129Y-98849500D01*
X124182123Y-98849501D01*
X124122516Y-98855908D01*
X123987671Y-98906202D01*
X123987664Y-98906206D01*
X123872455Y-98992452D01*
X123872452Y-98992455D01*
X123786206Y-99107664D01*
X123786202Y-99107671D01*
X123735908Y-99242517D01*
X123729501Y-99302116D01*
X123729500Y-99302135D01*
X117500500Y-99302135D01*
X117500500Y-92883994D01*
X123730000Y-92883994D01*
X123730000Y-93116005D01*
X123730001Y-93116022D01*
X123760283Y-93346040D01*
X123760286Y-93346053D01*
X123820336Y-93570167D01*
X123909124Y-93784521D01*
X123909132Y-93784538D01*
X124025136Y-93985461D01*
X124025142Y-93985469D01*
X124084117Y-94062327D01*
X124784152Y-93362292D01*
X124791049Y-93378942D01*
X124878599Y-93509970D01*
X124990030Y-93621401D01*
X125121058Y-93708951D01*
X125137706Y-93715846D01*
X124437671Y-94415881D01*
X124514530Y-94474857D01*
X124514538Y-94474863D01*
X124715461Y-94590867D01*
X124715478Y-94590875D01*
X124929832Y-94679663D01*
X125153946Y-94739713D01*
X125153959Y-94739716D01*
X125383977Y-94769998D01*
X125383995Y-94770000D01*
X125616005Y-94770000D01*
X125616022Y-94769998D01*
X125846040Y-94739716D01*
X125846053Y-94739713D01*
X126070167Y-94679663D01*
X126284521Y-94590875D01*
X126284538Y-94590867D01*
X126485475Y-94474855D01*
X126562327Y-94415883D01*
X126562327Y-94415880D01*
X125862293Y-93715847D01*
X125878942Y-93708951D01*
X126009970Y-93621401D01*
X126121401Y-93509970D01*
X126208951Y-93378942D01*
X126215846Y-93362293D01*
X126915880Y-94062327D01*
X126915883Y-94062327D01*
X126974855Y-93985475D01*
X127090867Y-93784538D01*
X127090875Y-93784521D01*
X127179663Y-93570167D01*
X127239713Y-93346053D01*
X127239716Y-93346040D01*
X127269998Y-93116022D01*
X127270000Y-93116005D01*
X127270000Y-92883994D01*
X127269998Y-92883977D01*
X127239716Y-92653959D01*
X127239713Y-92653946D01*
X127179663Y-92429832D01*
X127090875Y-92215478D01*
X127090867Y-92215461D01*
X126974863Y-92014538D01*
X126974857Y-92014530D01*
X126915881Y-91937671D01*
X126215846Y-92637705D01*
X126208951Y-92621058D01*
X126121401Y-92490030D01*
X126009970Y-92378599D01*
X125878942Y-92291049D01*
X125862293Y-92284152D01*
X126562327Y-91584117D01*
X126485469Y-91525142D01*
X126485461Y-91525136D01*
X126284538Y-91409132D01*
X126284521Y-91409124D01*
X126070167Y-91320336D01*
X125846053Y-91260286D01*
X125846040Y-91260283D01*
X125616022Y-91230001D01*
X125616005Y-91230000D01*
X125383995Y-91230000D01*
X125383977Y-91230001D01*
X125153959Y-91260283D01*
X125153946Y-91260286D01*
X124929832Y-91320336D01*
X124715478Y-91409124D01*
X124715461Y-91409132D01*
X124514541Y-91525134D01*
X124514533Y-91525140D01*
X124437671Y-91584116D01*
X124437671Y-91584117D01*
X125137706Y-92284152D01*
X125121058Y-92291049D01*
X124990030Y-92378599D01*
X124878599Y-92490030D01*
X124791049Y-92621058D01*
X124784153Y-92637706D01*
X124084117Y-91937671D01*
X124084116Y-91937671D01*
X124025140Y-92014533D01*
X124025134Y-92014541D01*
X123909132Y-92215461D01*
X123909124Y-92215478D01*
X123820336Y-92429832D01*
X123760286Y-92653946D01*
X123760283Y-92653959D01*
X123730001Y-92883977D01*
X123730000Y-92883994D01*
X117500500Y-92883994D01*
X117500500Y-74383947D01*
X123729500Y-74383947D01*
X123729500Y-74616052D01*
X123759794Y-74846148D01*
X123819862Y-75070328D01*
X123908677Y-75284745D01*
X123908685Y-75284762D01*
X124024720Y-75485743D01*
X124024721Y-75485745D01*
X124166009Y-75669875D01*
X124166015Y-75669882D01*
X124330117Y-75833984D01*
X124330124Y-75833990D01*
X124514254Y-75975278D01*
X124514256Y-75975279D01*
X124715237Y-76091314D01*
X124715240Y-76091315D01*
X124715248Y-76091320D01*
X124929670Y-76180137D01*
X125153851Y-76240206D01*
X125383955Y-76270500D01*
X125383962Y-76270500D01*
X125616038Y-76270500D01*
X125616045Y-76270500D01*
X125846149Y-76240206D01*
X126070330Y-76180137D01*
X126284752Y-76091320D01*
X126349211Y-76054104D01*
X126417109Y-76037632D01*
X126483136Y-76060484D01*
X126498891Y-76073811D01*
X134863427Y-84438347D01*
X134896912Y-84499670D01*
X134898921Y-84529166D01*
X134899500Y-84529166D01*
X134899500Y-84534038D01*
X134899500Y-84785962D01*
X134904636Y-84818390D01*
X134938910Y-85034785D01*
X135016760Y-85274383D01*
X135131132Y-85498848D01*
X135279201Y-85702649D01*
X135279205Y-85702654D01*
X135460789Y-85884238D01*
X135459714Y-85885312D01*
X135494225Y-85938180D01*
X135499500Y-85973962D01*
X135499500Y-87319698D01*
X135479815Y-87386737D01*
X135427011Y-87432492D01*
X135414505Y-87437404D01*
X135330665Y-87465186D01*
X135330662Y-87465187D01*
X135181342Y-87557289D01*
X135057289Y-87681342D01*
X134965187Y-87830662D01*
X134965186Y-87830665D01*
X134910001Y-87997202D01*
X134910001Y-87997203D01*
X134910000Y-87997203D01*
X134899500Y-88099982D01*
X134899500Y-89676500D01*
X134896949Y-89685185D01*
X134898238Y-89694147D01*
X134887259Y-89718187D01*
X134879815Y-89743539D01*
X134872974Y-89749466D01*
X134869213Y-89757703D01*
X134846978Y-89771992D01*
X134827011Y-89789294D01*
X134816496Y-89791581D01*
X134810435Y-89795477D01*
X134775500Y-89800500D01*
X134646782Y-89800500D01*
X134579743Y-89780815D01*
X134559101Y-89764181D01*
X127306818Y-82511898D01*
X127273333Y-82450575D01*
X127270499Y-82424217D01*
X127270499Y-80802129D01*
X127270498Y-80802123D01*
X127270497Y-80802116D01*
X127264091Y-80742517D01*
X127213796Y-80607669D01*
X127213795Y-80607668D01*
X127213793Y-80607664D01*
X127127547Y-80492455D01*
X127127544Y-80492452D01*
X127012335Y-80406206D01*
X127012328Y-80406202D01*
X126877482Y-80355908D01*
X126877483Y-80355908D01*
X126817883Y-80349501D01*
X126817881Y-80349500D01*
X126817873Y-80349500D01*
X126817864Y-80349500D01*
X124182129Y-80349500D01*
X124182123Y-80349501D01*
X124122516Y-80355908D01*
X123987671Y-80406202D01*
X123987664Y-80406206D01*
X123872455Y-80492452D01*
X123872452Y-80492455D01*
X123786206Y-80607664D01*
X123786202Y-80607671D01*
X123735908Y-80742517D01*
X123729501Y-80802116D01*
X123729501Y-80802123D01*
X123729500Y-80802135D01*
X123729500Y-83437870D01*
X123729501Y-83437876D01*
X123735908Y-83497483D01*
X123786202Y-83632328D01*
X123786206Y-83632335D01*
X123872452Y-83747544D01*
X123872455Y-83747547D01*
X123987664Y-83833793D01*
X123987671Y-83833797D01*
X124122517Y-83884091D01*
X124122516Y-83884091D01*
X124129444Y-83884835D01*
X124182127Y-83890500D01*
X125804217Y-83890499D01*
X125871256Y-83910184D01*
X125891898Y-83926818D01*
X133400735Y-91435655D01*
X133400764Y-91435686D01*
X133543214Y-91578136D01*
X133543218Y-91578139D01*
X133707079Y-91687628D01*
X133707092Y-91687635D01*
X133835833Y-91740961D01*
X133878744Y-91758735D01*
X133889164Y-91763051D01*
X133985812Y-91782275D01*
X134034135Y-91791887D01*
X134082458Y-91801500D01*
X134082459Y-91801500D01*
X140797542Y-91801500D01*
X140828566Y-91795328D01*
X140894188Y-91782275D01*
X140990836Y-91763051D01*
X141044165Y-91740961D01*
X141172914Y-91687632D01*
X141336782Y-91578139D01*
X141476139Y-91438782D01*
X141476139Y-91438780D01*
X141486347Y-91428573D01*
X141486348Y-91428570D01*
X142278102Y-90636819D01*
X142339425Y-90603334D01*
X142365783Y-90600500D01*
X143400005Y-90600500D01*
X143400010Y-90600500D01*
X143502798Y-90589999D01*
X143669335Y-90534814D01*
X143818656Y-90442712D01*
X143942712Y-90318656D01*
X144034814Y-90169335D01*
X144089999Y-90002798D01*
X144100500Y-89900010D01*
X144100500Y-88099990D01*
X144089999Y-87997202D01*
X144034814Y-87830665D01*
X144018960Y-87804961D01*
X144000500Y-87739866D01*
X144000500Y-85973962D01*
X144020185Y-85906923D01*
X144039623Y-85884650D01*
X144039211Y-85884238D01*
X144118915Y-85804534D01*
X144220793Y-85702656D01*
X144368870Y-85498845D01*
X144483241Y-85274379D01*
X144561090Y-85034785D01*
X144600500Y-84785962D01*
X144600500Y-84534038D01*
X144561090Y-84285215D01*
X144483241Y-84045621D01*
X144483239Y-84045618D01*
X144483239Y-84045616D01*
X144404202Y-83890499D01*
X144368870Y-83821155D01*
X144231682Y-83632331D01*
X144220798Y-83617350D01*
X144220794Y-83617345D01*
X144042654Y-83439205D01*
X144042649Y-83439201D01*
X143838848Y-83291132D01*
X143838847Y-83291131D01*
X143838845Y-83291130D01*
X143768747Y-83255413D01*
X143614383Y-83176760D01*
X143374785Y-83098910D01*
X143242696Y-83077989D01*
X143125962Y-83059500D01*
X142874038Y-83059500D01*
X142794132Y-83072156D01*
X142625214Y-83098910D01*
X142385616Y-83176760D01*
X142161151Y-83291132D01*
X141957350Y-83439201D01*
X141957345Y-83439205D01*
X141779205Y-83617345D01*
X141779201Y-83617350D01*
X141631132Y-83821151D01*
X141516760Y-84045616D01*
X141438910Y-84285214D01*
X141425712Y-84368541D01*
X141399500Y-84534038D01*
X141399500Y-84785962D01*
X141404636Y-84818390D01*
X141438910Y-85034785D01*
X141516760Y-85274383D01*
X141631132Y-85498848D01*
X141779201Y-85702649D01*
X141779205Y-85702654D01*
X141960789Y-85884238D01*
X141959714Y-85885312D01*
X141994225Y-85938180D01*
X141999500Y-85973962D01*
X141999500Y-87275500D01*
X141979815Y-87342539D01*
X141927011Y-87388294D01*
X141875500Y-87399500D01*
X141599982Y-87399500D01*
X141497203Y-87410000D01*
X141497202Y-87410001D01*
X141429329Y-87432492D01*
X141330667Y-87465185D01*
X141330662Y-87465187D01*
X141181342Y-87557289D01*
X141057289Y-87681342D01*
X140965187Y-87830662D01*
X140965186Y-87830665D01*
X140910001Y-87997202D01*
X140910001Y-87997203D01*
X140910000Y-87997203D01*
X140899500Y-88099982D01*
X140899500Y-89134217D01*
X140879815Y-89201256D01*
X140863181Y-89221898D01*
X140320899Y-89764181D01*
X140259576Y-89797666D01*
X140233218Y-89800500D01*
X138224500Y-89800500D01*
X138157461Y-89780815D01*
X138111706Y-89728011D01*
X138100500Y-89676500D01*
X138100500Y-88099995D01*
X138100499Y-88099982D01*
X138089999Y-87997203D01*
X138089999Y-87997202D01*
X138034814Y-87830665D01*
X137942712Y-87681344D01*
X137818656Y-87557288D01*
X137669335Y-87465186D01*
X137585495Y-87437404D01*
X137528050Y-87397631D01*
X137501228Y-87333114D01*
X137500500Y-87319698D01*
X137500500Y-85973962D01*
X137520185Y-85906923D01*
X137539623Y-85884650D01*
X137539211Y-85884238D01*
X137618915Y-85804534D01*
X137720793Y-85702656D01*
X137868870Y-85498845D01*
X137983241Y-85274379D01*
X138061090Y-85034785D01*
X138100500Y-84785962D01*
X138100500Y-84534038D01*
X138061090Y-84285215D01*
X137983241Y-84045621D01*
X137983239Y-84045618D01*
X137983239Y-84045616D01*
X137904202Y-83890499D01*
X137868870Y-83821155D01*
X137731682Y-83632331D01*
X137720798Y-83617350D01*
X137720794Y-83617345D01*
X137542654Y-83439205D01*
X137542649Y-83439201D01*
X137338848Y-83291132D01*
X137338847Y-83291131D01*
X137338845Y-83291130D01*
X137268747Y-83255413D01*
X137114383Y-83176760D01*
X136874785Y-83098910D01*
X136742696Y-83077989D01*
X136625962Y-83059500D01*
X136374038Y-83059500D01*
X136369166Y-83059500D01*
X136369166Y-83057988D01*
X136307346Y-83044982D01*
X136278347Y-83023427D01*
X127194429Y-73939509D01*
X127167549Y-73899281D01*
X127091322Y-73715254D01*
X127091320Y-73715248D01*
X127077194Y-73690781D01*
X126975279Y-73514256D01*
X126975278Y-73514254D01*
X126833990Y-73330124D01*
X126833984Y-73330117D01*
X126669882Y-73166015D01*
X126669875Y-73166009D01*
X126485745Y-73024721D01*
X126485743Y-73024720D01*
X126284762Y-72908685D01*
X126284754Y-72908681D01*
X126284752Y-72908680D01*
X126070330Y-72819863D01*
X126070331Y-72819863D01*
X126070328Y-72819862D01*
X125928203Y-72781780D01*
X125846149Y-72759794D01*
X125817386Y-72756007D01*
X125616052Y-72729500D01*
X125616045Y-72729500D01*
X125383955Y-72729500D01*
X125383947Y-72729500D01*
X125153851Y-72759794D01*
X124929671Y-72819862D01*
X124715254Y-72908677D01*
X124715237Y-72908685D01*
X124514256Y-73024720D01*
X124514254Y-73024721D01*
X124330124Y-73166009D01*
X124330117Y-73166015D01*
X124166015Y-73330117D01*
X124166009Y-73330124D01*
X124024721Y-73514254D01*
X124024720Y-73514256D01*
X123908685Y-73715237D01*
X123908677Y-73715254D01*
X123819862Y-73929671D01*
X123759794Y-74153851D01*
X123729500Y-74383947D01*
X117500500Y-74383947D01*
X117500500Y-65124500D01*
X117520185Y-65057461D01*
X117572989Y-65011706D01*
X117624500Y-65000500D01*
X118971696Y-65000500D01*
X119038735Y-65020185D01*
G37*
%TD.AperFunction*%
%TD*%
M02*
